<svg width="25" height="25" viewBox="0 0 25 25" version="1.1" xmlns="http://www.w3.org/2000/svg" xmlns:xlink="http://www.w3.org/1999/xlink">
    <title>add</title>
    <desc>Created using Figma</desc>
    <g id="Canvas" transform="translate(-18282 -28601)">
        <g id="add">
            <path d="M 0.883794 13.3897C 0.391383 13.3897 3.02272e-10 12.9858 3.02272e-10 12.4936C 3.02272e-10 12.0015 0.391383 11.6103 0.883794 11.6103L 11.6031 11.6103L 11.6031 0.896037C 11.6039 0.403893 12.008 0 12.5004 0C 12.9928 0 13.3842 0.403893 13.3842 0.896037L 13.3842 11.6103L 24.1035 11.6103C 24.5959 11.6103 25 12.0015 25 12.4936C 25 12.9858 24.5959 13.3897 24.1035 13.3897L 13.3842 13.3897L 13.3842 24.104C 13.3842 24.5961 12.9928 25 12.5004 25C 12.008 25 11.6039 24.5961 11.6039 24.104L 11.6039 13.3897L 0.883794 13.3897Z" transform="translate(18282 28601)" fill="#FFFFFF"></path>
        </g>
    </g>
</svg>
