<svg width="12" height="12" viewBox="0 0 12 12" version="1.1" xmlns="http://www.w3.org/2000/svg" xmlns:xlink="http://www.w3.org/1999/xlink">
    <title>close</title>
    <desc>Created using Figma</desc>
    <g id="Canvas" transform="translate(-19592 -26967)">
        <g id="close">
            <path d="M 0.151247 0.895053C -0.0504155 0.693886 -0.0504155 0.359076 0.151247 0.150875C 0.35996 -0.0502918 0.688542 -0.0502918 0.897256 0.150875L 5.37378 4.62391L 9.85782 0.150875C 10.0595 -0.0502918 10.3951 -0.0502918 10.5963 0.150875C 10.805 0.359076 10.805 0.694355 10.5963 0.895053L 6.11979 5.36106L 10.5963 9.8341C 10.805 10.0353 10.805 10.3701 10.5963 10.5783C 10.3946 10.7794 10.059 10.7794 9.85782 10.5783L 5.37378 6.10524L 0.897256 10.5783C 0.688542 10.7794 0.35996 10.7794 0.151247 10.5783C -0.0504155 10.3701 -0.0504155 10.0348 0.151247 9.8341L 4.62777 5.36106L 0.151247 0.895053Z" transform="translate(19592.9 26968)" fill="#A7A9B5"></path>
        </g>
    </g>
</svg>
