<svg width="23" height="25" viewBox="0 0 23 25" version="1.1" xmlns="http://www.w3.org/2000/svg" xmlns:xlink="http://www.w3.org/1999/xlink">
    <title>gate</title>
    <desc>Created using Figma</desc>
    <g id="Canvas" transform="translate(-28154 -25995)">
        <g id="gate">
            <g id="Vector">
                <path d="M 22.671 11.1357C 22.4643 10.9856 22.1984 10.9433 21.9553 11.022C 20.0987 11.6228 18.4461 11.6918 17.0275 11.2339L 17.0275 8.68101L 17.4112 8.68101C 19.1553 8.68101 20.5743 7.26349 20.5743 5.52106C 20.5743 5.26584 20.4521 5.02594 20.2455 4.87577C 20.0387 4.72561 19.7727 4.68327 19.5297 4.76205C 17.7655 5.33301 16.2529 5.27072 15.0335 4.57729C 12.9243 3.37762 12.2856 0.650171 12.2798 0.624665C 12.1991 0.259849 11.8756 0.000925929 11.5016 0C 11.5011 0 11.5004 0 11.4997 0C 11.1266 0 10.8029 0.259176 10.7206 0.622814C 10.7143 0.650171 10.0756 3.37762 7.96638 4.57729C 6.74715 5.27056 5.23452 5.33285 3.47022 4.76205C 3.22721 4.68352 2.96104 4.72594 2.75444 4.87577C 2.54783 5.02594 2.42557 5.26576 2.42557 5.52106C 2.42557 7.26349 3.84458 8.68101 5.58875 8.68101L 5.97238 8.68101L 5.97238 11.2337C 4.55379 11.6915 2.90113 11.6226 1.04465 11.0219C 0.801643 10.9434 0.535468 10.9857 0.328864 11.1356C 0.12226 11.2858 1.6714e-08 11.5256 1.6714e-08 11.7809C 1.6714e-08 13.9051 1.72984 15.6332 3.85613 15.6332L 4.28054 15.6332L 4.28054 24.2022C 4.28054 24.6428 4.63814 25 5.07915 25L 17.9209 25C 18.3619 25 18.7195 24.6428 18.7195 24.2022L 18.7195 15.6333L 19.1438 15.6333C 21.2701 15.6333 23 13.9052 23 11.781C 23 11.5258 22.8777 11.2859 22.671 11.1357ZM 4.50619 6.65044C 6.09801 6.8991 7.5268 6.66745 8.7692 5.95675C 10.1023 5.19421 10.964 4.01693 11.5 2.99723C 12.036 4.01693 12.8976 5.19429 14.2307 5.95675C 15.473 6.66728 16.9018 6.89893 18.4937 6.65044C 18.2123 6.91972 17.8308 7.08546 17.4112 7.08546L 5.58875 7.08546C 5.16914 7.08546 4.78761 6.91972 4.50619 6.65044ZM 15.4303 8.68109L 15.4303 10.8518L 7.5696 10.8518L 7.5696 8.68109L 15.4303 8.68109ZM 5.87767 15.6333L 6.74816 15.6333L 6.74816 23.4045L 5.87767 23.4045L 5.87767 15.6333ZM 14.6545 15.6333L 14.6545 23.4045L 8.34546 23.4045L 8.34546 15.6333L 14.6545 15.6333ZM 17.1222 23.4045L 16.2518 23.4045L 16.2518 15.6333L 17.1222 15.6333L 17.1222 23.4045ZM 19.1438 14.0377L 3.85604 14.0377C 3.01783 14.0377 2.28469 13.5792 1.89491 12.9C 3.883 13.3186 5.68059 13.1675 7.25565 12.4473L 15.7441 12.4473C 17.3192 13.1674 19.1169 13.3186 21.1049 12.9C 20.7151 13.5792 19.982 14.0377 19.1438 14.0377Z" transform="translate(28154 25995)" fill="#FFFFFF"></path>
            </g>
        </g>
    </g>
</svg>
