<svg width="46" height="32" viewBox="0 0 46 32" version="1.1" xmlns="http://www.w3.org/2000/svg" xmlns:xlink="http://www.w3.org/1999/xlink">
    <title>left-arrow</title>
    <desc>Created using Figma</desc>
    <g id="Canvas" transform="translate(-20582 -26743)">
        <g id="left-arrow">
            <g id="Vector">
                <path d="M 15.0054 0.481279C 15.6539 -0.160427 16.6749 -0.160427 17.3233 0.481279C 17.9499 1.10131 17.9499 2.13324 17.3233 2.75182L 5.57021 14.382L 44.354 14.382C 45.258 14.382 46 15.0931 46 15.9877C 46 16.8823 45.258 17.6165 44.354 17.6165L 5.57021 17.6165L 17.3233 29.2251C 17.9499 29.8668 17.9499 30.9001 17.3233 31.5187C 16.6749 32.1604 15.6539 32.1604 15.0054 31.5187L 0.469936 17.1353C -0.156645 16.5152 -0.156645 15.4833 0.469936 14.8647L 15.0054 0.481279Z" transform="translate(20582 26743)" fill="#FFFFFF"></path>
            </g>
        </g>
    </g>
</svg>
