<svg width="32" height="29" viewBox="0 0 32 29" version="1.1" xmlns="http://www.w3.org/2000/svg" xmlns:xlink="http://www.w3.org/1999/xlink">
    <title>meat</title>
    <desc>Created using Figma</desc>
    <g id="Canvas" transform="translate(-21091 -28430)">
        <g id="meat">
            <g id="Vector 7">
                <path d="M 0 16.4261L -0.498621 16.389L -0.5 16.4075L -0.5 16.4261L 0 16.4261ZM 3.81172 5.9204L 4.12744 6.30812L 3.81172 5.9204ZM 11.1419 1.54303L 10.9523 1.08037L 11.1419 1.54303ZM 17.8858 0.0838998L 17.7283 0.558465L 17.8202 0.588947L 17.9168 0.582934L 17.8858 0.0838998ZM 29.9073 11.1731L 29.4251 11.041L 29.4129 11.0855L 29.4091 11.1314L 29.9073 11.1731ZM 25.8024 17.3015L 25.5187 16.8897L 25.3024 17.0388L 25.3024 17.3015L 25.8024 17.3015ZM 0.498621 16.4632C 0.594152 15.1796 0.896677 13.1146 1.49079 11.1189C 2.09203 9.09932 2.96157 7.25751 4.12744 6.30812L 3.496 5.53269C 2.08163 6.68444 1.14304 8.78227 0.532356 10.8336C -0.0854658 12.9089 -0.398679 15.0462 -0.498621 16.389L 0.498621 16.4632ZM 4.12744 6.30812C 5.78274 4.96017 6.31124 4.42509 7.08464 3.93525C 7.84507 3.45363 8.82272 3.03385 11.3315 2.00568L 10.9523 1.08037C 8.47661 2.09498 7.4018 2.55068 6.54958 3.09044C 5.71033 3.62199 5.066 4.25421 3.496 5.53269L 4.12744 6.30812ZM 11.3315 2.00568C 13.2977 1.19991 14.8007 0.798501 15.8711 0.620933C 16.9663 0.439261 17.5549 0.50094 17.7283 0.558465L 18.0432 -0.390665C 17.6302 -0.527691 16.8407 -0.553559 15.7075 -0.365586C 14.5496 -0.173509 12.9738 0.251917 10.9523 1.08037L 11.3315 2.00568ZM 17.9168 0.582934C 19.3581 0.493246 23.1602 1.07778 26.3293 4.2319L 27.0347 3.52312C 23.6359 0.140359 19.541 -0.520072 17.8547 -0.415135L 17.9168 0.582934ZM 26.3293 4.2319C 29.5233 7.41083 29.6582 10.1905 29.4251 11.041L 30.3895 11.3053C 30.7429 10.0158 30.4086 6.88108 27.0347 3.52312L 26.3293 4.2319ZM 29.4091 11.1314C 29.323 12.1588 28.4372 14.8788 25.5187 16.8897L 26.0861 17.7132C 29.2663 15.5219 30.2961 12.5221 30.4056 11.2149L 29.4091 11.1314ZM 25.3024 17.3015C 25.3024 17.1937 25.3395 17.1142 25.3654 17.0715C 25.391 17.0292 25.4166 17.0043 25.4259 16.9957C 25.4435 16.9795 25.4463 16.9816 25.4143 16.9994C 25.3545 17.0328 25.2457 17.0815 25.0805 17.1421C 24.7558 17.2612 24.2801 17.4021 23.7025 17.5458C 22.5496 17.8327 21.0342 18.1199 19.5955 18.2631L 19.6945 19.2581C 21.1879 19.1095 22.7512 18.813 23.944 18.5162C 24.5393 18.3681 25.0531 18.2172 25.4248 18.081C 25.6077 18.0139 25.7738 17.944 25.9018 17.8725C 25.9638 17.838 26.0388 17.791 26.105 17.7298C 26.1504 17.6878 26.3024 17.5406 26.3024 17.3015L 25.3024 17.3015ZM 19.5955 18.2631C 18.1624 18.4057 17.3324 18.3336 16.603 18.3336C 15.8427 18.3336 15.2345 18.4191 14.4041 18.915L 14.9168 19.7735C 15.5524 19.3939 15.9705 19.3336 16.603 19.3336C 17.2662 19.3336 18.1955 19.4073 19.6945 19.2581L 19.5955 18.2631ZM 14.4041 18.915C 13.5623 19.4177 13.0649 20.0906 12.6701 20.9159C 12.2916 21.7068 11.9776 22.7121 11.5537 23.8372L 12.4895 24.1897C 12.9452 22.9802 13.2175 22.0886 13.5721 21.3475C 13.9103 20.6407 14.2926 20.1463 14.9168 19.7735L 14.4041 18.915ZM 11.5537 23.8372C 11.1469 24.9168 10.6258 25.4769 10.0758 25.8114C 9.50362 26.1594 8.85883 26.2927 8.11224 26.4413L 8.30747 27.4221C 9.02693 27.2789 9.84817 27.1203 10.5954 26.6658C 11.3649 26.1978 12.0166 25.4447 12.4895 24.1897L 11.5537 23.8372ZM 8.11224 26.4413C 7.48483 26.5662 6.40681 26.5093 5.30599 26.0985C 4.21534 25.6914 3.15078 24.9552 2.48905 23.7698L 1.61587 24.2572C 2.42019 25.6981 3.70131 26.5669 4.95632 27.0354C 6.20118 27.5 7.46883 27.589 8.30747 27.4221L 8.11224 26.4413ZM 2.48905 23.7698C 1.74582 22.4382 1.2646 21.6149 0.953796 20.6182C 0.645929 19.6309 0.5 18.4489 0.5 16.4261L -0.5 16.4261C -0.5 18.4889 -0.35272 19.7875 -0.00086638 20.9158C 0.348045 22.0348 0.893061 22.9622 1.61587 24.2572L 2.48905 23.7698Z" transform="translate(21092 28431)" fill="#A7A9B5"></path>
            </g>
            <g id="Vector 8">
                <path d="M 0 15.5205L -0.375 15.5205L -0.375 15.5361L -0.373692 15.5517L 0 15.5205ZM 0.879627 10.2676L 1.22758 10.4074L 0.879627 10.2676ZM 2.05246 8.22482L 1.93438 7.8689L 2.05246 8.22482ZM 4.10493 9.1003L 4.38553 8.85153L 4.37776 8.84277L 4.36946 8.83451L 4.10493 9.1003ZM 8.79627 16.1041L 9.16747 16.0508L 8.79627 16.1041ZM 2.93209 21.9406L 2.66755 22.2064L 2.66755 22.2064L 2.93209 21.9406ZM 8.50306 1.80468L 8.65278 2.14849L 8.66676 2.1424L 8.6802 2.1352L 8.50306 1.80468ZM 21.6975 1.80468L 21.9192 1.50228L 21.6975 1.80468ZM 19.645 14.0612L 19.645 14.4362L 19.6574 14.4362L 19.6698 14.4354L 19.645 14.0612ZM 16.1265 12.6021L 16.3508 12.3016L 16.3322 12.2876L 16.312 12.2761L 16.1265 12.6021ZM 11.7284 11.4348L 11.7812 11.0635L 11.7284 11.4348ZM 5.27776 7.34921L 4.93186 7.49403L 4.94155 7.51718L 4.95424 7.53883L 5.27776 7.34921ZM 0.375 15.5205C 0.375 13.8052 0.78036 11.5202 1.22758 10.4074L 0.531676 10.1278C 0.0406258 11.3496 -0.375 13.7338 -0.375 15.5205L 0.375 15.5205ZM 1.22758 10.4074C 1.38019 10.0277 1.47573 9.72336 1.54676 9.47827C 1.62142 9.22068 1.65893 9.06831 1.70701 8.94069C 1.74877 8.82984 1.78368 8.7821 1.82598 8.74548C 1.87662 8.70166 1.96889 8.64765 2.17054 8.58075L 1.93438 7.8689C 1.69622 7.94791 1.49529 8.03981 1.33518 8.17838C 1.16674 8.32416 1.07336 8.49528 1.00517 8.67625C 0.943305 8.84046 0.889187 9.05287 0.826403 9.26949C 0.759994 9.49863 0.672276 9.77792 0.531676 10.1278L 1.22758 10.4074ZM 2.17054 8.58075C 2.37121 8.51417 2.66735 8.57336 3.02038 8.76045C 3.35743 8.93906 3.66537 9.19189 3.84039 9.36609L 4.36946 8.83451C 4.15354 8.6196 3.7871 8.31796 3.37158 8.09775C 2.97204 7.88601 2.43742 7.70201 1.93438 7.8689L 2.17054 8.58075ZM 3.82432 9.34906C 4.55095 10.1687 5.65658 11.5009 6.60759 12.8279C 7.08325 13.4917 7.51604 14.1483 7.84281 14.7353C 8.17528 15.3325 8.37675 15.8207 8.42508 16.1574L 9.16747 16.0508C 9.09851 15.5704 8.83817 14.9813 8.4981 14.3705C 8.15232 13.7494 7.70181 13.0673 7.21722 12.3911C 6.24771 11.0382 5.12495 9.68558 4.38553 8.85153L 3.82432 9.34906ZM 8.42508 16.1574C 8.57373 17.193 8.64118 17.67 8.64118 18.0375C 8.64118 18.3846 8.58114 18.6314 8.43257 19.2228L 9.15997 19.4055C 9.30462 18.8297 9.39118 18.4928 9.39118 18.0375C 9.39118 17.6024 9.31202 17.058 9.16747 16.0508L 8.42508 16.1574ZM 8.43257 19.2228C 8.19375 20.1736 8.12806 20.8288 8.12806 21.0651L 8.87806 21.0651C 8.87806 20.9124 8.92966 20.3224 9.15997 19.4055L 8.43257 19.2228ZM 8.12806 21.0651C 8.12806 21.2267 7.8948 22.0155 6.34803 22.4554L 6.55317 23.1768C 8.29034 22.6828 8.87806 21.6817 8.87806 21.0651L 8.12806 21.0651ZM 6.34803 22.4554C 4.88108 22.8725 3.62713 22.1033 3.19663 21.6748L 2.66755 22.2064C 3.21442 22.7507 4.73618 23.6935 6.55317 23.1768L 6.34803 22.4554ZM 3.19663 21.6748C 2.54287 21.0241 0.656376 18.8654 0.373692 15.4892L -0.373692 15.5517C -0.0699583 19.1794 1.953 21.4952 2.66755 22.2064L 3.19663 21.6748ZM 8.6802 2.1352C 9.91264 1.47471 12.0497 0.674439 14.4186 0.441516C 16.7863 0.208711 19.3465 0.545558 21.4757 2.10707L 21.9192 1.50228C 19.5917 -0.204648 16.8252 -0.548727 14.3452 -0.304884C 11.8664 -0.0611595 9.63463 0.772787 8.32593 1.47415L 8.6802 2.1352ZM 21.4757 2.10707C 24.2139 4.11514 25.2461 5.87165 25.5853 7.22189C 25.9253 8.57534 25.589 9.57797 25.4387 10.1762L 26.1661 10.359C 26.309 9.79006 26.7058 8.60401 26.3127 7.03918C 25.9188 5.47114 24.7521 3.57977 21.9192 1.50228L 21.4757 2.10707ZM 25.4387 10.1762C 25.1879 11.1747 23.8674 13.4052 19.6202 13.687L 19.6698 14.4354C 24.2188 14.1335 25.8305 11.6948 26.1661 10.359L 25.4387 10.1762ZM 19.645 13.6862C 18.028 13.6862 17.3028 13.0122 16.3508 12.3016L 15.9022 12.9026C 16.8267 13.5927 17.7435 14.4362 19.645 14.4362L 19.645 13.6862ZM 16.312 12.2761C 15.0677 11.5681 13.6534 11.33 11.7812 11.0635L 11.6755 11.806C 13.5669 12.0752 14.8396 12.3012 15.941 12.928L 16.312 12.2761ZM 11.7812 11.0635C 10.4877 10.8794 9.3376 10.5684 8.3172 9.97722C 7.30114 9.38859 6.39281 8.51008 5.60129 7.15959L 4.95424 7.53883C 5.80468 8.98985 6.80222 9.96632 7.94124 10.6262C 9.07593 11.2835 10.3302 11.6145 11.6755 11.806L 11.7812 11.0635ZM 5.62367 7.20438C 5.41324 6.70179 5.28921 5.82455 5.64978 4.88669C 6.00587 3.96047 6.85138 2.93294 8.65278 2.14849L 8.35334 1.46086C 6.40167 2.31075 5.39019 3.47188 4.94973 4.61755C 4.51375 5.75157 4.6536 6.82942 4.93186 7.49403L 5.62367 7.20438Z" transform="translate(21093.8 28433.1)" fill="#A7A9B5"></path>
            </g>
            <g id="Ellipse 3">
                <mask id="mask0_outline_ins">
                    <path d="M 4.69134 2.3346C 4.69134 3.62397 3.64115 4.6692 2.34567 4.6692C 1.05019 4.6692 0 3.62397 0 2.3346C 0 1.04524 1.05019 0 2.34567 0C 3.64115 0 4.69134 1.04524 4.69134 2.3346Z" fill="white" transform="translate(21112.5 28439.5)"></path>
                </mask>
                <g mask="url(#mask0_outline_ins)">
                    <path d="M 3.94134 2.3346C 3.94134 3.20641 3.23029 3.9192 2.34567 3.9192L 2.34567 5.4192C 4.05202 5.4192 5.44134 4.04152 5.44134 2.3346L 3.94134 2.3346ZM 2.34567 3.9192C 1.46106 3.9192 0.75 3.20641 0.75 2.3346L -0.75 2.3346C -0.75 4.04152 0.639329 5.4192 2.34567 5.4192L 2.34567 3.9192ZM 0.75 2.3346C 0.75 1.46279 1.46106 0.75 2.34567 0.75L 2.34567 -0.75C 0.639329 -0.75 -0.75 0.627682 -0.75 2.3346L 0.75 2.3346ZM 2.34567 0.75C 3.23029 0.75 3.94134 1.46279 3.94134 2.3346L 5.44134 2.3346C 5.44134 0.627682 4.05202 -0.75 2.34567 -0.75L 2.34567 0.75Z" transform="translate(21112.5 28439.5)" fill="#A7A9B5"></path>
                </g>
            </g>
        </g>
    </g>
</svg>
