<svg width="57" height="76" viewBox="0 0 57 76" version="1.1" xmlns="http://www.w3.org/2000/svg" xmlns:xlink="http://www.w3.org/1999/xlink">
    <title>pdf</title>
    <desc>Created using Figma</desc>
    <g id="Canvas" transform="translate(-18040 -26707)">
        <g id="pdf">
            <g id="Vector 9">
                <path d="M 6.5 0L 7.08817 -0.808736L 5.5 -1.96377L 5.5 0L 6.5 0ZM 6.5 47L 5.5 47L 5.5 47.4577L 5.84638 47.7568L 6.5 47ZM 0 7L 0 6L -1 6L -1 7L 0 7ZM 0 68.5L -1 68.5L -1 69.5L 0 69.5L 0 68.5ZM 40.5 12C 40.5 9.90316 38.2155 6.83166 31.624 6.00772L 31.376 7.99228C 37.5845 8.76834 38.5 11.4302 38.5 12L 40.5 12ZM 31.624 6.00772C 27.6421 5.50997 22.8104 4.76576 18.3019 3.65408C 13.7639 2.53512 9.67345 1.07147 7.08817 -0.808736L 5.91183 0.808736C 8.82655 2.92853 13.2361 4.46488 17.8231 5.59592C 22.4396 6.73424 27.3579 7.49003 31.376 7.99228L 31.624 6.00772ZM 5.5 0C 5.5 0.00078125 5.5 0.00167961 5.5 0.00269474C 5.5 0.00370987 5.5 0.00484176 5.5 0.00609007C 5.5 0.00733839 5.5 0.00870313 5.5 0.0101839C 5.5 0.0116648 5.5 0.0132616 5.5 0.0149743C 5.5 0.0166869 5.5 0.0185152 5.5 0.020459C 5.5 0.0224027 5.5 0.0244618 5.5 0.026636C 5.5 0.0288102 5.5 0.0310994 5.5 0.0335033C 5.5 0.0359072 5.5 0.0384258 5.5 0.0410587C 5.5 0.0436917 5.5 0.046439 5.5 0.0493003C 5.5 0.0521616 5.5 0.0551369 5.5 0.0582259C 5.5 0.0613149 5.5 0.0645175 5.5 0.0678335C 5.5 0.0711494 5.5 0.0745787 5.5 0.0781209C 5.5 0.0816632 5.5 0.0853184 5.5 0.0890862C 5.5 0.0928541 5.5 0.0967346 5.5 0.100727C 5.5 0.10472 5.5 0.108825 5.5 0.113042C 5.5 0.117259 5.5 0.121588 5.5 0.126028C 5.5 0.130469 5.5 0.135021 5.5 0.139684C 5.5 0.144348 5.5 0.149122 5.5 0.154008C 5.5 0.158893 5.5 0.16389 5.5 0.168997C 5.5 0.174104 5.5 0.179321 5.5 0.184649C 5.5 0.189976 5.5 0.195414 5.5 0.200962C 5.5 0.20651 5.5 0.212168 5.5 0.217935C 5.5 0.223702 5.5 0.229579 5.5 0.235565C 5.5 0.24155 5.5 0.247646 5.5 0.253849C 5.5 0.260053 5.5 0.266366 5.5 0.272787C 5.5 0.279208 5.5 0.285738 5.5 0.292376C 5.5 0.299014 5.5 0.30576 5.5 0.312614C 5.5 0.319467 5.5 0.326429 5.5 0.333498C 5.5 0.340567 5.5 0.347743 5.5 0.355027C 5.5 0.362311 5.5 0.369701 5.5 0.377199C 5.5 0.384696 5.5 0.3923 5.5 0.400011C 5.5 0.407722 5.5 0.415539 5.5 0.423462C 5.5 0.431385 5.5 0.439414 5.5 0.447549C 5.5 0.455684 5.5 0.463925 5.5 0.472271C 5.5 0.480617 5.5 0.489068 5.5 0.497625C 5.5 0.506181 5.5 0.514843 5.5 0.523609C 5.5 0.532375 5.5 0.541246 5.5 0.550221C 5.5 0.559196 5.5 0.568276 5.5 0.57746C 5.5 0.586643 5.5 0.595931 5.5 0.605322C 5.5 0.614713 5.5 0.624208 5.5 0.633806C 5.5 0.643404 5.5 0.653106 5.5 0.66291C 5.5 0.672715 5.5 0.682622 5.5 0.692632C 5.5 0.702643 5.5 0.712755 5.5 0.72297C 5.5 0.733185 5.5 0.743502 5.5 0.753922C 5.5 0.764341 5.5 0.774862 5.5 0.785485C 5.5 0.796107 5.5 0.806832 5.5 0.817657C 5.5 0.828483 5.5 0.83941 5.5 0.850437C 5.5 0.861465 5.5 0.872594 5.5 0.883823C 5.5 0.895052 5.5 0.906381 5.5 0.917811C 5.5 0.929241 5.5 0.940771 5.5 0.952401C 5.5 0.964031 5.5 0.975761 5.5 0.98759C 5.5 0.99942 5.5 1.01135 5.5 1.02338C 5.5 1.0354 5.5 1.04753 5.5 1.05976C 5.5 1.07198 5.5 1.08431 5.5 1.09673C 5.5 1.10916 5.5 1.12168 5.5 1.1343C 5.5 1.14692 5.5 1.15964 5.5 1.17245C 5.5 1.18527 5.5 1.19818 5.5 1.21119C 5.5 1.2242 5.5 1.23731 5.5 1.25052C 5.5 1.26372 5.5 1.27703 5.5 1.29043C 5.5 1.30383 5.5 1.31732 5.5 1.33091C 5.5 1.34451 5.5 1.3582 5.5 1.37198C 5.5 1.38577 5.5 1.39965 5.5 1.41362C 5.5 1.4276 5.5 1.44167 5.5 1.45584C 5.5 1.47001 5.5 1.48427 5.5 1.49863C 5.5 1.51299 5.5 1.52744 5.5 1.54199C 5.5 1.55654 5.5 1.57118 5.5 1.58592C 5.5 1.60066 5.5 1.61549 5.5 1.63042C 5.5 1.64534 5.5 1.66036 5.5 1.67547C 5.5 1.69059 5.5 1.70579 5.5 1.72109C 5.5 1.7364 5.5 1.75179 5.5 1.76728C 5.5 1.78276 5.5 1.79834 5.5 1.81401C 5.5 1.82969 5.5 1.84545 5.5 1.86131C 5.5 1.87716 5.5 1.89311 5.5 1.90915C 5.5 1.9252 5.5 1.94133 5.5 1.95755C 5.5 1.97378 5.5 1.99009 5.5 2.0065C 5.5 2.02291 5.5 2.03941 5.5 2.056C 5.5 2.07259 5.5 2.08927 5.5 2.10604C 5.5 2.12281 5.5 2.13967 5.5 2.15662C 5.5 2.17358 5.5 2.19062 5.5 2.20775C 5.5 2.22488 5.5 2.2421 5.5 2.25941C 5.5 2.27673 5.5 2.29413 5.5 2.31162C 5.5 2.32911 5.5 2.34669 5.5 2.36435C 5.5 2.38202 5.5 2.39978 5.5 2.41762C 5.5 2.43547 5.5 2.4534 5.5 2.47142C 5.5 2.48945 5.5 2.50756 5.5 2.52575C 5.5 2.54395 5.5 2.56224 5.5 2.58061C 5.5 2.59898 5.5 2.61744 5.5 2.63599C 5.5 2.65454 5.5 2.67317 5.5 2.6919C 5.5 2.71062 5.5 2.72943 5.5 2.74832C 5.5 2.76721 5.5 2.7862 5.5 2.80526C 5.5 2.82433 5.5 2.84348 5.5 2.86272C 5.5 2.88196 5.5 2.90129 5.5 2.9207C 5.5 2.9401 5.5 2.9596 5.5 2.97918C 5.5 2.99876 5.5 3.01843 5.5 3.03818C 5.5 3.05793 5.5 3.07776 5.5 3.09768C 5.5 3.1176 5.5 3.1376 5.5 3.15769C 5.5 3.17778 5.5 3.19795 5.5 3.2182C 5.5 3.23846 5.5 3.2588 5.5 3.27922C 5.5 3.29964 5.5 3.32015 5.5 3.34074C 5.5 3.36132 5.5 3.382 5.5 3.40275C 5.5 3.4235 5.5 3.44434 5.5 3.46526C 5.5 3.48618 5.5 3.50718 5.5 3.52826C 5.5 3.54934 5.5 3.57051 5.5 3.59176C 5.5 3.613 5.5 3.63433 5.5 3.65574C 5.5 3.67715 5.5 3.69864 5.5 3.72021C 5.5 3.74178 5.5 3.76343 5.5 3.78517C 5.5 3.8069 5.5 3.82871 5.5 3.85061C 5.5 3.8725 5.5 3.89447 5.5 3.91653C 5.5 3.93858 5.5 3.96071 5.5 3.98293C 5.5 4.00514 5.5 4.02743 5.5 4.04981C 5.5 4.07218 5.5 4.09463 5.5 4.11716C 5.5 4.13969 5.5 4.1623 5.5 4.18498C 5.5 4.20767 5.5 4.23043 5.5 4.25328C 5.5 4.27612 5.5 4.29904 5.5 4.32204C 5.5 4.34504 5.5 4.36812 5.5 4.39127C 5.5 4.41443 5.5 4.43766 5.5 4.46097C 5.5 4.48428 5.5 4.50767 5.5 4.53113C 5.5 4.55459 5.5 4.57813 5.5 4.60175C 5.5 4.62536 5.5 4.64906 5.5 4.67283C 5.5 4.69659 5.5 4.72044 5.5 4.74436C 5.5 4.76828 5.5 4.79228 5.5 4.81635C 5.5 4.84042 5.5 4.86457 5.5 4.88879C 5.5 4.91301 5.5 4.93731 5.5 4.96168C 5.5 4.98605 5.5 5.0105 5.5 5.03502C 5.5 5.05954 5.5 5.08413 5.5 5.1088C 5.5 5.13347 5.5 5.15822 5.5 5.18303C 5.5 5.20785 5.5 5.23274 5.5 5.2577C 5.5 5.28267 5.5 5.3077 5.5 5.33281C 5.5 5.35792 5.5 5.38311 5.5 5.40836C 5.5 5.43362 5.5 5.45894 5.5 5.48434C 5.5 5.50974 5.5 5.53522 5.5 5.56076C 5.5 5.58631 5.5 5.61192 5.5 5.63761C 5.5 5.6633 5.5 5.68906 5.5 5.71489C 5.5 5.74072 5.5 5.76662 5.5 5.79259C 5.5 5.81857 5.5 5.84461 5.5 5.87073C 5.5 5.89684 5.5 5.92303 5.5 5.94928C 5.5 5.97554 5.5 6.00186 5.5 6.02826C 5.5 6.05465 5.5 6.08112 5.5 6.10765C 5.5 6.13418 5.5 6.16079 5.5 6.18746C 5.5 6.21414 5.5 6.24088 5.5 6.26769C 5.5 6.2945 5.5 6.32138 5.5 6.34833C 5.5 6.37528 5.5 6.40229 5.5 6.42938C 5.5 6.45646 5.5 6.48362 5.5 6.51084C 5.5 6.53806 5.5 6.56535 5.5 6.5927C 5.5 6.62006 5.5 6.64748 5.5 6.67497C 5.5 6.70246 5.5 6.73002 5.5 6.75765C 5.5 6.78527 5.5 6.81296 5.5 6.84072C 5.5 6.86848 5.5 6.8963 5.5 6.92419C 5.5 6.95208 5.5 6.98004 5.5 7.00806C 5.5 7.03608 5.5 7.06417 5.5 7.09232C 5.5 7.12048 5.5 7.14869 5.5 7.17698C 5.5 7.20526 5.5 7.23361 5.5 7.26202C 5.5 7.29044 5.5 7.31891 5.5 7.34746C 5.5 7.376 5.5 7.4046 5.5 7.43327C 5.5 7.46194 5.5 7.49068 5.5 7.51948C 5.5 7.54827 5.5 7.57714 5.5 7.60606C 5.5 7.63499 5.5 7.66397 5.5 7.69303C 5.5 7.72208 5.5 7.75119 5.5 7.78037C 5.5 7.80954 5.5 7.83878 5.5 7.86809C 5.5 7.89739 5.5 7.92675 5.5 7.95618C 5.5 7.9856 5.5 8.01509 5.5 8.04464C 5.5 8.07419 5.5 8.1038 5.5 8.13347C 5.5 8.16314 5.5 8.19288 5.5 8.22267C 5.5 8.25247 5.5 8.28232 5.5 8.31224C 5.5 8.34215 5.5 8.37213 5.5 8.40216C 5.5 8.4322 5.5 8.4623 5.5 8.49245C 5.5 8.52261 5.5 8.55283 5.5 8.5831C 5.5 8.61338 5.5 8.64371 5.5 8.67411C 5.5 8.7045 5.5 8.73496 5.5 8.76547C 5.5 8.79598 5.5 8.82655 5.5 8.85718C 5.5 8.88781 5.5 8.9185 5.5 8.94925C 5.5 8.97999 5.5 9.0108 5.5 9.04166C 5.5 9.07252 5.5 9.10344 5.5 9.13442C 5.5 9.16539 5.5 9.19643 5.5 9.22752C 5.5 9.25861 5.5 9.28976 5.5 9.32097C 5.5 9.35217 5.5 9.38344 5.5 9.41475C 5.5 9.44607 5.5 9.47745 5.5 9.50888C 5.5 9.54031 5.5 9.5718 5.5 9.60334C 5.5 9.63489 5.5 9.66648 5.5 9.69814C 5.5 9.72979 5.5 9.7615 5.5 9.79327C 5.5 9.82503 5.5 9.85685 5.5 9.88873C 5.5 9.9206 5.5 9.95253 5.5 9.98451C 5.5 10.0165 5.5 10.0485 5.5 10.0806C 5.5 10.1127 5.5 10.1449 5.5 10.1771C 5.5 10.2093 5.5 10.2415 5.5 10.2738C 5.5 10.3061 5.5 10.3385 5.5 10.3709C 5.5 10.4033 5.5 10.4358 5.5 10.4683C 5.5 10.5008 5.5 10.5334 5.5 10.566C 5.5 10.5986 5.5 10.6313 5.5 10.664C 5.5 10.6968 5.5 10.7295 5.5 10.7624C 5.5 10.7952 5.5 10.8281 5.5 10.861C 5.5 10.8939 5.5 10.9269 5.5 10.96C 5.5 10.993 5.5 11.0261 5.5 11.0592C 5.5 11.0924 5.5 11.1255 5.5 11.1588C 5.5 11.192 5.5 11.2253 5.5 11.2586C 5.5 11.292 5.5 11.3254 5.5 11.3588C 5.5 11.3922 5.5 11.4257 5.5 11.4593C 5.5 11.4928 5.5 11.5264 5.5 11.56C 5.5 11.5936 5.5 11.6273 5.5 11.6611C 5.5 11.6948 5.5 11.7286 5.5 11.7624C 5.5 11.7962 5.5 11.8301 5.5 11.864C 5.5 11.8979 5.5 11.9319 5.5 11.9659C 5.5 12 5.5 12.034 5.5 12.0681C 5.5 12.1022 5.5 12.1364 5.5 12.1706C 5.5 12.2048 5.5 12.2391 5.5 12.2734C 5.5 12.3077 5.5 12.342 5.5 12.3764C 5.5 12.4108 5.5 12.4452 5.5 12.4797C 5.5 12.5142 5.5 12.5487 5.5 12.5833C 5.5 12.6179 5.5 12.6525 5.5 12.6872C 5.5 12.7218 5.5 12.7566 5.5 12.7913C 5.5 12.8261 5.5 12.8609 5.5 12.8957C 5.5 12.9306 5.5 12.9654 5.5 13.0004C 5.5 13.0353 5.5 13.0703 5.5 13.1053C 5.5 13.1403 5.5 13.1754 5.5 13.2105C 5.5 13.2456 5.5 13.2807 5.5 13.3159C 5.5 13.3511 5.5 13.3864 5.5 13.4216C 5.5 13.4569 5.5 13.4923 5.5 13.5276C 5.5 13.563 5.5 13.5984 5.5 13.6338C 5.5 13.6693 5.5 13.7048 5.5 13.7403C 5.5 13.7758 5.5 13.8114 5.5 13.847C 5.5 13.8826 5.5 13.9183 5.5 13.954C 5.5 13.9897 5.5 14.0254 5.5 14.0612C 5.5 14.097 5.5 14.1328 5.5 14.1686C 5.5 14.2045 5.5 14.2404 5.5 14.2763C 5.5 14.3123 5.5 14.3483 5.5 14.3843C 5.5 14.4203 5.5 14.4564 5.5 14.4924C 5.5 14.5285 5.5 14.5647 5.5 14.6009C 5.5 14.637 5.5 14.6732 5.5 14.7095C 5.5 14.7457 5.5 14.782 5.5 14.8184C 5.5 14.8547 5.5 14.8911 5.5 14.9275C 5.5 14.9639 5.5 15.0003 5.5 15.0368C 5.5 15.0733 5.5 15.1098 5.5 15.1463C 5.5 15.1829 5.5 15.2195 5.5 15.2561C 5.5 15.2927 5.5 15.3294 5.5 15.3661C 5.5 15.4028 5.5 15.4395 5.5 15.4763C 5.5 15.5131 5.5 15.5499 5.5 15.5867C 5.5 15.6236 5.5 15.6605 5.5 15.6974C 5.5 15.7343 5.5 15.7712 5.5 15.8082C 5.5 15.8452 5.5 15.8822 5.5 15.9193C 5.5 15.9563 5.5 15.9934 5.5 16.0306C 5.5 16.0677 5.5 16.1048 5.5 16.142C 5.5 16.1792 5.5 16.2165 5.5 16.2537C 5.5 16.291 5.5 16.3283 5.5 16.3656C 5.5 16.4029 5.5 16.4403 5.5 16.4777C 5.5 16.5151 5.5 16.5525 5.5 16.59C 5.5 16.6274 5.5 16.6649 5.5 16.7024C 5.5 16.74 5.5 16.7775 5.5 16.8151C 5.5 16.8527 5.5 16.8903 5.5 16.928C 5.5 16.9656 5.5 17.0033 5.5 17.041C 5.5 17.0787 5.5 17.1165 5.5 17.1543C 5.5 17.192 5.5 17.2298 5.5 17.2677C 5.5 17.3055 5.5 17.3434 5.5 17.3813C 5.5 17.4192 5.5 17.4571 5.5 17.4951C 5.5 17.533 5.5 17.571 5.5 17.609C 5.5 17.6471 5.5 17.6851 5.5 17.7232C 5.5 17.7613 5.5 17.7994 5.5 17.8375C 5.5 17.8756 5.5 17.9138 5.5 17.952C 5.5 17.9902 5.5 18.0284 5.5 18.0667C 5.5 18.1049 5.5 18.1432 5.5 18.1815C 5.5 18.2198 5.5 18.2581 5.5 18.2965C 5.5 18.3348 5.5 18.3732 5.5 18.4116C 5.5 18.4501 5.5 18.4885 5.5 18.527C 5.5 18.5654 5.5 18.6039 5.5 18.6424C 5.5 18.681 5.5 18.7195 5.5 18.7581C 5.5 18.7967 5.5 18.8353 5.5 18.8739C 5.5 18.9125 5.5 18.9512 5.5 18.9898C 5.5 19.0285 5.5 19.0672 5.5 19.1059C 5.5 19.1447 5.5 19.1834 5.5 19.2222C 5.5 19.261 5.5 19.2998 5.5 19.3386C 5.5 19.3774 5.5 19.4163 5.5 19.4551C 5.5 19.494 5.5 19.5329 5.5 19.5718C 5.5 19.6108 5.5 19.6497 5.5 19.6887C 5.5 19.7276 5.5 19.7666 5.5 19.8056C 5.5 19.8447 5.5 19.8837 5.5 19.9228C 5.5 19.9618 5.5 20.0009 5.5 20.04C 5.5 20.0791 5.5 20.1182 5.5 20.1574C 5.5 20.1965 5.5 20.2357 5.5 20.2749C 5.5 20.3141 5.5 20.3533 5.5 20.3925C 5.5 20.4318 5.5 20.471 5.5 20.5103C 5.5 20.5496 5.5 20.5889 5.5 20.6282C 5.5 20.6675 5.5 20.7069 5.5 20.7462C 5.5 20.7856 5.5 20.825 5.5 20.8644C 5.5 20.9038 5.5 20.9432 5.5 20.9826C 5.5 21.0221 5.5 21.0615 5.5 21.101C 5.5 21.1405 5.5 21.18 5.5 21.2195C 5.5 21.259 5.5 21.2985 5.5 21.3381C 5.5 21.3776 5.5 21.4172 5.5 21.4568C 5.5 21.4964 5.5 21.536 5.5 21.5756C 5.5 21.6152 5.5 21.6549 5.5 21.6945C 5.5 21.7342 5.5 21.7739 5.5 21.8136C 5.5 21.8533 5.5 21.893 5.5 21.9327C 5.5 21.9724 5.5 22.0122 5.5 22.0519C 5.5 22.0917 5.5 22.1315 5.5 22.1713C 5.5 22.2111 5.5 22.2509 5.5 22.2907C 5.5 22.3305 5.5 22.3704 5.5 22.4102C 5.5 22.4501 5.5 22.49 5.5 22.5298C 5.5 22.5697 5.5 22.6096 5.5 22.6495C 5.5 22.6895 5.5 22.7294 5.5 22.7693C 5.5 22.8093 5.5 22.8492 5.5 22.8892C 5.5 22.9292 5.5 22.9692 5.5 23.0092C 5.5 23.0492 5.5 23.0892 5.5 23.1292C 5.5 23.1693 5.5 23.2093 5.5 23.2493C 5.5 23.2894 5.5 23.3295 5.5 23.3696C 5.5 23.4096 5.5 23.4497 5.5 23.4898C 5.5 23.5299 5.5 23.5701 5.5 23.6102C 5.5 23.6503 5.5 23.6904 5.5 23.7306C 5.5 23.7708 5.5 23.8109 5.5 23.8511C 5.5 23.8913 5.5 23.9315 5.5 23.9717C 5.5 24.0119 5.5 24.0521 5.5 24.0923C 5.5 24.1325 5.5 24.1727 5.5 24.213C 5.5 24.2532 5.5 24.2935 5.5 24.3337C 5.5 24.374 5.5 24.4142 5.5 24.4545C 5.5 24.4948 5.5 24.5351 5.5 24.5754C 5.5 24.6157 5.5 24.656 5.5 24.6963C 5.5 24.7366 5.5 24.7769 5.5 24.8173C 5.5 24.8576 5.5 24.8979 5.5 24.9383C 5.5 24.9786 5.5 25.019 5.5 25.0594C 5.5 25.0997 5.5 25.1401 5.5 25.1805C 5.5 25.2209 5.5 25.2613 5.5 25.3016C 5.5 25.342 5.5 25.3824 5.5 25.4229C 5.5 25.4633 5.5 25.5037 5.5 25.5441C 5.5 25.5845 5.5 25.6249 5.5 25.6654C 5.5 25.7058 5.5 25.7463 5.5 25.7867C 5.5 25.8271 5.5 25.8676 5.5 25.9081C 5.5 25.9485 5.5 25.989 5.5 26.0294C 5.5 26.0699 5.5 26.1104 5.5 26.1509C 5.5 26.1913 5.5 26.2318 5.5 26.2723C 5.5 26.3128 5.5 26.3533 5.5 26.3938C 5.5 26.4343 5.5 26.4748 5.5 26.5153C 5.5 26.5558 5.5 26.5963 5.5 26.6368C 5.5 26.6773 5.5 26.7178 5.5 26.7583C 5.5 26.7988 5.5 26.8393 5.5 26.8799C 5.5 26.9204 5.5 26.9609 5.5 27.0014C 5.5 27.042 5.5 27.0825 5.5 27.123C 5.5 27.1635 5.5 27.2041 5.5 27.2446C 5.5 27.2851 5.5 27.3257 5.5 27.3662C 5.5 27.4067 5.5 27.4473 5.5 27.4878C 5.5 27.5283 5.5 27.5689 5.5 27.6094C 5.5 27.65 5.5 27.6905 5.5 27.731C 5.5 27.7716 5.5 27.8121 5.5 27.8527C 5.5 27.8932 5.5 27.9337 5.5 27.9743C 5.5 28.0148 5.5 28.0554 5.5 28.0959C 5.5 28.1364 5.5 28.177 5.5 28.2175C 5.5 28.258 5.5 28.2986 5.5 28.3391C 5.5 28.3796 5.5 28.4202 5.5 28.4607C 5.5 28.5012 5.5 28.5417 5.5 28.5823C 5.5 28.6228 5.5 28.6633 5.5 28.7038C 5.5 28.7444 5.5 28.7849 5.5 28.8254C 5.5 28.8659 5.5 28.9064 5.5 28.9469C 5.5 28.9874 5.5 29.0279 5.5 29.0684C 5.5 29.1089 5.5 29.1494 5.5 29.1899C 5.5 29.2304 5.5 29.2709 5.5 29.3114C 5.5 29.3519 5.5 29.3924 5.5 29.4328C 5.5 29.4733 5.5 29.5138 5.5 29.5543C 5.5 29.5947 5.5 29.6352 5.5 29.6756C 5.5 29.7161 5.5 29.7566 5.5 29.797C 5.5 29.8374 5.5 29.8779 5.5 29.9183C 5.5 29.9587 5.5 29.9992 5.5 30.0396C 5.5 30.08 5.5 30.1204 5.5 30.1608C 5.5 30.2013 5.5 30.2417 5.5 30.282C 5.5 30.3224 5.5 30.3628 5.5 30.4032C 5.5 30.4436 5.5 30.484 5.5 30.5243C 5.5 30.5647 5.5 30.605 5.5 30.6454C 5.5 30.6857 5.5 30.7261 5.5 30.7664C 5.5 30.8067 5.5 30.8471 5.5 30.8874C 5.5 30.9277 5.5 30.968 5.5 31.0083C 5.5 31.0486 5.5 31.0889 5.5 31.1292C 5.5 31.1694 5.5 31.2097 5.5 31.25C 5.5 31.2902 5.5 31.3305 5.5 31.3707C 5.5 31.411 5.5 31.4512 5.5 31.4914C 5.5 31.5316 5.5 31.5718 5.5 31.612C 5.5 31.6522 5.5 31.6924 5.5 31.7326C 5.5 31.7728 5.5 31.8129 5.5 31.8531C 5.5 31.8932 5.5 31.9334 5.5 31.9735C 5.5 32.0136 5.5 32.0537 5.5 32.0938C 5.5 32.134 5.5 32.174 5.5 32.2141C 5.5 32.2542 5.5 32.2943 5.5 32.3343C 5.5 32.3744 5.5 32.4144 5.5 32.4544C 5.5 32.4945 5.5 32.5345 5.5 32.5745C 5.5 32.6145 5.5 32.6545 5.5 32.6945C 5.5 32.7344 5.5 32.7744 5.5 32.8143C 5.5 32.8543 5.5 32.8942 5.5 32.9341C 5.5 32.974 5.5 33.0139 5.5 33.0538C 5.5 33.0937 5.5 33.1336 5.5 33.1734C 5.5 33.2133 5.5 33.2531 5.5 33.293C 5.5 33.3328 5.5 33.3726 5.5 33.4124C 5.5 33.4522 5.5 33.492 5.5 33.5317C 5.5 33.5715 5.5 33.6112 5.5 33.651C 5.5 33.6907 5.5 33.7304 5.5 33.7701C 5.5 33.8098 5.5 33.8495 5.5 33.8891C 5.5 33.9288 5.5 33.9684 5.5 34.008C 5.5 34.0477 5.5 34.0873 5.5 34.1269C 5.5 34.1664 5.5 34.206 5.5 34.2456C 5.5 34.2851 5.5 34.3246 5.5 34.3642C 5.5 34.4037 5.5 34.4432 5.5 34.4827C 5.5 34.5221 5.5 34.5616 5.5 34.601C 5.5 34.6405 5.5 34.6799 5.5 34.7193C 5.5 34.7587 5.5 34.7981 5.5 34.8374C 5.5 34.8768 5.5 34.9161 5.5 34.9554C 5.5 34.9947 5.5 35.034 5.5 35.0733C 5.5 35.1126 5.5 35.1519 5.5 35.1911C 5.5 35.2303 5.5 35.2695 5.5 35.3087C 5.5 35.3479 5.5 35.3871 5.5 35.4262C 5.5 35.4654 5.5 35.5045 5.5 35.5436C 5.5 35.5827 5.5 35.6218 5.5 35.6609C 5.5 35.6999 5.5 35.7389 5.5 35.778C 5.5 35.817 5.5 35.856 5.5 35.8949C 5.5 35.9339 5.5 35.9728 5.5 36.0118C 5.5 36.0507 5.5 36.0896 5.5 36.1285C 5.5 36.1673 5.5 36.2062 5.5 36.245C 5.5 36.2838 5.5 36.3226 5.5 36.3614C 5.5 36.4002 5.5 36.4389 5.5 36.4777C 5.5 36.5164 5.5 36.5551 5.5 36.5938C 5.5 36.6324 5.5 36.6711 5.5 36.7097C 5.5 36.7483 5.5 36.7869 5.5 36.8255C 5.5 36.8641 5.5 36.9026 5.5 36.9411C 5.5 36.9797 5.5 37.0182 5.5 37.0566C 5.5 37.0951 5.5 37.1335 5.5 37.1719C 5.5 37.2104 5.5 37.2487 5.5 37.2871C 5.5 37.3255 5.5 37.3638 5.5 37.4021C 5.5 37.4404 5.5 37.4787 5.5 37.5169C 5.5 37.5552 5.5 37.5934 5.5 37.6316C 5.5 37.6698 5.5 37.7079 5.5 37.7461C 5.5 37.7842 5.5 37.8223 5.5 37.8604C 5.5 37.8984 5.5 37.9365 5.5 37.9745C 5.5 38.0125 5.5 38.0505 5.5 38.0885C 5.5 38.1264 5.5 38.1644 5.5 38.2023C 5.5 38.2402 5.5 38.278 5.5 38.3159C 5.5 38.3537 5.5 38.3915 5.5 38.4293C 5.5 38.4671 5.5 38.5048 5.5 38.5425C 5.5 38.5802 5.5 38.6179 5.5 38.6556C 5.5 38.6932 5.5 38.7308 5.5 38.7684C 5.5 38.806 5.5 38.8436 5.5 38.8811C 5.5 38.9186 5.5 38.9561 5.5 38.9936C 5.5 39.031 5.5 39.0684 5.5 39.1058C 5.5 39.1432 5.5 39.1806 5.5 39.2179C 5.5 39.2552 5.5 39.2925 5.5 39.3298C 5.5 39.367 5.5 39.4043 5.5 39.4415C 5.5 39.4787 5.5 39.5158 5.5 39.5529C 5.5 39.5901 5.5 39.6272 5.5 39.6642C 5.5 39.7013 5.5 39.7383 5.5 39.7753C 5.5 39.8122 5.5 39.8492 5.5 39.8861C 5.5 39.923 5.5 39.9599 5.5 39.9967C 5.5 40.0336 5.5 40.0704 5.5 40.1072C 5.5 40.1439 5.5 40.1807 5.5 40.2174C 5.5 40.2541 5.5 40.2907 5.5 40.3274C 5.5 40.364 5.5 40.4006 5.5 40.4371C 5.5 40.4737 5.5 40.5102 5.5 40.5467C 5.5 40.5832 5.5 40.6196 5.5 40.656C 5.5 40.6924 5.5 40.7288 5.5 40.7651C 5.5 40.8014 5.5 40.8377 5.5 40.874C 5.5 40.9102 5.5 40.9464 5.5 40.9826C 5.5 41.0188 5.5 41.0549 5.5 41.091C 5.5 41.1271 5.5 41.1631 5.5 41.1992C 5.5 41.2352 5.5 41.2712 5.5 41.3071C 5.5 41.343 5.5 41.3789 5.5 41.4148C 5.5 41.4506 5.5 41.4865 5.5 41.5222C 5.5 41.558 5.5 41.5937 5.5 41.6294C 5.5 41.6651 5.5 41.7008 5.5 41.7364C 5.5 41.772 5.5 41.8076 5.5 41.8431C 5.5 41.8786 5.5 41.9141 5.5 41.9496C 5.5 41.985 5.5 42.0204 5.5 42.0558C 5.5 42.0911 5.5 42.1265 5.5 42.1617C 5.5 42.197 5.5 42.2323 5.5 42.2674C 5.5 42.3026 5.5 42.3378 5.5 42.3729C 5.5 42.408 5.5 42.4431 5.5 42.4781C 5.5 42.5131 5.5 42.5481 5.5 42.583C 5.5 42.6179 5.5 42.6528 5.5 42.6877C 5.5 42.7225 5.5 42.7573 5.5 42.7921C 5.5 42.8268 5.5 42.8615 5.5 42.8962C 5.5 42.9308 5.5 42.9655 5.5 43C 5.5 43.0346 5.5 43.0691 5.5 43.1036C 5.5 43.1381 5.5 43.1725 5.5 43.2069C 5.5 43.2413 5.5 43.2757 5.5 43.31C 5.5 43.3443 5.5 43.3785 5.5 43.4127C 5.5 43.4469 5.5 43.4811 5.5 43.5152C 5.5 43.5493 5.5 43.5834 5.5 43.6174C 5.5 43.6514 5.5 43.6854 5.5 43.7193C 5.5 43.7532 5.5 43.7871 5.5 43.8209C 5.5 43.8547 5.5 43.8885 5.5 43.9222C 5.5 43.956 5.5 43.9897 5.5 44.0233C 5.5 44.0569 5.5 44.0905 5.5 44.124C 5.5 44.1576 5.5 44.191 5.5 44.2245C 5.5 44.2579 5.5 44.2913 5.5 44.3246C 5.5 44.358 5.5 44.3913 5.5 44.4245C 5.5 44.4577 5.5 44.4909 5.5 44.5241C 5.5 44.5572 5.5 44.5903 5.5 44.6233C 5.5 44.6563 5.5 44.6893 5.5 44.7222C 5.5 44.7552 5.5 44.7881 5.5 44.8209C 5.5 44.8537 5.5 44.8865 5.5 44.9192C 5.5 44.9519 5.5 44.9846 5.5 45.0172C 5.5 45.0499 5.5 45.0824 5.5 45.1149C 5.5 45.1475 5.5 45.1799 5.5 45.2123C 5.5 45.2447 5.5 45.2771 5.5 45.3094C 5.5 45.3417 5.5 45.374 5.5 45.4062C 5.5 45.4384 5.5 45.4705 5.5 45.5026C 5.5 45.5347 5.5 45.5667 5.5 45.5987C 5.5 45.6307 5.5 45.6626 5.5 45.6945C 5.5 45.7263 5.5 45.7582 5.5 45.7899C 5.5 45.8217 5.5 45.8534 5.5 45.885C 5.5 45.9167 5.5 45.9483 5.5 45.9798C 5.5 46.0114 5.5 46.0429 5.5 46.0743C 5.5 46.1057 5.5 46.1371 5.5 46.1684C 5.5 46.1997 5.5 46.231 5.5 46.2622C 5.5 46.2934 5.5 46.3245 5.5 46.3556C 5.5 46.3867 5.5 46.4178 5.5 46.4487C 5.5 46.4797 5.5 46.5106 5.5 46.5415C 5.5 46.5723 5.5 46.6031 5.5 46.6339C 5.5 46.6646 5.5 46.6953 5.5 46.7259C 5.5 46.7566 5.5 46.7871 5.5 46.8176C 5.5 46.8482 5.5 46.8786 5.5 46.909C 5.5 46.9394 5.5 46.9697 5.5 47L 7.5 47C 7.5 46.9697 7.5 46.9394 7.5 46.909C 7.5 46.8786 7.5 46.8482 7.5 46.8176C 7.5 46.7871 7.5 46.7566 7.5 46.7259C 7.5 46.6953 7.5 46.6646 7.5 46.6339C 7.5 46.6031 7.5 46.5723 7.5 46.5415C 7.5 46.5106 7.5 46.4797 7.5 46.4487C 7.5 46.4178 7.5 46.3867 7.5 46.3556C 7.5 46.3245 7.5 46.2934 7.5 46.2622C 7.5 46.231 7.5 46.1997 7.5 46.1684C 7.5 46.1371 7.5 46.1057 7.5 46.0743C 7.5 46.0429 7.5 46.0114 7.5 45.9798C 7.5 45.9483 7.5 45.9167 7.5 45.885C 7.5 45.8534 7.5 45.8217 7.5 45.7899C 7.5 45.7582 7.5 45.7263 7.5 45.6945C 7.5 45.6626 7.5 45.6307 7.5 45.5987C 7.5 45.5667 7.5 45.5347 7.5 45.5026C 7.5 45.4705 7.5 45.4384 7.5 45.4062C 7.5 45.374 7.5 45.3417 7.5 45.3094C 7.5 45.2771 7.5 45.2447 7.5 45.2123C 7.5 45.1799 7.5 45.1475 7.5 45.1149C 7.5 45.0824 7.5 45.0499 7.5 45.0172C 7.5 44.9846 7.5 44.9519 7.5 44.9192C 7.5 44.8865 7.5 44.8537 7.5 44.8209C 7.5 44.7881 7.5 44.7552 7.5 44.7222C 7.5 44.6893 7.5 44.6563 7.5 44.6233C 7.5 44.5903 7.5 44.5572 7.5 44.5241C 7.5 44.4909 7.5 44.4577 7.5 44.4245C 7.5 44.3913 7.5 44.358 7.5 44.3246C 7.5 44.2913 7.5 44.2579 7.5 44.2245C 7.5 44.191 7.5 44.1576 7.5 44.124C 7.5 44.0905 7.5 44.0569 7.5 44.0233C 7.5 43.9897 7.5 43.956 7.5 43.9222C 7.5 43.8885 7.5 43.8547 7.5 43.8209C 7.5 43.7871 7.5 43.7532 7.5 43.7193C 7.5 43.6854 7.5 43.6514 7.5 43.6174C 7.5 43.5834 7.5 43.5493 7.5 43.5152C 7.5 43.4811 7.5 43.4469 7.5 43.4127C 7.5 43.3785 7.5 43.3443 7.5 43.31C 7.5 43.2757 7.5 43.2413 7.5 43.2069C 7.5 43.1725 7.5 43.1381 7.5 43.1036C 7.5 43.0691 7.5 43.0346 7.5 43C 7.5 42.9655 7.5 42.9308 7.5 42.8962C 7.5 42.8615 7.5 42.8268 7.5 42.7921C 7.5 42.7573 7.5 42.7225 7.5 42.6877C 7.5 42.6528 7.5 42.6179 7.5 42.583C 7.5 42.5481 7.5 42.5131 7.5 42.4781C 7.5 42.4431 7.5 42.408 7.5 42.3729C 7.5 42.3378 7.5 42.3026 7.5 42.2674C 7.5 42.2323 7.5 42.197 7.5 42.1617C 7.5 42.1265 7.5 42.0911 7.5 42.0558C 7.5 42.0204 7.5 41.985 7.5 41.9496C 7.5 41.9141 7.5 41.8786 7.5 41.8431C 7.5 41.8076 7.5 41.772 7.5 41.7364C 7.5 41.7008 7.5 41.6651 7.5 41.6294C 7.5 41.5937 7.5 41.558 7.5 41.5222C 7.5 41.4865 7.5 41.4506 7.5 41.4148C 7.5 41.3789 7.5 41.343 7.5 41.3071C 7.5 41.2712 7.5 41.2352 7.5 41.1992C 7.5 41.1631 7.5 41.1271 7.5 41.091C 7.5 41.0549 7.5 41.0188 7.5 40.9826C 7.5 40.9464 7.5 40.9102 7.5 40.874C 7.5 40.8377 7.5 40.8014 7.5 40.7651C 7.5 40.7288 7.5 40.6924 7.5 40.656C 7.5 40.6196 7.5 40.5832 7.5 40.5467C 7.5 40.5102 7.5 40.4737 7.5 40.4371C 7.5 40.4006 7.5 40.364 7.5 40.3274C 7.5 40.2907 7.5 40.2541 7.5 40.2174C 7.5 40.1807 7.5 40.1439 7.5 40.1072C 7.5 40.0704 7.5 40.0336 7.5 39.9967C 7.5 39.9599 7.5 39.923 7.5 39.8861C 7.5 39.8492 7.5 39.8122 7.5 39.7753C 7.5 39.7383 7.5 39.7013 7.5 39.6642C 7.5 39.6272 7.5 39.5901 7.5 39.5529C 7.5 39.5158 7.5 39.4787 7.5 39.4415C 7.5 39.4043 7.5 39.367 7.5 39.3298C 7.5 39.2925 7.5 39.2552 7.5 39.2179C 7.5 39.1806 7.5 39.1432 7.5 39.1058C 7.5 39.0684 7.5 39.031 7.5 38.9936C 7.5 38.9561 7.5 38.9186 7.5 38.8811C 7.5 38.8436 7.5 38.806 7.5 38.7684C 7.5 38.7308 7.5 38.6932 7.5 38.6556C 7.5 38.6179 7.5 38.5802 7.5 38.5425C 7.5 38.5048 7.5 38.4671 7.5 38.4293C 7.5 38.3915 7.5 38.3537 7.5 38.3159C 7.5 38.278 7.5 38.2402 7.5 38.2023C 7.5 38.1644 7.5 38.1264 7.5 38.0885C 7.5 38.0505 7.5 38.0125 7.5 37.9745C 7.5 37.9365 7.5 37.8984 7.5 37.8604C 7.5 37.8223 7.5 37.7842 7.5 37.7461C 7.5 37.7079 7.5 37.6698 7.5 37.6316C 7.5 37.5934 7.5 37.5552 7.5 37.5169C 7.5 37.4787 7.5 37.4404 7.5 37.4021C 7.5 37.3638 7.5 37.3255 7.5 37.2871C 7.5 37.2487 7.5 37.2104 7.5 37.1719C 7.5 37.1335 7.5 37.0951 7.5 37.0566C 7.5 37.0182 7.5 36.9797 7.5 36.9411C 7.5 36.9026 7.5 36.8641 7.5 36.8255C 7.5 36.7869 7.5 36.7483 7.5 36.7097C 7.5 36.6711 7.5 36.6324 7.5 36.5938C 7.5 36.5551 7.5 36.5164 7.5 36.4777C 7.5 36.4389 7.5 36.4002 7.5 36.3614C 7.5 36.3226 7.5 36.2838 7.5 36.245C 7.5 36.2062 7.5 36.1673 7.5 36.1285C 7.5 36.0896 7.5 36.0507 7.5 36.0118C 7.5 35.9728 7.5 35.9339 7.5 35.8949C 7.5 35.856 7.5 35.817 7.5 35.778C 7.5 35.7389 7.5 35.6999 7.5 35.6609C 7.5 35.6218 7.5 35.5827 7.5 35.5436C 7.5 35.5045 7.5 35.4654 7.5 35.4262C 7.5 35.3871 7.5 35.3479 7.5 35.3087C 7.5 35.2695 7.5 35.2303 7.5 35.1911C 7.5 35.1519 7.5 35.1126 7.5 35.0733C 7.5 35.034 7.5 34.9947 7.5 34.9554C 7.5 34.9161 7.5 34.8768 7.5 34.8374C 7.5 34.7981 7.5 34.7587 7.5 34.7193C 7.5 34.6799 7.5 34.6405 7.5 34.601C 7.5 34.5616 7.5 34.5221 7.5 34.4827C 7.5 34.4432 7.5 34.4037 7.5 34.3642C 7.5 34.3246 7.5 34.2851 7.5 34.2456C 7.5 34.206 7.5 34.1664 7.5 34.1269C 7.5 34.0873 7.5 34.0477 7.5 34.008C 7.5 33.9684 7.5 33.9288 7.5 33.8891C 7.5 33.8495 7.5 33.8098 7.5 33.7701C 7.5 33.7304 7.5 33.6907 7.5 33.651C 7.5 33.6112 7.5 33.5715 7.5 33.5317C 7.5 33.492 7.5 33.4522 7.5 33.4124C 7.5 33.3726 7.5 33.3328 7.5 33.293C 7.5 33.2531 7.5 33.2133 7.5 33.1734C 7.5 33.1336 7.5 33.0937 7.5 33.0538C 7.5 33.0139 7.5 32.974 7.5 32.9341C 7.5 32.8942 7.5 32.8543 7.5 32.8143C 7.5 32.7744 7.5 32.7344 7.5 32.6945C 7.5 32.6545 7.5 32.6145 7.5 32.5745C 7.5 32.5345 7.5 32.4945 7.5 32.4544C 7.5 32.4144 7.5 32.3744 7.5 32.3343C 7.5 32.2943 7.5 32.2542 7.5 32.2141C 7.5 32.174 7.5 32.134 7.5 32.0938C 7.5 32.0537 7.5 32.0136 7.5 31.9735C 7.5 31.9334 7.5 31.8932 7.5 31.8531C 7.5 31.8129 7.5 31.7728 7.5 31.7326C 7.5 31.6924 7.5 31.6522 7.5 31.612C 7.5 31.5718 7.5 31.5316 7.5 31.4914C 7.5 31.4512 7.5 31.411 7.5 31.3707C 7.5 31.3305 7.5 31.2902 7.5 31.25C 7.5 31.2097 7.5 31.1694 7.5 31.1292C 7.5 31.0889 7.5 31.0486 7.5 31.0083C 7.5 30.968 7.5 30.9277 7.5 30.8874C 7.5 30.8471 7.5 30.8067 7.5 30.7664C 7.5 30.7261 7.5 30.6857 7.5 30.6454C 7.5 30.605 7.5 30.5647 7.5 30.5243C 7.5 30.484 7.5 30.4436 7.5 30.4032C 7.5 30.3628 7.5 30.3224 7.5 30.282C 7.5 30.2417 7.5 30.2013 7.5 30.1608C 7.5 30.1204 7.5 30.08 7.5 30.0396C 7.5 29.9992 7.5 29.9587 7.5 29.9183C 7.5 29.8779 7.5 29.8374 7.5 29.797C 7.5 29.7566 7.5 29.7161 7.5 29.6756C 7.5 29.6352 7.5 29.5947 7.5 29.5543C 7.5 29.5138 7.5 29.4733 7.5 29.4328C 7.5 29.3924 7.5 29.3519 7.5 29.3114C 7.5 29.2709 7.5 29.2304 7.5 29.1899C 7.5 29.1494 7.5 29.1089 7.5 29.0684C 7.5 29.0279 7.5 28.9874 7.5 28.9469C 7.5 28.9064 7.5 28.8659 7.5 28.8254C 7.5 28.7849 7.5 28.7444 7.5 28.7038C 7.5 28.6633 7.5 28.6228 7.5 28.5823C 7.5 28.5417 7.5 28.5012 7.5 28.4607C 7.5 28.4202 7.5 28.3796 7.5 28.3391C 7.5 28.2986 7.5 28.258 7.5 28.2175C 7.5 28.177 7.5 28.1364 7.5 28.0959C 7.5 28.0554 7.5 28.0148 7.5 27.9743C 7.5 27.9337 7.5 27.8932 7.5 27.8527C 7.5 27.8121 7.5 27.7716 7.5 27.731C 7.5 27.6905 7.5 27.65 7.5 27.6094C 7.5 27.5689 7.5 27.5283 7.5 27.4878C 7.5 27.4473 7.5 27.4067 7.5 27.3662C 7.5 27.3257 7.5 27.2851 7.5 27.2446C 7.5 27.2041 7.5 27.1635 7.5 27.123C 7.5 27.0825 7.5 27.042 7.5 27.0014C 7.5 26.9609 7.5 26.9204 7.5 26.8799C 7.5 26.8393 7.5 26.7988 7.5 26.7583C 7.5 26.7178 7.5 26.6773 7.5 26.6368C 7.5 26.5963 7.5 26.5558 7.5 26.5153C 7.5 26.4748 7.5 26.4343 7.5 26.3938C 7.5 26.3533 7.5 26.3128 7.5 26.2723C 7.5 26.2318 7.5 26.1913 7.5 26.1509C 7.5 26.1104 7.5 26.0699 7.5 26.0294C 7.5 25.989 7.5 25.9485 7.5 25.9081C 7.5 25.8676 7.5 25.8271 7.5 25.7867C 7.5 25.7463 7.5 25.7058 7.5 25.6654C 7.5 25.6249 7.5 25.5845 7.5 25.5441C 7.5 25.5037 7.5 25.4633 7.5 25.4229C 7.5 25.3824 7.5 25.342 7.5 25.3016C 7.5 25.2613 7.5 25.2209 7.5 25.1805C 7.5 25.1401 7.5 25.0997 7.5 25.0594C 7.5 25.019 7.5 24.9786 7.5 24.9383C 7.5 24.8979 7.5 24.8576 7.5 24.8173C 7.5 24.7769 7.5 24.7366 7.5 24.6963C 7.5 24.656 7.5 24.6157 7.5 24.5754C 7.5 24.5351 7.5 24.4948 7.5 24.4545C 7.5 24.4142 7.5 24.374 7.5 24.3337C 7.5 24.2935 7.5 24.2532 7.5 24.213C 7.5 24.1727 7.5 24.1325 7.5 24.0923C 7.5 24.0521 7.5 24.0119 7.5 23.9717C 7.5 23.9315 7.5 23.8913 7.5 23.8511C 7.5 23.8109 7.5 23.7708 7.5 23.7306C 7.5 23.6904 7.5 23.6503 7.5 23.6102C 7.5 23.5701 7.5 23.5299 7.5 23.4898C 7.5 23.4497 7.5 23.4096 7.5 23.3696C 7.5 23.3295 7.5 23.2894 7.5 23.2493C 7.5 23.2093 7.5 23.1693 7.5 23.1292C 7.5 23.0892 7.5 23.0492 7.5 23.0092C 7.5 22.9692 7.5 22.9292 7.5 22.8892C 7.5 22.8492 7.5 22.8093 7.5 22.7693C 7.5 22.7294 7.5 22.6895 7.5 22.6495C 7.5 22.6096 7.5 22.5697 7.5 22.5298C 7.5 22.49 7.5 22.4501 7.5 22.4102C 7.5 22.3704 7.5 22.3305 7.5 22.2907C 7.5 22.2509 7.5 22.2111 7.5 22.1713C 7.5 22.1315 7.5 22.0917 7.5 22.0519C 7.5 22.0122 7.5 21.9724 7.5 21.9327C 7.5 21.893 7.5 21.8533 7.5 21.8136C 7.5 21.7739 7.5 21.7342 7.5 21.6945C 7.5 21.6549 7.5 21.6152 7.5 21.5756C 7.5 21.536 7.5 21.4964 7.5 21.4568C 7.5 21.4172 7.5 21.3776 7.5 21.3381C 7.5 21.2985 7.5 21.259 7.5 21.2195C 7.5 21.18 7.5 21.1405 7.5 21.101C 7.5 21.0615 7.5 21.0221 7.5 20.9826C 7.5 20.9432 7.5 20.9038 7.5 20.8644C 7.5 20.825 7.5 20.7856 7.5 20.7462C 7.5 20.7069 7.5 20.6675 7.5 20.6282C 7.5 20.5889 7.5 20.5496 7.5 20.5103C 7.5 20.471 7.5 20.4318 7.5 20.3925C 7.5 20.3533 7.5 20.3141 7.5 20.2749C 7.5 20.2357 7.5 20.1965 7.5 20.1574C 7.5 20.1182 7.5 20.0791 7.5 20.04C 7.5 20.0009 7.5 19.9618 7.5 19.9228C 7.5 19.8837 7.5 19.8447 7.5 19.8056C 7.5 19.7666 7.5 19.7276 7.5 19.6887C 7.5 19.6497 7.5 19.6108 7.5 19.5718C 7.5 19.5329 7.5 19.494 7.5 19.4551C 7.5 19.4163 7.5 19.3774 7.5 19.3386C 7.5 19.2998 7.5 19.261 7.5 19.2222C 7.5 19.1834 7.5 19.1447 7.5 19.1059C 7.5 19.0672 7.5 19.0285 7.5 18.9898C 7.5 18.9512 7.5 18.9125 7.5 18.8739C 7.5 18.8353 7.5 18.7967 7.5 18.7581C 7.5 18.7195 7.5 18.681 7.5 18.6424C 7.5 18.6039 7.5 18.5654 7.5 18.527C 7.5 18.4885 7.5 18.4501 7.5 18.4116C 7.5 18.3732 7.5 18.3348 7.5 18.2965C 7.5 18.2581 7.5 18.2198 7.5 18.1815C 7.5 18.1432 7.5 18.1049 7.5 18.0667C 7.5 18.0284 7.5 17.9902 7.5 17.952C 7.5 17.9138 7.5 17.8756 7.5 17.8375C 7.5 17.7994 7.5 17.7613 7.5 17.7232C 7.5 17.6851 7.5 17.6471 7.5 17.609C 7.5 17.571 7.5 17.533 7.5 17.4951C 7.5 17.4571 7.5 17.4192 7.5 17.3813C 7.5 17.3434 7.5 17.3055 7.5 17.2677C 7.5 17.2298 7.5 17.192 7.5 17.1543C 7.5 17.1165 7.5 17.0787 7.5 17.041C 7.5 17.0033 7.5 16.9656 7.5 16.928C 7.5 16.8903 7.5 16.8527 7.5 16.8151C 7.5 16.7775 7.5 16.74 7.5 16.7024C 7.5 16.6649 7.5 16.6274 7.5 16.59C 7.5 16.5525 7.5 16.5151 7.5 16.4777C 7.5 16.4403 7.5 16.4029 7.5 16.3656C 7.5 16.3283 7.5 16.291 7.5 16.2537C 7.5 16.2165 7.5 16.1792 7.5 16.142C 7.5 16.1048 7.5 16.0677 7.5 16.0306C 7.5 15.9934 7.5 15.9563 7.5 15.9193C 7.5 15.8822 7.5 15.8452 7.5 15.8082C 7.5 15.7712 7.5 15.7343 7.5 15.6974C 7.5 15.6605 7.5 15.6236 7.5 15.5867C 7.5 15.5499 7.5 15.5131 7.5 15.4763C 7.5 15.4395 7.5 15.4028 7.5 15.3661C 7.5 15.3294 7.5 15.2927 7.5 15.2561C 7.5 15.2195 7.5 15.1829 7.5 15.1463C 7.5 15.1098 7.5 15.0733 7.5 15.0368C 7.5 15.0003 7.5 14.9639 7.5 14.9275C 7.5 14.8911 7.5 14.8547 7.5 14.8184C 7.5 14.782 7.5 14.7457 7.5 14.7095C 7.5 14.6732 7.5 14.637 7.5 14.6009C 7.5 14.5647 7.5 14.5285 7.5 14.4924C 7.5 14.4564 7.5 14.4203 7.5 14.3843C 7.5 14.3483 7.5 14.3123 7.5 14.2763C 7.5 14.2404 7.5 14.2045 7.5 14.1686C 7.5 14.1328 7.5 14.097 7.5 14.0612C 7.5 14.0254 7.5 13.9897 7.5 13.954C 7.5 13.9183 7.5 13.8826 7.5 13.847C 7.5 13.8114 7.5 13.7758 7.5 13.7403C 7.5 13.7048 7.5 13.6693 7.5 13.6338C 7.5 13.5984 7.5 13.563 7.5 13.5276C 7.5 13.4923 7.5 13.4569 7.5 13.4216C 7.5 13.3864 7.5 13.3511 7.5 13.3159C 7.5 13.2807 7.5 13.2456 7.5 13.2105C 7.5 13.1754 7.5 13.1403 7.5 13.1053C 7.5 13.0703 7.5 13.0353 7.5 13.0004C 7.5 12.9654 7.5 12.9306 7.5 12.8957C 7.5 12.8609 7.5 12.8261 7.5 12.7913C 7.5 12.7566 7.5 12.7218 7.5 12.6872C 7.5 12.6525 7.5 12.6179 7.5 12.5833C 7.5 12.5487 7.5 12.5142 7.5 12.4797C 7.5 12.4452 7.5 12.4108 7.5 12.3764C 7.5 12.342 7.5 12.3077 7.5 12.2734C 7.5 12.2391 7.5 12.2048 7.5 12.1706C 7.5 12.1364 7.5 12.1022 7.5 12.0681C 7.5 12.034 7.5 12 7.5 11.9659C 7.5 11.9319 7.5 11.8979 7.5 11.864C 7.5 11.8301 7.5 11.7962 7.5 11.7624C 7.5 11.7286 7.5 11.6948 7.5 11.6611C 7.5 11.6273 7.5 11.5936 7.5 11.56C 7.5 11.5264 7.5 11.4928 7.5 11.4593C 7.5 11.4257 7.5 11.3922 7.5 11.3588C 7.5 11.3254 7.5 11.292 7.5 11.2586C 7.5 11.2253 7.5 11.192 7.5 11.1588C 7.5 11.1255 7.5 11.0924 7.5 11.0592C 7.5 11.0261 7.5 10.993 7.5 10.96C 7.5 10.9269 7.5 10.8939 7.5 10.861C 7.5 10.8281 7.5 10.7952 7.5 10.7624C 7.5 10.7295 7.5 10.6968 7.5 10.664C 7.5 10.6313 7.5 10.5986 7.5 10.566C 7.5 10.5334 7.5 10.5008 7.5 10.4683C 7.5 10.4358 7.5 10.4033 7.5 10.3709C 7.5 10.3385 7.5 10.3061 7.5 10.2738C 7.5 10.2415 7.5 10.2093 7.5 10.1771C 7.5 10.1449 7.5 10.1127 7.5 10.0806C 7.5 10.0485 7.5 10.0165 7.5 9.98451C 7.5 9.95253 7.5 9.9206 7.5 9.88873C 7.5 9.85685 7.5 9.82503 7.5 9.79327C 7.5 9.7615 7.5 9.72979 7.5 9.69814C 7.5 9.66648 7.5 9.63489 7.5 9.60334C 7.5 9.5718 7.5 9.54031 7.5 9.50888C 7.5 9.47745 7.5 9.44607 7.5 9.41475C 7.5 9.38344 7.5 9.35217 7.5 9.32097C 7.5 9.28976 7.5 9.25861 7.5 9.22752C 7.5 9.19643 7.5 9.16539 7.5 9.13442C 7.5 9.10344 7.5 9.07252 7.5 9.04166C 7.5 9.0108 7.5 8.97999 7.5 8.94925C 7.5 8.9185 7.5 8.88781 7.5 8.85718C 7.5 8.82655 7.5 8.79598 7.5 8.76547C 7.5 8.73496 7.5 8.7045 7.5 8.67411C 7.5 8.64371 7.5 8.61338 7.5 8.5831C 7.5 8.55283 7.5 8.52261 7.5 8.49245C 7.5 8.4623 7.5 8.4322 7.5 8.40216C 7.5 8.37213 7.5 8.34215 7.5 8.31224C 7.5 8.28232 7.5 8.25247 7.5 8.22267C 7.5 8.19288 7.5 8.16314 7.5 8.13347C 7.5 8.1038 7.5 8.07419 7.5 8.04464C 7.5 8.01509 7.5 7.9856 7.5 7.95618C 7.5 7.92675 7.5 7.89739 7.5 7.86809C 7.5 7.83878 7.5 7.80954 7.5 7.78037C 7.5 7.75119 7.5 7.72208 7.5 7.69303C 7.5 7.66397 7.5 7.63499 7.5 7.60606C 7.5 7.57714 7.5 7.54827 7.5 7.51948C 7.5 7.49068 7.5 7.46194 7.5 7.43327C 7.5 7.4046 7.5 7.376 7.5 7.34746C 7.5 7.31891 7.5 7.29044 7.5 7.26202C 7.5 7.23361 7.5 7.20526 7.5 7.17698C 7.5 7.14869 7.5 7.12048 7.5 7.09232C 7.5 7.06417 7.5 7.03608 7.5 7.00806C 7.5 6.98004 7.5 6.95208 7.5 6.92419C 7.5 6.8963 7.5 6.86848 7.5 6.84072C 7.5 6.81296 7.5 6.78527 7.5 6.75765C 7.5 6.73002 7.5 6.70246 7.5 6.67497C 7.5 6.64748 7.5 6.62006 7.5 6.5927C 7.5 6.56535 7.5 6.53806 7.5 6.51084C 7.5 6.48362 7.5 6.45646 7.5 6.42938C 7.5 6.40229 7.5 6.37528 7.5 6.34833C 7.5 6.32138 7.5 6.2945 7.5 6.26769C 7.5 6.24088 7.5 6.21414 7.5 6.18746C 7.5 6.16079 7.5 6.13418 7.5 6.10765C 7.5 6.08112 7.5 6.05465 7.5 6.02826C 7.5 6.00186 7.5 5.97554 7.5 5.94928C 7.5 5.92303 7.5 5.89684 7.5 5.87073C 7.5 5.84461 7.5 5.81857 7.5 5.79259C 7.5 5.76662 7.5 5.74072 7.5 5.71489C 7.5 5.68906 7.5 5.6633 7.5 5.63761C 7.5 5.61192 7.5 5.58631 7.5 5.56076C 7.5 5.53522 7.5 5.50974 7.5 5.48434C 7.5 5.45894 7.5 5.43362 7.5 5.40836C 7.5 5.38311 7.5 5.35792 7.5 5.33281C 7.5 5.3077 7.5 5.28267 7.5 5.2577C 7.5 5.23274 7.5 5.20785 7.5 5.18303C 7.5 5.15822 7.5 5.13347 7.5 5.1088C 7.5 5.08413 7.5 5.05954 7.5 5.03502C 7.5 5.0105 7.5 4.98605 7.5 4.96168C 7.5 4.93731 7.5 4.91301 7.5 4.88879C 7.5 4.86457 7.5 4.84042 7.5 4.81635C 7.5 4.79228 7.5 4.76828 7.5 4.74436C 7.5 4.72044 7.5 4.69659 7.5 4.67283C 7.5 4.64906 7.5 4.62536 7.5 4.60175C 7.5 4.57813 7.5 4.55459 7.5 4.53113C 7.5 4.50767 7.5 4.48428 7.5 4.46097C 7.5 4.43766 7.5 4.41443 7.5 4.39127C 7.5 4.36812 7.5 4.34504 7.5 4.32204C 7.5 4.29904 7.5 4.27612 7.5 4.25328C 7.5 4.23043 7.5 4.20767 7.5 4.18498C 7.5 4.1623 7.5 4.13969 7.5 4.11716C 7.5 4.09463 7.5 4.07218 7.5 4.04981C 7.5 4.02743 7.5 4.00514 7.5 3.98293C 7.5 3.96071 7.5 3.93858 7.5 3.91653C 7.5 3.89447 7.5 3.8725 7.5 3.85061C 7.5 3.82871 7.5 3.8069 7.5 3.78517C 7.5 3.76343 7.5 3.74178 7.5 3.72021C 7.5 3.69864 7.5 3.67715 7.5 3.65574C 7.5 3.63433 7.5 3.613 7.5 3.59176C 7.5 3.57051 7.5 3.54934 7.5 3.52826C 7.5 3.50718 7.5 3.48618 7.5 3.46526C 7.5 3.44434 7.5 3.4235 7.5 3.40275C 7.5 3.382 7.5 3.36132 7.5 3.34074C 7.5 3.32015 7.5 3.29964 7.5 3.27922C 7.5 3.2588 7.5 3.23846 7.5 3.2182C 7.5 3.19795 7.5 3.17778 7.5 3.15769C 7.5 3.1376 7.5 3.1176 7.5 3.09768C 7.5 3.07776 7.5 3.05793 7.5 3.03818C 7.5 3.01843 7.5 2.99876 7.5 2.97918C 7.5 2.9596 7.5 2.9401 7.5 2.9207C 7.5 2.90129 7.5 2.88196 7.5 2.86272C 7.5 2.84348 7.5 2.82433 7.5 2.80526C 7.5 2.7862 7.5 2.76721 7.5 2.74832C 7.5 2.72943 7.5 2.71062 7.5 2.6919C 7.5 2.67317 7.5 2.65454 7.5 2.63599C 7.5 2.61744 7.5 2.59898 7.5 2.58061C 7.5 2.56224 7.5 2.54395 7.5 2.52575C 7.5 2.50756 7.5 2.48945 7.5 2.47142C 7.5 2.4534 7.5 2.43547 7.5 2.41762C 7.5 2.39978 7.5 2.38202 7.5 2.36435C 7.5 2.34669 7.5 2.32911 7.5 2.31162C 7.5 2.29413 7.5 2.27673 7.5 2.25941C 7.5 2.2421 7.5 2.22488 7.5 2.20775C 7.5 2.19062 7.5 2.17358 7.5 2.15662C 7.5 2.13967 7.5 2.12281 7.5 2.10604C 7.5 2.08927 7.5 2.07259 7.5 2.056C 7.5 2.03941 7.5 2.02291 7.5 2.0065C 7.5 1.99009 7.5 1.97378 7.5 1.95755C 7.5 1.94133 7.5 1.9252 7.5 1.90915C 7.5 1.89311 7.5 1.87716 7.5 1.86131C 7.5 1.84545 7.5 1.82969 7.5 1.81401C 7.5 1.79834 7.5 1.78276 7.5 1.76728C 7.5 1.75179 7.5 1.7364 7.5 1.72109C 7.5 1.70579 7.5 1.69059 7.5 1.67547C 7.5 1.66036 7.5 1.64534 7.5 1.63042C 7.5 1.61549 7.5 1.60066 7.5 1.58592C 7.5 1.57118 7.5 1.55654 7.5 1.54199C 7.5 1.52744 7.5 1.51299 7.5 1.49863C 7.5 1.48427 7.5 1.47001 7.5 1.45584C 7.5 1.44167 7.5 1.4276 7.5 1.41362C 7.5 1.39965 7.5 1.38577 7.5 1.37198C 7.5 1.3582 7.5 1.34451 7.5 1.33091C 7.5 1.31732 7.5 1.30383 7.5 1.29043C 7.5 1.27703 7.5 1.26372 7.5 1.25052C 7.5 1.23731 7.5 1.2242 7.5 1.21119C 7.5 1.19818 7.5 1.18527 7.5 1.17245C 7.5 1.15964 7.5 1.14692 7.5 1.1343C 7.5 1.12168 7.5 1.10916 7.5 1.09673C 7.5 1.08431 7.5 1.07198 7.5 1.05976C 7.5 1.04753 7.5 1.0354 7.5 1.02338C 7.5 1.01135 7.5 0.99942 7.5 0.98759C 7.5 0.975761 7.5 0.964031 7.5 0.952401C 7.5 0.940771 7.5 0.929241 7.5 0.917811C 7.5 0.906381 7.5 0.895052 7.5 0.883823C 7.5 0.872594 7.5 0.861465 7.5 0.850437C 7.5 0.83941 7.5 0.828483 7.5 0.817657C 7.5 0.806832 7.5 0.796107 7.5 0.785485C 7.5 0.774862 7.5 0.764341 7.5 0.753922C 7.5 0.743502 7.5 0.733185 7.5 0.72297C 7.5 0.712755 7.5 0.702643 7.5 0.692632C 7.5 0.682622 7.5 0.672715 7.5 0.66291C 7.5 0.653106 7.5 0.643404 7.5 0.633806C 7.5 0.624208 7.5 0.614713 7.5 0.605322C 7.5 0.595931 7.5 0.586643 7.5 0.57746C 7.5 0.568276 7.5 0.559196 7.5 0.550221C 7.5 0.541246 7.5 0.532375 7.5 0.523609C 7.5 0.514843 7.5 0.506181 7.5 0.497625C 7.5 0.489068 7.5 0.480617 7.5 0.472271C 7.5 0.463925 7.5 0.455684 7.5 0.447549C 7.5 0.439414 7.5 0.431385 7.5 0.423462C 7.5 0.415539 7.5 0.407722 7.5 0.400011C 7.5 0.3923 7.5 0.384696 7.5 0.377199C 7.5 0.369701 7.5 0.362311 7.5 0.355027C 7.5 0.347743 7.5 0.340567 7.5 0.333498C 7.5 0.326429 7.5 0.319467 7.5 0.312614C 7.5 0.30576 7.5 0.299014 7.5 0.292376C 7.5 0.285738 7.5 0.279208 7.5 0.272787C 7.5 0.266366 7.5 0.260053 7.5 0.253849C 7.5 0.247646 7.5 0.24155 7.5 0.235565C 7.5 0.229579 7.5 0.223702 7.5 0.217935C 7.5 0.212168 7.5 0.20651 7.5 0.200962C 7.5 0.195414 7.5 0.189976 7.5 0.184649C 7.5 0.179321 7.5 0.174104 7.5 0.168997C 7.5 0.16389 7.5 0.158893 7.5 0.154008C 7.5 0.149122 7.5 0.144348 7.5 0.139684C 7.5 0.135021 7.5 0.130469 7.5 0.126028C 7.5 0.121588 7.5 0.117259 7.5 0.113042C 7.5 0.108825 7.5 0.10472 7.5 0.100727C 7.5 0.0967346 7.5 0.0928541 7.5 0.0890862C 7.5 0.0853184 7.5 0.0816632 7.5 0.0781209C 7.5 0.0745787 7.5 0.0711494 7.5 0.0678335C 7.5 0.0645175 7.5 0.0613149 7.5 0.0582259C 7.5 0.0551369 7.5 0.0521616 7.5 0.0493003C 7.5 0.046439 7.5 0.0436917 7.5 0.0410587C 7.5 0.0384258 7.5 0.0359072 7.5 0.0335033C 7.5 0.0310994 7.5 0.0288102 7.5 0.026636C 7.5 0.0244618 7.5 0.0224027 7.5 0.020459C 7.5 0.0185152 7.5 0.0166869 7.5 0.0149743C 7.5 0.0132616 7.5 0.0116648 7.5 0.0101839C 7.5 0.00870313 7.5 0.00733839 7.5 0.00609007C 7.5 0.00484176 7.5 0.00370987 7.5 0.00269474C 7.5 0.00167961 7.5 0.00078125 7.5 0L 5.5 0ZM 5.84638 47.7568C 7.77127 49.4192 11.1751 51.5672 15.1777 53.4344C 19.1862 55.3043 23.8732 56.9294 28.376 57.4923L 28.624 55.5077C 24.3948 54.9791 19.9151 53.4375 16.0232 51.6219C 12.1256 49.8037 8.8954 47.7474 7.15362 46.2432L 5.84638 47.7568ZM 28.376 57.4923C 29.3848 57.6184 30.6655 57.6886 31.8119 57.7973C 33.0129 57.9112 34.1822 58.0739 35.2088 58.3864C 36.2357 58.699 37.0454 59.1396 37.5975 59.7585C 38.1307 60.3561 38.5 61.2049 38.5 62.5L 40.5 62.5C 40.5 60.7847 39.9943 59.4408 39.09 58.4271C 38.2046 57.4347 37.0143 56.8453 35.7912 56.473C 34.5678 56.1006 33.2371 55.9235 32.0006 55.8062C 30.7095 55.6838 29.6152 55.6316 28.624 55.5077L 28.376 57.4923ZM 38.5 62.5C 38.5 62.5107 38.5 62.5215 38.5 62.5322C 38.5 62.5429 38.5 62.5537 38.5 62.5644C 38.5 62.5751 38.5 62.5859 38.5 62.5966C 38.5 62.6073 38.5 62.618 38.5 62.6287C 38.5 62.6394 38.5 62.6501 38.5 62.6608C 38.5 62.6715 38.5 62.6822 38.5 62.6929C 38.5 62.7036 38.5 62.7143 38.5 62.725C 38.5 62.7357 38.5 62.7464 38.5 62.7571C 38.5 62.7677 38.5 62.7784 38.5 62.7891C 38.5 62.7998 38.5 62.8104 38.5 62.8211C 38.5 62.8318 38.5 62.8424 38.5 62.8531C 38.5 62.8637 38.5 62.8744 38.5 62.885C 38.5 62.8957 38.5 62.9063 38.5 62.917C 38.5 62.9276 38.5 62.9382 38.5 62.9489C 38.5 62.9595 38.5 62.9701 38.5 62.9808C 38.5 62.9914 38.5 63.002 38.5 63.0126C 38.5 63.0232 38.5 63.0338 38.5 63.0445C 38.5 63.0551 38.5 63.0657 38.5 63.0763C 38.5 63.0869 38.5 63.0975 38.5 63.108C 38.5 63.1186 38.5 63.1292 38.5 63.1398C 38.5 63.1504 38.5 63.161 38.5 63.1715C 38.5 63.1821 38.5 63.1927 38.5 63.2032C 38.5 63.2138 38.5 63.2244 38.5 63.2349C 38.5 63.2455 38.5 63.256 38.5 63.2666C 38.5 63.2771 38.5 63.2877 38.5 63.2982C 38.5 63.3088 38.5 63.3193 38.5 63.3298C 38.5 63.3404 38.5 63.3509 38.5 63.3614C 38.5 63.3719 38.5 63.3825 38.5 63.393C 38.5 63.4035 38.5 63.414 38.5 63.4245C 38.5 63.435 38.5 63.4455 38.5 63.456C 38.5 63.4665 38.5 63.477 38.5 63.4875C 38.5 63.498 38.5 63.5084 38.5 63.5189C 38.5 63.5294 38.5 63.5399 38.5 63.5503C 38.5 63.5608 38.5 63.5713 38.5 63.5817C 38.5 63.5922 38.5 63.6027 38.5 63.6131C 38.5 63.6236 38.5 63.634 38.5 63.6445C 38.5 63.6549 38.5 63.6653 38.5 63.6758C 38.5 63.6862 38.5 63.6966 38.5 63.7071C 38.5 63.7175 38.5 63.7279 38.5 63.7383C 38.5 63.7487 38.5 63.7592 38.5 63.7696C 38.5 63.78 38.5 63.7904 38.5 63.8008C 38.5 63.8112 38.5 63.8216 38.5 63.8319C 38.5 63.8423 38.5 63.8527 38.5 63.8631C 38.5 63.8735 38.5 63.8839 38.5 63.8942C 38.5 63.9046 38.5 63.915 38.5 63.9253C 38.5 63.9357 38.5 63.946 38.5 63.9564C 38.5 63.9667 38.5 63.9771 38.5 63.9874C 38.5 63.9978 38.5 64.0081 38.5 64.0184C 38.5 64.0288 38.5 64.0391 38.5 64.0494C 38.5 64.0598 38.5 64.0701 38.5 64.0804C 38.5 64.0907 38.5 64.101 38.5 64.1113C 38.5 64.1216 38.5 64.1319 38.5 64.1422C 38.5 64.1525 38.5 64.1628 38.5 64.1731C 38.5 64.1834 38.5 64.1937 38.5 64.2039C 38.5 64.2142 38.5 64.2245 38.5 64.2347C 38.5 64.245 38.5 64.2553 38.5 64.2655C 38.5 64.2758 38.5 64.286 38.5 64.2963C 38.5 64.3065 38.5 64.3168 38.5 64.327C 38.5 64.3372 38.5 64.3475 38.5 64.3577C 38.5 64.3679 38.5 64.3782 38.5 64.3884C 38.5 64.3986 38.5 64.4088 38.5 64.419C 38.5 64.4292 38.5 64.4394 38.5 64.4496C 38.5 64.4598 38.5 64.47 38.5 64.4802C 38.5 64.4904 38.5 64.5006 38.5 64.5107C 38.5 64.5209 38.5 64.5311 38.5 64.5413C 38.5 64.5514 38.5 64.5616 38.5 64.5717C 38.5 64.5819 38.5 64.5921 38.5 64.6022C 38.5 64.6124 38.5 64.6225 38.5 64.6326C 38.5 64.6428 38.5 64.6529 38.5 64.663C 38.5 64.6732 38.5 64.6833 38.5 64.6934C 38.5 64.7035 38.5 64.7136 38.5 64.7237C 38.5 64.7338 38.5 64.7439 38.5 64.754C 38.5 64.7641 38.5 64.7742 38.5 64.7843C 38.5 64.7944 38.5 64.8045 38.5 64.8146C 38.5 64.8246 38.5 64.8347 38.5 64.8448C 38.5 64.8548 38.5 64.8649 38.5 64.8749C 38.5 64.885 38.5 64.895 38.5 64.9051C 38.5 64.9151 38.5 64.9252 38.5 64.9352C 38.5 64.9452 38.5 64.9553 38.5 64.9653C 38.5 64.9753 38.5 64.9853 38.5 64.9953C 38.5 65.0054 38.5 65.0154 38.5 65.0254C 38.5 65.0354 38.5 65.0454 38.5 65.0554C 38.5 65.0653 38.5 65.0753 38.5 65.0853C 38.5 65.0953 38.5 65.1053 38.5 65.1152C 38.5 65.1252 38.5 65.1352 38.5 65.1451C 38.5 65.1551 38.5 65.165 38.5 65.175C 38.5 65.1849 38.5 65.1949 38.5 65.2048C 38.5 65.2148 38.5 65.2247 38.5 65.2346C 38.5 65.2445 38.5 65.2545 38.5 65.2644C 38.5 65.2743 38.5 65.2842 38.5 65.2941C 38.5 65.304 38.5 65.3139 38.5 65.3238C 38.5 65.3337 38.5 65.3436 38.5 65.3535C 38.5 65.3634 38.5 65.3732 38.5 65.3831C 38.5 65.393 38.5 65.4028 38.5 65.4127C 38.5 65.4226 38.5 65.4324 38.5 65.4423C 38.5 65.4521 38.5 65.462 38.5 65.4718C 38.5 65.4816 38.5 65.4915 38.5 65.5013C 38.5 65.5111 38.5 65.521 38.5 65.5308C 38.5 65.5406 38.5 65.5504 38.5 65.5602C 38.5 65.57 38.5 65.5798 38.5 65.5896C 38.5 65.5994 38.5 65.6092 38.5 65.6189C 38.5 65.6287 38.5 65.6385 38.5 65.6483C 38.5 65.6581 38.5 65.6678 38.5 65.6776C 38.5 65.6873 38.5 65.6971 38.5 65.7068C 38.5 65.7166 38.5 65.7263 38.5 65.7361C 38.5 65.7458 38.5 65.7555 38.5 65.7652C 38.5 65.775 38.5 65.7847 38.5 65.7944C 38.5 65.8041 38.5 65.8138 38.5 65.8235C 38.5 65.8332 38.5 65.8429 38.5 65.8526C 38.5 65.8623 38.5 65.872 38.5 65.8817C 38.5 65.8913 38.5 65.901 38.5 65.9107C 38.5 65.9203 38.5 65.93 38.5 65.9397C 38.5 65.9493 38.5 65.959 38.5 65.9686C 38.5 65.9782 38.5 65.9879 38.5 65.9975C 38.5 66.0071 38.5 66.0168 38.5 66.0264C 38.5 66.036 38.5 66.0456 38.5 66.0552C 38.5 66.0648 38.5 66.0744 38.5 66.084C 38.5 66.0936 38.5 66.1032 38.5 66.1128C 38.5 66.1224 38.5 66.1319 38.5 66.1415C 38.5 66.1511 38.5 66.1606 38.5 66.1702C 38.5 66.1798 38.5 66.1893 38.5 66.1989C 38.5 66.2084 38.5 66.2179 38.5 66.2275C 38.5 66.237 38.5 66.2465 38.5 66.2561C 38.5 66.2656 38.5 66.2751 38.5 66.2846C 38.5 66.2941 38.5 66.3036 38.5 66.3131C 38.5 66.3226 38.5 66.3321 38.5 66.3416C 38.5 66.3511 38.5 66.3606 38.5 66.37C 38.5 66.3795 38.5 66.389 38.5 66.3984C 38.5 66.4079 38.5 66.4174 38.5 66.4268C 38.5 66.4362 38.5 66.4457 38.5 66.4551C 38.5 66.4646 38.5 66.474 38.5 66.4834C 38.5 66.4928 38.5 66.5023 38.5 66.5117C 38.5 66.5211 38.5 66.5305 38.5 66.5399C 38.5 66.5493 38.5 66.5587 38.5 66.5681C 38.5 66.5774 38.5 66.5868 38.5 66.5962C 38.5 66.6056 38.5 66.6149 38.5 66.6243C 38.5 66.6337 38.5 66.643 38.5 66.6524C 38.5 66.6617 38.5 66.671 38.5 66.6804C 38.5 66.6897 38.5 66.699 38.5 66.7084C 38.5 66.7177 38.5 66.727 38.5 66.7363C 38.5 66.7456 38.5 66.7549 38.5 66.7642C 38.5 66.7735 38.5 66.7828 38.5 66.7921C 38.5 66.8014 38.5 66.8106 38.5 66.8199C 38.5 66.8292 38.5 66.8384 38.5 66.8477C 38.5 66.857 38.5 66.8662 38.5 66.8755C 38.5 66.8847 38.5 66.8939 38.5 66.9032C 38.5 66.9124 38.5 66.9216 38.5 66.9308C 38.5 66.9401 38.5 66.9493 38.5 66.9585C 38.5 66.9677 38.5 66.9769 38.5 66.9861C 38.5 66.9953 38.5 67.0044 38.5 67.0136C 38.5 67.0228 38.5 67.032 38.5 67.0411C 38.5 67.0503 38.5 67.0595 38.5 67.0686C 38.5 67.0778 38.5 67.0869 38.5 67.0961C 38.5 67.1052 38.5 67.1143 38.5 67.1235C 38.5 67.1326 38.5 67.1417 38.5 67.1508C 38.5 67.1599 38.5 67.169 38.5 67.1781C 38.5 67.1872 38.5 67.1963 38.5 67.2054C 38.5 67.2145 38.5 67.2236 38.5 67.2326C 38.5 67.2417 38.5 67.2508 38.5 67.2598C 38.5 67.2689 38.5 67.2779 38.5 67.287C 38.5 67.296 38.5 67.3051 38.5 67.3141C 38.5 67.3231 38.5 67.3322 38.5 67.3412C 38.5 67.3502 38.5 67.3592 38.5 67.3682C 38.5 67.3772 38.5 67.3862 38.5 67.3952C 38.5 67.4042 38.5 67.4132 38.5 67.4221C 38.5 67.4311 38.5 67.4401 38.5 67.4491C 38.5 67.458 38.5 67.467 38.5 67.4759C 38.5 67.4849 38.5 67.4938 38.5 67.5027C 38.5 67.5117 38.5 67.5206 38.5 67.5295C 38.5 67.5385 38.5 67.5474 38.5 67.5563C 38.5 67.5652 38.5 67.5741 38.5 67.583C 38.5 67.5919 38.5 67.6007 38.5 67.6096C 38.5 67.6185 38.5 67.6274 38.5 67.6362C 38.5 67.6451 38.5 67.654 38.5 67.6628C 38.5 67.6717 38.5 67.6805 38.5 67.6893C 38.5 67.6982 38.5 67.707 38.5 67.7158C 38.5 67.7247 38.5 67.7335 38.5 67.7423C 38.5 67.7511 38.5 67.7599 38.5 67.7687C 38.5 67.7775 38.5 67.7863 38.5 67.795C 38.5 67.8038 38.5 67.8126 38.5 67.8214C 38.5 67.8301 38.5 67.8389 38.5 67.8476C 38.5 67.8564 38.5 67.8651 38.5 67.8739C 38.5 67.8826 38.5 67.8913 38.5 67.9001C 38.5 67.9088 38.5 67.9175 38.5 67.9262C 38.5 67.9349 38.5 67.9436 38.5 67.9523C 38.5 67.961 38.5 67.9697 38.5 67.9784C 38.5 67.987 38.5 67.9957 38.5 68.0044C 38.5 68.013 38.5 68.0217 38.5 68.0303C 38.5 68.039 38.5 68.0476 38.5 68.0563C 38.5 68.0649 38.5 68.0735 38.5 68.0822C 38.5 68.0908 38.5 68.0994 38.5 68.108C 38.5 68.1166 38.5 68.1252 38.5 68.1338C 38.5 68.1424 38.5 68.151 38.5 68.1595C 38.5 68.1681 38.5 68.1767 38.5 68.1852C 38.5 68.1938 38.5 68.2024 38.5 68.2109C 38.5 68.2195 38.5 68.228 38.5 68.2365C 38.5 68.2451 38.5 68.2536 38.5 68.2621C 38.5 68.2706 38.5 68.2791 38.5 68.2876C 38.5 68.2961 38.5 68.3046 38.5 68.3131C 38.5 68.3216 38.5 68.3301 38.5 68.3385C 38.5 68.347 38.5 68.3555 38.5 68.3639C 38.5 68.3724 38.5 68.3808 38.5 68.3893C 38.5 68.3977 38.5 68.4062 38.5 68.4146C 38.5 68.423 38.5 68.4314 38.5 68.4398C 38.5 68.4482 38.5 68.4566 38.5 68.465C 38.5 68.4734 38.5 68.4818 38.5 68.4902C 38.5 68.4986 38.5 68.507 38.5 68.5153C 38.5 68.5237 38.5 68.532 38.5 68.5404C 38.5 68.5487 38.5 68.5571 38.5 68.5654C 38.5 68.5737 38.5 68.5821 38.5 68.5904C 38.5 68.5987 38.5 68.607 38.5 68.6153C 38.5 68.6236 38.5 68.6319 38.5 68.6402C 38.5 68.6485 38.5 68.6568 38.5 68.6651C 38.5 68.6733 38.5 68.6816 38.5 68.6898C 38.5 68.6981 38.5 68.7064 38.5 68.7146C 38.5 68.7228 38.5 68.7311 38.5 68.7393C 38.5 68.7475 38.5 68.7557 38.5 68.7639C 38.5 68.7721 38.5 68.7803 38.5 68.7885C 38.5 68.7967 38.5 68.8049 38.5 68.8131C 38.5 68.8213 38.5 68.8295 38.5 68.8376C 38.5 68.8458 38.5 68.8539 38.5 68.8621C 38.5 68.8702 38.5 68.8784 38.5 68.8865C 38.5 68.8946 38.5 68.9027 38.5 68.9109C 38.5 68.919 38.5 68.9271 38.5 68.9352C 38.5 68.9433 38.5 68.9514 38.5 68.9594C 38.5 68.9675 38.5 68.9756 38.5 68.9837C 38.5 68.9917 38.5 68.9998 38.5 69.0079C 38.5 69.0159 38.5 69.0239 38.5 69.032C 38.5 69.04 38.5 69.048 38.5 69.0561C 38.5 69.0641 38.5 69.0721 38.5 69.0801C 38.5 69.0881 38.5 69.0961 38.5 69.1041C 38.5 69.1121 38.5 69.12 38.5 69.128C 38.5 69.136 38.5 69.1439 38.5 69.1519C 38.5 69.1598 38.5 69.1678 38.5 69.1757C 38.5 69.1837 38.5 69.1916 38.5 69.1995C 38.5 69.2074 38.5 69.2153 38.5 69.2233C 38.5 69.2312 38.5 69.2391 38.5 69.2469C 38.5 69.2548 38.5 69.2627 38.5 69.2706C 38.5 69.2784 38.5 69.2863 38.5 69.2942C 38.5 69.302 38.5 69.3099 38.5 69.3177C 38.5 69.3255 38.5 69.3334 38.5 69.3412C 38.5 69.349 38.5 69.3568 38.5 69.3646C 38.5 69.3724 38.5 69.3802 38.5 69.388C 38.5 69.3958 38.5 69.4036 38.5 69.4114C 38.5 69.4191 38.5 69.4269 38.5 69.4347C 38.5 69.4424 38.5 69.4502 38.5 69.4579C 38.5 69.4656 38.5 69.4734 38.5 69.4811C 38.5 69.4888 38.5 69.4965 38.5 69.5042C 38.5 69.5119 38.5 69.5196 38.5 69.5273C 38.5 69.535 38.5 69.5427 38.5 69.5503C 38.5 69.558 38.5 69.5657 38.5 69.5733C 38.5 69.581 38.5 69.5886 38.5 69.5963C 38.5 69.6039 38.5 69.6115 38.5 69.6192C 38.5 69.6268 38.5 69.6344 38.5 69.642C 38.5 69.6496 38.5 69.6572 38.5 69.6648C 38.5 69.6724 38.5 69.6799 38.5 69.6875C 38.5 69.6951 38.5 69.7026 38.5 69.7102C 38.5 69.7177 38.5 69.7253 38.5 69.7328C 38.5 69.7403 38.5 69.7479 38.5 69.7554C 38.5 69.7629 38.5 69.7704 38.5 69.7779C 38.5 69.7854 38.5 69.7929 38.5 69.8004C 38.5 69.8079 38.5 69.8153 38.5 69.8228C 38.5 69.8303 38.5 69.8377 38.5 69.8452C 38.5 69.8526 38.5 69.8601 38.5 69.8675C 38.5 69.8749 38.5 69.8823 38.5 69.8897C 38.5 69.8972 38.5 69.9046 38.5 69.912C 38.5 69.9193 38.5 69.9267 38.5 69.9341C 38.5 69.9415 38.5 69.9489 38.5 69.9562C 38.5 69.9636 38.5 69.9709 38.5 69.9783C 38.5 69.9856 38.5 69.993 38.5 70.0003C 38.5 70.0076 38.5 70.0149 38.5 70.0222C 38.5 70.0295 38.5 70.0368 38.5 70.0441C 38.5 70.0514 38.5 70.0587 38.5 70.066C 38.5 70.0732 38.5 70.0805 38.5 70.0877C 38.5 70.095 38.5 70.1022 38.5 70.1095C 38.5 70.1167 38.5 70.1239 38.5 70.1311C 38.5 70.1384 38.5 70.1456 38.5 70.1528C 38.5 70.16 38.5 70.1672 38.5 70.1744C 38.5 70.1815 38.5 70.1887 38.5 70.1959C 38.5 70.203 38.5 70.2102 38.5 70.2173C 38.5 70.2245 38.5 70.2316 38.5 70.2387C 38.5 70.2459 38.5 70.253 38.5 70.2601C 38.5 70.2672 38.5 70.2743 38.5 70.2814C 38.5 70.2885 38.5 70.2956 38.5 70.3026C 38.5 70.3097 38.5 70.3168 38.5 70.3238C 38.5 70.3309 38.5 70.3379 38.5 70.345C 38.5 70.352 38.5 70.359 38.5 70.3661C 38.5 70.3731 38.5 70.3801 38.5 70.3871C 38.5 70.3941 38.5 70.4011 38.5 70.4081C 38.5 70.415 38.5 70.422 38.5 70.429C 38.5 70.4359 38.5 70.4429 38.5 70.4498C 38.5 70.4568 38.5 70.4637 38.5 70.4706C 38.5 70.4776 38.5 70.4845 38.5 70.4914C 38.5 70.4983 38.5 70.5052 38.5 70.5121C 38.5 70.519 38.5 70.5259 38.5 70.5327C 38.5 70.5396 38.5 70.5465 38.5 70.5533C 38.5 70.5602 38.5 70.567 38.5 70.5738C 38.5 70.5807 38.5 70.5875 38.5 70.5943C 38.5 70.6011 38.5 70.6079 38.5 70.6147C 38.5 70.6215 38.5 70.6283 38.5 70.6351C 38.5 70.6419 38.5 70.6486 38.5 70.6554C 38.5 70.6621 38.5 70.6689 38.5 70.6756C 38.5 70.6824 38.5 70.6891 38.5 70.6958C 38.5 70.7025 38.5 70.7093 38.5 70.716C 38.5 70.7227 38.5 70.7294 38.5 70.736C 38.5 70.7427 38.5 70.7494 38.5 70.7561C 38.5 70.7627 38.5 70.7694 38.5 70.776C 38.5 70.7827 38.5 70.7893 38.5 70.7959C 38.5 70.8025 38.5 70.8092 38.5 70.8158C 38.5 70.8224 38.5 70.829 38.5 70.8356C 38.5 70.8421 38.5 70.8487 38.5 70.8553C 38.5 70.8619 38.5 70.8684 38.5 70.875C 38.5 70.8815 38.5 70.8881 38.5 70.8946C 38.5 70.9011 38.5 70.9076 38.5 70.9141C 38.5 70.9206 38.5 70.9271 38.5 70.9336C 38.5 70.9401 38.5 70.9466 38.5 70.9531C 38.5 70.9596 38.5 70.966 38.5 70.9725C 38.5 70.9789 38.5 70.9854 38.5 70.9918C 38.5 70.9982 38.5 71.0047 38.5 71.0111C 38.5 71.0175 38.5 71.0239 38.5 71.0303C 38.5 71.0367 38.5 71.0431 38.5 71.0494C 38.5 71.0558 38.5 71.0622 38.5 71.0685C 38.5 71.0749 38.5 71.0812 38.5 71.0875C 38.5 71.0939 38.5 71.1002 38.5 71.1065C 38.5 71.1128 38.5 71.1191 38.5 71.1254C 38.5 71.1317 38.5 71.138 38.5 71.1443C 38.5 71.1506 38.5 71.1568 38.5 71.1631C 38.5 71.1693 38.5 71.1756 38.5 71.1818C 38.5 71.1881 38.5 71.1943 38.5 71.2005C 38.5 71.2067 38.5 71.2129 38.5 71.2191C 38.5 71.2253 38.5 71.2315 38.5 71.2377C 38.5 71.2439 38.5 71.25 38.5 71.2562C 38.5 71.2623 38.5 71.2685 38.5 71.2746C 38.5 71.2808 38.5 71.2869 38.5 71.293C 38.5 71.2991 38.5 71.3052 38.5 71.3113C 38.5 71.3174 38.5 71.3235 38.5 71.3296C 38.5 71.3356 38.5 71.3417 38.5 71.3478C 38.5 71.3538 38.5 71.3599 38.5 71.3659C 38.5 71.3719 38.5 71.378 38.5 71.384C 38.5 71.39 38.5 71.396 38.5 71.402C 38.5 71.408 38.5 71.414 38.5 71.42C 38.5 71.4259 38.5 71.4319 38.5 71.4379C 38.5 71.4438 38.5 71.4497 38.5 71.4557C 38.5 71.4616 38.5 71.4675 38.5 71.4734C 38.5 71.4794 38.5 71.4853 38.5 71.4912C 38.5 71.4971 38.5 71.5029 38.5 71.5088C 38.5 71.5147 38.5 71.5205 38.5 71.5264C 38.5 71.5322 38.5 71.5381 38.5 71.5439C 38.5 71.5498 38.5 71.5556 38.5 71.5614C 38.5 71.5672 38.5 71.573 38.5 71.5788C 38.5 71.5846 38.5 71.5904 38.5 71.5961C 38.5 71.6019 38.5 71.6077 38.5 71.6134C 38.5 71.6192 38.5 71.6249 38.5 71.6306C 38.5 71.6363 38.5 71.6421 38.5 71.6478C 38.5 71.6535 38.5 71.6592 38.5 71.6649C 38.5 71.6705 38.5 71.6762 38.5 71.6819C 38.5 71.6876 38.5 71.6932 38.5 71.6989C 38.5 71.7045 38.5 71.7101 38.5 71.7158C 38.5 71.7214 38.5 71.727 38.5 71.7326C 38.5 71.7382 38.5 71.7438 38.5 71.7494C 38.5 71.755 38.5 71.7605 38.5 71.7661C 38.5 71.7716 38.5 71.7772 38.5 71.7827C 38.5 71.7883 38.5 71.7938 38.5 71.7993C 38.5 71.8048 38.5 71.8103 38.5 71.8158C 38.5 71.8213 38.5 71.8268 38.5 71.8323C 38.5 71.8378 38.5 71.8432 38.5 71.8487C 38.5 71.8542 38.5 71.8596 38.5 71.865C 38.5 71.8705 38.5 71.8759 38.5 71.8813C 38.5 71.8867 38.5 71.8921 38.5 71.8975C 38.5 71.9029 38.5 71.9083 38.5 71.9136C 38.5 71.919 38.5 71.9244 38.5 71.9297C 38.5 71.9351 38.5 71.9404 38.5 71.9457C 38.5 71.9511 38.5 71.9564 38.5 71.9617C 38.5 71.967 38.5 71.9723 38.5 71.9776C 38.5 71.9828 38.5 71.9881 38.5 71.9934C 38.5 71.9986 38.5 72.0039 38.5 72.0091C 38.5 72.0144 38.5 72.0196 38.5 72.0248C 38.5 72.03 38.5 72.0352 38.5 72.0404C 38.5 72.0456 38.5 72.0508 38.5 72.056C 38.5 72.0612 38.5 72.0663 38.5 72.0715C 38.5 72.0767 38.5 72.0818 38.5 72.0869C 38.5 72.0921 38.5 72.0972 38.5 72.1023C 38.5 72.1074 38.5 72.1125 38.5 72.1176C 38.5 72.1227 38.5 72.1277 38.5 72.1328C 38.5 72.1379 38.5 72.1429 38.5 72.148C 38.5 72.153 38.5 72.1581 38.5 72.1631C 38.5 72.1681 38.5 72.1731 38.5 72.1781C 38.5 72.1831 38.5 72.1881 38.5 72.1931C 38.5 72.1981 38.5 72.203 38.5 72.208C 38.5 72.2129 38.5 72.2179 38.5 72.2228C 38.5 72.2277 38.5 72.2327 38.5 72.2376C 38.5 72.2425 38.5 72.2474 38.5 72.2523C 38.5 72.2572 38.5 72.262 38.5 72.2669C 38.5 72.2718 38.5 72.2766 38.5 72.2815C 38.5 72.2863 38.5 72.2912 38.5 72.296C 38.5 72.3008 38.5 72.3056 38.5 72.3104C 38.5 72.3152 38.5 72.32 38.5 72.3248C 38.5 72.3296 38.5 72.3343 38.5 72.3391C 38.5 72.3438 38.5 72.3486 38.5 72.3533C 38.5 72.358 38.5 72.3628 38.5 72.3675C 38.5 72.3722 38.5 72.3769 38.5 72.3816C 38.5 72.3863 38.5 72.3909 38.5 72.3956C 38.5 72.4003 38.5 72.4049 38.5 72.4096C 38.5 72.4142 38.5 72.4188 38.5 72.4235C 38.5 72.4281 38.5 72.4327 38.5 72.4373C 38.5 72.4419 38.5 72.4465 38.5 72.451C 38.5 72.4556 38.5 72.4602 38.5 72.4647C 38.5 72.4693 38.5 72.4738 38.5 72.4783C 38.5 72.4829 38.5 72.4874 38.5 72.4919C 38.5 72.4964 38.5 72.5009 38.5 72.5054C 38.5 72.5099 38.5 72.5143 38.5 72.5188C 38.5 72.5233 38.5 72.5277 38.5 72.5321C 38.5 72.5366 38.5 72.541 38.5 72.5454C 38.5 72.5498 38.5 72.5542 38.5 72.5586C 38.5 72.563 38.5 72.5674 38.5 72.5718C 38.5 72.5761 38.5 72.5805 38.5 72.5848C 38.5 72.5892 38.5 72.5935 38.5 72.5978C 38.5 72.6022 38.5 72.6065 38.5 72.6108C 38.5 72.6151 38.5 72.6194 38.5 72.6236C 38.5 72.6279 38.5 72.6322 38.5 72.6364C 38.5 72.6407 38.5 72.6449 38.5 72.6491C 38.5 72.6534 38.5 72.6576 38.5 72.6618C 38.5 72.666 38.5 72.6702 38.5 72.6744C 38.5 72.6786 38.5 72.6827 38.5 72.6869C 38.5 72.691 38.5 72.6952 38.5 72.6993C 38.5 72.7035 38.5 72.7076 38.5 72.7117C 38.5 72.7158 38.5 72.7199 38.5 72.724C 38.5 72.7281 38.5 72.7322 38.5 72.7362C 38.5 72.7403 38.5 72.7443 38.5 72.7484C 38.5 72.7524 38.5 72.7565 38.5 72.7605C 38.5 72.7645 38.5 72.7685 38.5 72.7725C 38.5 72.7765 38.5 72.7805 38.5 72.7844C 38.5 72.7884 38.5 72.7924 38.5 72.7963C 38.5 72.8003 38.5 72.8042 38.5 72.8081C 38.5 72.812 38.5 72.8159 38.5 72.8198C 38.5 72.8237 38.5 72.8276 38.5 72.8315C 38.5 72.8354 38.5 72.8392 38.5 72.8431C 38.5 72.8469 38.5 72.8508 38.5 72.8546C 38.5 72.8584 38.5 72.8623 38.5 72.8661C 38.5 72.8699 38.5 72.8737 38.5 72.8774C 38.5 72.8812 38.5 72.885 38.5 72.8887C 38.5 72.8925 38.5 72.8962 38.5 72.9C 38.5 72.9037 38.5 72.9074 38.5 72.9111C 38.5 72.9148 38.5 72.9185 38.5 72.9222C 38.5 72.9259 38.5 72.9296 38.5 72.9332C 38.5 72.9369 38.5 72.9405 38.5 72.9442C 38.5 72.9478 38.5 72.9514 38.5 72.955C 38.5 72.9586 38.5 72.9622 38.5 72.9658C 38.5 72.9694 38.5 72.973 38.5 72.9765C 38.5 72.9801 38.5 72.9837 38.5 72.9872C 38.5 72.9907 38.5 72.9942 38.5 72.9978C 38.5 73.0013 38.5 73.0048 38.5 73.0083C 38.5 73.0118 38.5 73.0152 38.5 73.0187C 38.5 73.0222 38.5 73.0256 38.5 73.029C 38.5 73.0325 38.5 73.0359 38.5 73.0393C 38.5 73.0427 38.5 73.0461 38.5 73.0495C 38.5 73.0529 38.5 73.0563 38.5 73.0597C 38.5 73.063 38.5 73.0664 38.5 73.0697C 38.5 73.0731 38.5 73.0764 38.5 73.0797C 38.5 73.083 38.5 73.0863 38.5 73.0896C 38.5 73.0929 38.5 73.0962 38.5 73.0995C 38.5 73.1027 38.5 73.106 38.5 73.1092C 38.5 73.1125 38.5 73.1157 38.5 73.1189C 38.5 73.1221 38.5 73.1253 38.5 73.1285C 38.5 73.1317 38.5 73.1349 38.5 73.1381C 38.5 73.1412 38.5 73.1444 38.5 73.1475C 38.5 73.1507 38.5 73.1538 38.5 73.1569C 38.5 73.16 38.5 73.1631 38.5 73.1662C 38.5 73.1693 38.5 73.1724 38.5 73.1755C 38.5 73.1785 38.5 73.1816 38.5 73.1846C 38.5 73.1877 38.5 73.1907 38.5 73.1937C 38.5 73.1967 38.5 73.1997 38.5 73.2027C 38.5 73.2057 38.5 73.2087 38.5 73.2117C 38.5 73.2146 38.5 73.2176 38.5 73.2205C 38.5 73.2235 38.5 73.2264 38.5 73.2293C 38.5 73.2322 38.5 73.2351 38.5 73.238C 38.5 73.2409 38.5 73.2438 38.5 73.2467C 38.5 73.2495 38.5 73.2524 38.5 73.2552C 38.5 73.258 38.5 73.2609 38.5 73.2637C 38.5 73.2665 38.5 73.2693 38.5 73.2721C 38.5 73.2749 38.5 73.2777 38.5 73.2804C 38.5 73.2832 38.5 73.2859 38.5 73.2887C 38.5 73.2914 38.5 73.2941 38.5 73.2968C 38.5 73.2996 38.5 73.3023 38.5 73.3049C 38.5 73.3076 38.5 73.3103 38.5 73.313C 38.5 73.3156 38.5 73.3183 38.5 73.3209C 38.5 73.3235 38.5 73.3262 38.5 73.3288C 38.5 73.3314 38.5 73.334 38.5 73.3366C 38.5 73.3391 38.5 73.3417 38.5 73.3443C 38.5 73.3468 38.5 73.3494 38.5 73.3519C 38.5 73.3544 38.5 73.357 38.5 73.3595C 38.5 73.362 38.5 73.3645 38.5 73.3669C 38.5 73.3694 38.5 73.3719 38.5 73.3743C 38.5 73.3768 38.5 73.3792 38.5 73.3817C 38.5 73.3841 38.5 73.3865 38.5 73.3889C 38.5 73.3913 38.5 73.3937 38.5 73.3961C 38.5 73.3984 38.5 73.4008 38.5 73.4032C 38.5 73.4055 38.5 73.4078 38.5 73.4102C 38.5 73.4125 38.5 73.4148 38.5 73.4171C 38.5 73.4194 38.5 73.4217 38.5 73.424C 38.5 73.4262 38.5 73.4285 38.5 73.4307C 38.5 73.433 38.5 73.4352 38.5 73.4374C 38.5 73.4396 38.5 73.4418 38.5 73.444C 38.5 73.4462 38.5 73.4484 38.5 73.4506C 38.5 73.4527 38.5 73.4549 38.5 73.457C 38.5 73.4592 38.5 73.4613 38.5 73.4634C 38.5 73.4655 38.5 73.4676 38.5 73.4697C 38.5 73.4718 38.5 73.4739 38.5 73.4759C 38.5 73.478 38.5 73.48 38.5 73.4821C 38.5 73.4841 38.5 73.4861 38.5 73.4881C 38.5 73.4901 38.5 73.4921 38.5 73.4941C 38.5 73.4961 38.5 73.498 38.5 73.5L 40.5 73.5C 40.5 73.498 40.5 73.4961 40.5 73.4941C 40.5 73.4921 40.5 73.4901 40.5 73.4881C 40.5 73.4861 40.5 73.4841 40.5 73.4821C 40.5 73.48 40.5 73.478 40.5 73.4759C 40.5 73.4739 40.5 73.4718 40.5 73.4697C 40.5 73.4676 40.5 73.4655 40.5 73.4634C 40.5 73.4613 40.5 73.4592 40.5 73.457C 40.5 73.4549 40.5 73.4527 40.5 73.4506C 40.5 73.4484 40.5 73.4462 40.5 73.444C 40.5 73.4418 40.5 73.4396 40.5 73.4374C 40.5 73.4352 40.5 73.433 40.5 73.4307C 40.5 73.4285 40.5 73.4262 40.5 73.424C 40.5 73.4217 40.5 73.4194 40.5 73.4171C 40.5 73.4148 40.5 73.4125 40.5 73.4102C 40.5 73.4078 40.5 73.4055 40.5 73.4032C 40.5 73.4008 40.5 73.3984 40.5 73.3961C 40.5 73.3937 40.5 73.3913 40.5 73.3889C 40.5 73.3865 40.5 73.3841 40.5 73.3817C 40.5 73.3792 40.5 73.3768 40.5 73.3743C 40.5 73.3719 40.5 73.3694 40.5 73.3669C 40.5 73.3645 40.5 73.362 40.5 73.3595C 40.5 73.357 40.5 73.3544 40.5 73.3519C 40.5 73.3494 40.5 73.3468 40.5 73.3443C 40.5 73.3417 40.5 73.3391 40.5 73.3366C 40.5 73.334 40.5 73.3314 40.5 73.3288C 40.5 73.3262 40.5 73.3235 40.5 73.3209C 40.5 73.3183 40.5 73.3156 40.5 73.313C 40.5 73.3103 40.5 73.3076 40.5 73.3049C 40.5 73.3023 40.5 73.2996 40.5 73.2968C 40.5 73.2941 40.5 73.2914 40.5 73.2887C 40.5 73.2859 40.5 73.2832 40.5 73.2804C 40.5 73.2777 40.5 73.2749 40.5 73.2721C 40.5 73.2693 40.5 73.2665 40.5 73.2637C 40.5 73.2609 40.5 73.258 40.5 73.2552C 40.5 73.2524 40.5 73.2495 40.5 73.2467C 40.5 73.2438 40.5 73.2409 40.5 73.238C 40.5 73.2351 40.5 73.2322 40.5 73.2293C 40.5 73.2264 40.5 73.2235 40.5 73.2205C 40.5 73.2176 40.5 73.2146 40.5 73.2117C 40.5 73.2087 40.5 73.2057 40.5 73.2027C 40.5 73.1997 40.5 73.1967 40.5 73.1937C 40.5 73.1907 40.5 73.1877 40.5 73.1846C 40.5 73.1816 40.5 73.1785 40.5 73.1755C 40.5 73.1724 40.5 73.1693 40.5 73.1662C 40.5 73.1631 40.5 73.16 40.5 73.1569C 40.5 73.1538 40.5 73.1507 40.5 73.1475C 40.5 73.1444 40.5 73.1412 40.5 73.1381C 40.5 73.1349 40.5 73.1317 40.5 73.1285C 40.5 73.1253 40.5 73.1221 40.5 73.1189C 40.5 73.1157 40.5 73.1125 40.5 73.1092C 40.5 73.106 40.5 73.1027 40.5 73.0995C 40.5 73.0962 40.5 73.0929 40.5 73.0896C 40.5 73.0863 40.5 73.083 40.5 73.0797C 40.5 73.0764 40.5 73.0731 40.5 73.0697C 40.5 73.0664 40.5 73.063 40.5 73.0597C 40.5 73.0563 40.5 73.0529 40.5 73.0495C 40.5 73.0461 40.5 73.0427 40.5 73.0393C 40.5 73.0359 40.5 73.0325 40.5 73.029C 40.5 73.0256 40.5 73.0222 40.5 73.0187C 40.5 73.0152 40.5 73.0118 40.5 73.0083C 40.5 73.0048 40.5 73.0013 40.5 72.9978C 40.5 72.9942 40.5 72.9907 40.5 72.9872C 40.5 72.9837 40.5 72.9801 40.5 72.9765C 40.5 72.973 40.5 72.9694 40.5 72.9658C 40.5 72.9622 40.5 72.9586 40.5 72.955C 40.5 72.9514 40.5 72.9478 40.5 72.9442C 40.5 72.9405 40.5 72.9369 40.5 72.9332C 40.5 72.9296 40.5 72.9259 40.5 72.9222C 40.5 72.9185 40.5 72.9148 40.5 72.9111C 40.5 72.9074 40.5 72.9037 40.5 72.9C 40.5 72.8962 40.5 72.8925 40.5 72.8887C 40.5 72.885 40.5 72.8812 40.5 72.8774C 40.5 72.8737 40.5 72.8699 40.5 72.8661C 40.5 72.8623 40.5 72.8584 40.5 72.8546C 40.5 72.8508 40.5 72.8469 40.5 72.8431C 40.5 72.8392 40.5 72.8354 40.5 72.8315C 40.5 72.8276 40.5 72.8237 40.5 72.8198C 40.5 72.8159 40.5 72.812 40.5 72.8081C 40.5 72.8042 40.5 72.8003 40.5 72.7963C 40.5 72.7924 40.5 72.7884 40.5 72.7844C 40.5 72.7805 40.5 72.7765 40.5 72.7725C 40.5 72.7685 40.5 72.7645 40.5 72.7605C 40.5 72.7565 40.5 72.7524 40.5 72.7484C 40.5 72.7443 40.5 72.7403 40.5 72.7362C 40.5 72.7322 40.5 72.7281 40.5 72.724C 40.5 72.7199 40.5 72.7158 40.5 72.7117C 40.5 72.7076 40.5 72.7035 40.5 72.6993C 40.5 72.6952 40.5 72.691 40.5 72.6869C 40.5 72.6827 40.5 72.6786 40.5 72.6744C 40.5 72.6702 40.5 72.666 40.5 72.6618C 40.5 72.6576 40.5 72.6534 40.5 72.6491C 40.5 72.6449 40.5 72.6407 40.5 72.6364C 40.5 72.6322 40.5 72.6279 40.5 72.6236C 40.5 72.6194 40.5 72.6151 40.5 72.6108C 40.5 72.6065 40.5 72.6022 40.5 72.5978C 40.5 72.5935 40.5 72.5892 40.5 72.5848C 40.5 72.5805 40.5 72.5761 40.5 72.5718C 40.5 72.5674 40.5 72.563 40.5 72.5586C 40.5 72.5542 40.5 72.5498 40.5 72.5454C 40.5 72.541 40.5 72.5366 40.5 72.5321C 40.5 72.5277 40.5 72.5233 40.5 72.5188C 40.5 72.5143 40.5 72.5099 40.5 72.5054C 40.5 72.5009 40.5 72.4964 40.5 72.4919C 40.5 72.4874 40.5 72.4829 40.5 72.4783C 40.5 72.4738 40.5 72.4693 40.5 72.4647C 40.5 72.4602 40.5 72.4556 40.5 72.451C 40.5 72.4465 40.5 72.4419 40.5 72.4373C 40.5 72.4327 40.5 72.4281 40.5 72.4235C 40.5 72.4188 40.5 72.4142 40.5 72.4096C 40.5 72.4049 40.5 72.4003 40.5 72.3956C 40.5 72.3909 40.5 72.3863 40.5 72.3816C 40.5 72.3769 40.5 72.3722 40.5 72.3675C 40.5 72.3628 40.5 72.358 40.5 72.3533C 40.5 72.3486 40.5 72.3438 40.5 72.3391C 40.5 72.3343 40.5 72.3296 40.5 72.3248C 40.5 72.32 40.5 72.3152 40.5 72.3104C 40.5 72.3056 40.5 72.3008 40.5 72.296C 40.5 72.2912 40.5 72.2863 40.5 72.2815C 40.5 72.2766 40.5 72.2718 40.5 72.2669C 40.5 72.262 40.5 72.2572 40.5 72.2523C 40.5 72.2474 40.5 72.2425 40.5 72.2376C 40.5 72.2327 40.5 72.2277 40.5 72.2228C 40.5 72.2179 40.5 72.2129 40.5 72.208C 40.5 72.203 40.5 72.1981 40.5 72.1931C 40.5 72.1881 40.5 72.1831 40.5 72.1781C 40.5 72.1731 40.5 72.1681 40.5 72.1631C 40.5 72.1581 40.5 72.153 40.5 72.148C 40.5 72.1429 40.5 72.1379 40.5 72.1328C 40.5 72.1277 40.5 72.1227 40.5 72.1176C 40.5 72.1125 40.5 72.1074 40.5 72.1023C 40.5 72.0972 40.5 72.0921 40.5 72.0869C 40.5 72.0818 40.5 72.0767 40.5 72.0715C 40.5 72.0663 40.5 72.0612 40.5 72.056C 40.5 72.0508 40.5 72.0456 40.5 72.0404C 40.5 72.0352 40.5 72.03 40.5 72.0248C 40.5 72.0196 40.5 72.0144 40.5 72.0091C 40.5 72.0039 40.5 71.9986 40.5 71.9934C 40.5 71.9881 40.5 71.9828 40.5 71.9776C 40.5 71.9723 40.5 71.967 40.5 71.9617C 40.5 71.9564 40.5 71.9511 40.5 71.9457C 40.5 71.9404 40.5 71.9351 40.5 71.9297C 40.5 71.9244 40.5 71.919 40.5 71.9136C 40.5 71.9083 40.5 71.9029 40.5 71.8975C 40.5 71.8921 40.5 71.8867 40.5 71.8813C 40.5 71.8759 40.5 71.8705 40.5 71.865C 40.5 71.8596 40.5 71.8542 40.5 71.8487C 40.5 71.8432 40.5 71.8378 40.5 71.8323C 40.5 71.8268 40.5 71.8213 40.5 71.8158C 40.5 71.8103 40.5 71.8048 40.5 71.7993C 40.5 71.7938 40.5 71.7883 40.5 71.7827C 40.5 71.7772 40.5 71.7716 40.5 71.7661C 40.5 71.7605 40.5 71.755 40.5 71.7494C 40.5 71.7438 40.5 71.7382 40.5 71.7326C 40.5 71.727 40.5 71.7214 40.5 71.7158C 40.5 71.7101 40.5 71.7045 40.5 71.6989C 40.5 71.6932 40.5 71.6876 40.5 71.6819C 40.5 71.6762 40.5 71.6705 40.5 71.6649C 40.5 71.6592 40.5 71.6535 40.5 71.6478C 40.5 71.6421 40.5 71.6363 40.5 71.6306C 40.5 71.6249 40.5 71.6192 40.5 71.6134C 40.5 71.6077 40.5 71.6019 40.5 71.5961C 40.5 71.5904 40.5 71.5846 40.5 71.5788C 40.5 71.573 40.5 71.5672 40.5 71.5614C 40.5 71.5556 40.5 71.5498 40.5 71.5439C 40.5 71.5381 40.5 71.5322 40.5 71.5264C 40.5 71.5205 40.5 71.5147 40.5 71.5088C 40.5 71.5029 40.5 71.4971 40.5 71.4912C 40.5 71.4853 40.5 71.4794 40.5 71.4734C 40.5 71.4675 40.5 71.4616 40.5 71.4557C 40.5 71.4497 40.5 71.4438 40.5 71.4379C 40.5 71.4319 40.5 71.4259 40.5 71.42C 40.5 71.414 40.5 71.408 40.5 71.402C 40.5 71.396 40.5 71.39 40.5 71.384C 40.5 71.378 40.5 71.3719 40.5 71.3659C 40.5 71.3599 40.5 71.3538 40.5 71.3478C 40.5 71.3417 40.5 71.3356 40.5 71.3296C 40.5 71.3235 40.5 71.3174 40.5 71.3113C 40.5 71.3052 40.5 71.2991 40.5 71.293C 40.5 71.2869 40.5 71.2808 40.5 71.2746C 40.5 71.2685 40.5 71.2623 40.5 71.2562C 40.5 71.25 40.5 71.2439 40.5 71.2377C 40.5 71.2315 40.5 71.2253 40.5 71.2191C 40.5 71.2129 40.5 71.2067 40.5 71.2005C 40.5 71.1943 40.5 71.1881 40.5 71.1818C 40.5 71.1756 40.5 71.1693 40.5 71.1631C 40.5 71.1568 40.5 71.1506 40.5 71.1443C 40.5 71.138 40.5 71.1317 40.5 71.1254C 40.5 71.1191 40.5 71.1128 40.5 71.1065C 40.5 71.1002 40.5 71.0939 40.5 71.0875C 40.5 71.0812 40.5 71.0749 40.5 71.0685C 40.5 71.0622 40.5 71.0558 40.5 71.0494C 40.5 71.0431 40.5 71.0367 40.5 71.0303C 40.5 71.0239 40.5 71.0175 40.5 71.0111C 40.5 71.0047 40.5 70.9982 40.5 70.9918C 40.5 70.9854 40.5 70.9789 40.5 70.9725C 40.5 70.966 40.5 70.9596 40.5 70.9531C 40.5 70.9466 40.5 70.9401 40.5 70.9336C 40.5 70.9271 40.5 70.9206 40.5 70.9141C 40.5 70.9076 40.5 70.9011 40.5 70.8946C 40.5 70.8881 40.5 70.8815 40.5 70.875C 40.5 70.8684 40.5 70.8619 40.5 70.8553C 40.5 70.8487 40.5 70.8421 40.5 70.8356C 40.5 70.829 40.5 70.8224 40.5 70.8158C 40.5 70.8092 40.5 70.8025 40.5 70.7959C 40.5 70.7893 40.5 70.7827 40.5 70.776C 40.5 70.7694 40.5 70.7627 40.5 70.7561C 40.5 70.7494 40.5 70.7427 40.5 70.736C 40.5 70.7294 40.5 70.7227 40.5 70.716C 40.5 70.7093 40.5 70.7025 40.5 70.6958C 40.5 70.6891 40.5 70.6824 40.5 70.6756C 40.5 70.6689 40.5 70.6621 40.5 70.6554C 40.5 70.6486 40.5 70.6419 40.5 70.6351C 40.5 70.6283 40.5 70.6215 40.5 70.6147C 40.5 70.6079 40.5 70.6011 40.5 70.5943C 40.5 70.5875 40.5 70.5807 40.5 70.5738C 40.5 70.567 40.5 70.5602 40.5 70.5533C 40.5 70.5465 40.5 70.5396 40.5 70.5327C 40.5 70.5259 40.5 70.519 40.5 70.5121C 40.5 70.5052 40.5 70.4983 40.5 70.4914C 40.5 70.4845 40.5 70.4776 40.5 70.4706C 40.5 70.4637 40.5 70.4568 40.5 70.4498C 40.5 70.4429 40.5 70.4359 40.5 70.429C 40.5 70.422 40.5 70.415 40.5 70.4081C 40.5 70.4011 40.5 70.3941 40.5 70.3871C 40.5 70.3801 40.5 70.3731 40.5 70.3661C 40.5 70.359 40.5 70.352 40.5 70.345C 40.5 70.3379 40.5 70.3309 40.5 70.3238C 40.5 70.3168 40.5 70.3097 40.5 70.3026C 40.5 70.2956 40.5 70.2885 40.5 70.2814C 40.5 70.2743 40.5 70.2672 40.5 70.2601C 40.5 70.253 40.5 70.2459 40.5 70.2387C 40.5 70.2316 40.5 70.2245 40.5 70.2173C 40.5 70.2102 40.5 70.203 40.5 70.1959C 40.5 70.1887 40.5 70.1815 40.5 70.1744C 40.5 70.1672 40.5 70.16 40.5 70.1528C 40.5 70.1456 40.5 70.1384 40.5 70.1311C 40.5 70.1239 40.5 70.1167 40.5 70.1095C 40.5 70.1022 40.5 70.095 40.5 70.0877C 40.5 70.0805 40.5 70.0732 40.5 70.066C 40.5 70.0587 40.5 70.0514 40.5 70.0441C 40.5 70.0368 40.5 70.0295 40.5 70.0222C 40.5 70.0149 40.5 70.0076 40.5 70.0003C 40.5 69.993 40.5 69.9856 40.5 69.9783C 40.5 69.9709 40.5 69.9636 40.5 69.9562C 40.5 69.9489 40.5 69.9415 40.5 69.9341C 40.5 69.9267 40.5 69.9193 40.5 69.912C 40.5 69.9046 40.5 69.8972 40.5 69.8897C 40.5 69.8823 40.5 69.8749 40.5 69.8675C 40.5 69.8601 40.5 69.8526 40.5 69.8452C 40.5 69.8377 40.5 69.8303 40.5 69.8228C 40.5 69.8153 40.5 69.8079 40.5 69.8004C 40.5 69.7929 40.5 69.7854 40.5 69.7779C 40.5 69.7704 40.5 69.7629 40.5 69.7554C 40.5 69.7479 40.5 69.7403 40.5 69.7328C 40.5 69.7253 40.5 69.7177 40.5 69.7102C 40.5 69.7026 40.5 69.6951 40.5 69.6875C 40.5 69.6799 40.5 69.6724 40.5 69.6648C 40.5 69.6572 40.5 69.6496 40.5 69.642C 40.5 69.6344 40.5 69.6268 40.5 69.6192C 40.5 69.6115 40.5 69.6039 40.5 69.5963C 40.5 69.5886 40.5 69.581 40.5 69.5733C 40.5 69.5657 40.5 69.558 40.5 69.5503C 40.5 69.5427 40.5 69.535 40.5 69.5273C 40.5 69.5196 40.5 69.5119 40.5 69.5042C 40.5 69.4965 40.5 69.4888 40.5 69.4811C 40.5 69.4734 40.5 69.4656 40.5 69.4579C 40.5 69.4502 40.5 69.4424 40.5 69.4347C 40.5 69.4269 40.5 69.4191 40.5 69.4114C 40.5 69.4036 40.5 69.3958 40.5 69.388C 40.5 69.3802 40.5 69.3724 40.5 69.3646C 40.5 69.3568 40.5 69.349 40.5 69.3412C 40.5 69.3334 40.5 69.3255 40.5 69.3177C 40.5 69.3099 40.5 69.302 40.5 69.2942C 40.5 69.2863 40.5 69.2784 40.5 69.2706C 40.5 69.2627 40.5 69.2548 40.5 69.2469C 40.5 69.2391 40.5 69.2312 40.5 69.2233C 40.5 69.2153 40.5 69.2074 40.5 69.1995C 40.5 69.1916 40.5 69.1837 40.5 69.1757C 40.5 69.1678 40.5 69.1598 40.5 69.1519C 40.5 69.1439 40.5 69.136 40.5 69.128C 40.5 69.12 40.5 69.1121 40.5 69.1041C 40.5 69.0961 40.5 69.0881 40.5 69.0801C 40.5 69.0721 40.5 69.0641 40.5 69.0561C 40.5 69.048 40.5 69.04 40.5 69.032C 40.5 69.0239 40.5 69.0159 40.5 69.0079C 40.5 68.9998 40.5 68.9917 40.5 68.9837C 40.5 68.9756 40.5 68.9675 40.5 68.9594C 40.5 68.9514 40.5 68.9433 40.5 68.9352C 40.5 68.9271 40.5 68.919 40.5 68.9109C 40.5 68.9027 40.5 68.8946 40.5 68.8865C 40.5 68.8784 40.5 68.8702 40.5 68.8621C 40.5 68.8539 40.5 68.8458 40.5 68.8376C 40.5 68.8295 40.5 68.8213 40.5 68.8131C 40.5 68.8049 40.5 68.7967 40.5 68.7885C 40.5 68.7803 40.5 68.7721 40.5 68.7639C 40.5 68.7557 40.5 68.7475 40.5 68.7393C 40.5 68.7311 40.5 68.7228 40.5 68.7146C 40.5 68.7064 40.5 68.6981 40.5 68.6898C 40.5 68.6816 40.5 68.6733 40.5 68.6651C 40.5 68.6568 40.5 68.6485 40.5 68.6402C 40.5 68.6319 40.5 68.6236 40.5 68.6153C 40.5 68.607 40.5 68.5987 40.5 68.5904C 40.5 68.5821 40.5 68.5737 40.5 68.5654C 40.5 68.5571 40.5 68.5487 40.5 68.5404C 40.5 68.532 40.5 68.5237 40.5 68.5153C 40.5 68.507 40.5 68.4986 40.5 68.4902C 40.5 68.4818 40.5 68.4734 40.5 68.465C 40.5 68.4566 40.5 68.4482 40.5 68.4398C 40.5 68.4314 40.5 68.423 40.5 68.4146C 40.5 68.4062 40.5 68.3977 40.5 68.3893C 40.5 68.3808 40.5 68.3724 40.5 68.3639C 40.5 68.3555 40.5 68.347 40.5 68.3385C 40.5 68.3301 40.5 68.3216 40.5 68.3131C 40.5 68.3046 40.5 68.2961 40.5 68.2876C 40.5 68.2791 40.5 68.2706 40.5 68.2621C 40.5 68.2536 40.5 68.2451 40.5 68.2365C 40.5 68.228 40.5 68.2195 40.5 68.2109C 40.5 68.2024 40.5 68.1938 40.5 68.1852C 40.5 68.1767 40.5 68.1681 40.5 68.1595C 40.5 68.151 40.5 68.1424 40.5 68.1338C 40.5 68.1252 40.5 68.1166 40.5 68.108C 40.5 68.0994 40.5 68.0908 40.5 68.0822C 40.5 68.0735 40.5 68.0649 40.5 68.0563C 40.5 68.0476 40.5 68.039 40.5 68.0303C 40.5 68.0217 40.5 68.013 40.5 68.0044C 40.5 67.9957 40.5 67.987 40.5 67.9784C 40.5 67.9697 40.5 67.961 40.5 67.9523C 40.5 67.9436 40.5 67.9349 40.5 67.9262C 40.5 67.9175 40.5 67.9088 40.5 67.9001C 40.5 67.8913 40.5 67.8826 40.5 67.8739C 40.5 67.8651 40.5 67.8564 40.5 67.8476C 40.5 67.8389 40.5 67.8301 40.5 67.8214C 40.5 67.8126 40.5 67.8038 40.5 67.795C 40.5 67.7863 40.5 67.7775 40.5 67.7687C 40.5 67.7599 40.5 67.7511 40.5 67.7423C 40.5 67.7335 40.5 67.7247 40.5 67.7158C 40.5 67.707 40.5 67.6982 40.5 67.6893C 40.5 67.6805 40.5 67.6717 40.5 67.6628C 40.5 67.654 40.5 67.6451 40.5 67.6362C 40.5 67.6274 40.5 67.6185 40.5 67.6096C 40.5 67.6007 40.5 67.5919 40.5 67.583C 40.5 67.5741 40.5 67.5652 40.5 67.5563C 40.5 67.5474 40.5 67.5385 40.5 67.5295C 40.5 67.5206 40.5 67.5117 40.5 67.5027C 40.5 67.4938 40.5 67.4849 40.5 67.4759C 40.5 67.467 40.5 67.458 40.5 67.4491C 40.5 67.4401 40.5 67.4311 40.5 67.4221C 40.5 67.4132 40.5 67.4042 40.5 67.3952C 40.5 67.3862 40.5 67.3772 40.5 67.3682C 40.5 67.3592 40.5 67.3502 40.5 67.3412C 40.5 67.3322 40.5 67.3231 40.5 67.3141C 40.5 67.3051 40.5 67.296 40.5 67.287C 40.5 67.2779 40.5 67.2689 40.5 67.2598C 40.5 67.2508 40.5 67.2417 40.5 67.2326C 40.5 67.2236 40.5 67.2145 40.5 67.2054C 40.5 67.1963 40.5 67.1872 40.5 67.1781C 40.5 67.169 40.5 67.1599 40.5 67.1508C 40.5 67.1417 40.5 67.1326 40.5 67.1235C 40.5 67.1143 40.5 67.1052 40.5 67.0961C 40.5 67.0869 40.5 67.0778 40.5 67.0686C 40.5 67.0595 40.5 67.0503 40.5 67.0411C 40.5 67.032 40.5 67.0228 40.5 67.0136C 40.5 67.0044 40.5 66.9953 40.5 66.9861C 40.5 66.9769 40.5 66.9677 40.5 66.9585C 40.5 66.9493 40.5 66.9401 40.5 66.9308C 40.5 66.9216 40.5 66.9124 40.5 66.9032C 40.5 66.8939 40.5 66.8847 40.5 66.8755C 40.5 66.8662 40.5 66.857 40.5 66.8477C 40.5 66.8384 40.5 66.8292 40.5 66.8199C 40.5 66.8106 40.5 66.8014 40.5 66.7921C 40.5 66.7828 40.5 66.7735 40.5 66.7642C 40.5 66.7549 40.5 66.7456 40.5 66.7363C 40.5 66.727 40.5 66.7177 40.5 66.7084C 40.5 66.699 40.5 66.6897 40.5 66.6804C 40.5 66.671 40.5 66.6617 40.5 66.6524C 40.5 66.643 40.5 66.6337 40.5 66.6243C 40.5 66.6149 40.5 66.6056 40.5 66.5962C 40.5 66.5868 40.5 66.5774 40.5 66.5681C 40.5 66.5587 40.5 66.5493 40.5 66.5399C 40.5 66.5305 40.5 66.5211 40.5 66.5117C 40.5 66.5023 40.5 66.4928 40.5 66.4834C 40.5 66.474 40.5 66.4646 40.5 66.4551C 40.5 66.4457 40.5 66.4362 40.5 66.4268C 40.5 66.4174 40.5 66.4079 40.5 66.3984C 40.5 66.389 40.5 66.3795 40.5 66.37C 40.5 66.3606 40.5 66.3511 40.5 66.3416C 40.5 66.3321 40.5 66.3226 40.5 66.3131C 40.5 66.3036 40.5 66.2941 40.5 66.2846C 40.5 66.2751 40.5 66.2656 40.5 66.2561C 40.5 66.2465 40.5 66.237 40.5 66.2275C 40.5 66.2179 40.5 66.2084 40.5 66.1989C 40.5 66.1893 40.5 66.1798 40.5 66.1702C 40.5 66.1606 40.5 66.1511 40.5 66.1415C 40.5 66.1319 40.5 66.1224 40.5 66.1128C 40.5 66.1032 40.5 66.0936 40.5 66.084C 40.5 66.0744 40.5 66.0648 40.5 66.0552C 40.5 66.0456 40.5 66.036 40.5 66.0264C 40.5 66.0168 40.5 66.0071 40.5 65.9975C 40.5 65.9879 40.5 65.9782 40.5 65.9686C 40.5 65.959 40.5 65.9493 40.5 65.9397C 40.5 65.93 40.5 65.9203 40.5 65.9107C 40.5 65.901 40.5 65.8913 40.5 65.8817C 40.5 65.872 40.5 65.8623 40.5 65.8526C 40.5 65.8429 40.5 65.8332 40.5 65.8235C 40.5 65.8138 40.5 65.8041 40.5 65.7944C 40.5 65.7847 40.5 65.775 40.5 65.7652C 40.5 65.7555 40.5 65.7458 40.5 65.7361C 40.5 65.7263 40.5 65.7166 40.5 65.7068C 40.5 65.6971 40.5 65.6873 40.5 65.6776C 40.5 65.6678 40.5 65.6581 40.5 65.6483C 40.5 65.6385 40.5 65.6287 40.5 65.6189C 40.5 65.6092 40.5 65.5994 40.5 65.5896C 40.5 65.5798 40.5 65.57 40.5 65.5602C 40.5 65.5504 40.5 65.5406 40.5 65.5308C 40.5 65.521 40.5 65.5111 40.5 65.5013C 40.5 65.4915 40.5 65.4816 40.5 65.4718C 40.5 65.462 40.5 65.4521 40.5 65.4423C 40.5 65.4324 40.5 65.4226 40.5 65.4127C 40.5 65.4028 40.5 65.393 40.5 65.3831C 40.5 65.3732 40.5 65.3634 40.5 65.3535C 40.5 65.3436 40.5 65.3337 40.5 65.3238C 40.5 65.3139 40.5 65.304 40.5 65.2941C 40.5 65.2842 40.5 65.2743 40.5 65.2644C 40.5 65.2545 40.5 65.2445 40.5 65.2346C 40.5 65.2247 40.5 65.2148 40.5 65.2048C 40.5 65.1949 40.5 65.1849 40.5 65.175C 40.5 65.165 40.5 65.1551 40.5 65.1451C 40.5 65.1352 40.5 65.1252 40.5 65.1152C 40.5 65.1053 40.5 65.0953 40.5 65.0853C 40.5 65.0753 40.5 65.0653 40.5 65.0554C 40.5 65.0454 40.5 65.0354 40.5 65.0254C 40.5 65.0154 40.5 65.0054 40.5 64.9953C 40.5 64.9853 40.5 64.9753 40.5 64.9653C 40.5 64.9553 40.5 64.9452 40.5 64.9352C 40.5 64.9252 40.5 64.9151 40.5 64.9051C 40.5 64.895 40.5 64.885 40.5 64.8749C 40.5 64.8649 40.5 64.8548 40.5 64.8448C 40.5 64.8347 40.5 64.8246 40.5 64.8146C 40.5 64.8045 40.5 64.7944 40.5 64.7843C 40.5 64.7742 40.5 64.7641 40.5 64.754C 40.5 64.7439 40.5 64.7338 40.5 64.7237C 40.5 64.7136 40.5 64.7035 40.5 64.6934C 40.5 64.6833 40.5 64.6732 40.5 64.663C 40.5 64.6529 40.5 64.6428 40.5 64.6326C 40.5 64.6225 40.5 64.6124 40.5 64.6022C 40.5 64.5921 40.5 64.5819 40.5 64.5717C 40.5 64.5616 40.5 64.5514 40.5 64.5413C 40.5 64.5311 40.5 64.5209 40.5 64.5107C 40.5 64.5006 40.5 64.4904 40.5 64.4802C 40.5 64.47 40.5 64.4598 40.5 64.4496C 40.5 64.4394 40.5 64.4292 40.5 64.419C 40.5 64.4088 40.5 64.3986 40.5 64.3884C 40.5 64.3782 40.5 64.3679 40.5 64.3577C 40.5 64.3475 40.5 64.3372 40.5 64.327C 40.5 64.3168 40.5 64.3065 40.5 64.2963C 40.5 64.286 40.5 64.2758 40.5 64.2655C 40.5 64.2553 40.5 64.245 40.5 64.2347C 40.5 64.2245 40.5 64.2142 40.5 64.2039C 40.5 64.1937 40.5 64.1834 40.5 64.1731C 40.5 64.1628 40.5 64.1525 40.5 64.1422C 40.5 64.1319 40.5 64.1216 40.5 64.1113C 40.5 64.101 40.5 64.0907 40.5 64.0804C 40.5 64.0701 40.5 64.0598 40.5 64.0494C 40.5 64.0391 40.5 64.0288 40.5 64.0184C 40.5 64.0081 40.5 63.9978 40.5 63.9874C 40.5 63.9771 40.5 63.9667 40.5 63.9564C 40.5 63.946 40.5 63.9357 40.5 63.9253C 40.5 63.915 40.5 63.9046 40.5 63.8942C 40.5 63.8839 40.5 63.8735 40.5 63.8631C 40.5 63.8527 40.5 63.8423 40.5 63.8319C 40.5 63.8216 40.5 63.8112 40.5 63.8008C 40.5 63.7904 40.5 63.78 40.5 63.7696C 40.5 63.7592 40.5 63.7487 40.5 63.7383C 40.5 63.7279 40.5 63.7175 40.5 63.7071C 40.5 63.6966 40.5 63.6862 40.5 63.6758C 40.5 63.6653 40.5 63.6549 40.5 63.6445C 40.5 63.634 40.5 63.6236 40.5 63.6131C 40.5 63.6027 40.5 63.5922 40.5 63.5817C 40.5 63.5713 40.5 63.5608 40.5 63.5503C 40.5 63.5399 40.5 63.5294 40.5 63.5189C 40.5 63.5084 40.5 63.498 40.5 63.4875C 40.5 63.477 40.5 63.4665 40.5 63.456C 40.5 63.4455 40.5 63.435 40.5 63.4245C 40.5 63.414 40.5 63.4035 40.5 63.393C 40.5 63.3825 40.5 63.3719 40.5 63.3614C 40.5 63.3509 40.5 63.3404 40.5 63.3298C 40.5 63.3193 40.5 63.3088 40.5 63.2982C 40.5 63.2877 40.5 63.2771 40.5 63.2666C 40.5 63.256 40.5 63.2455 40.5 63.2349C 40.5 63.2244 40.5 63.2138 40.5 63.2032C 40.5 63.1927 40.5 63.1821 40.5 63.1715C 40.5 63.161 40.5 63.1504 40.5 63.1398C 40.5 63.1292 40.5 63.1186 40.5 63.108C 40.5 63.0975 40.5 63.0869 40.5 63.0763C 40.5 63.0657 40.5 63.0551 40.5 63.0445C 40.5 63.0338 40.5 63.0232 40.5 63.0126C 40.5 63.002 40.5 62.9914 40.5 62.9808C 40.5 62.9701 40.5 62.9595 40.5 62.9489C 40.5 62.9382 40.5 62.9276 40.5 62.917C 40.5 62.9063 40.5 62.8957 40.5 62.885C 40.5 62.8744 40.5 62.8637 40.5 62.8531C 40.5 62.8424 40.5 62.8318 40.5 62.8211C 40.5 62.8104 40.5 62.7998 40.5 62.7891C 40.5 62.7784 40.5 62.7677 40.5 62.7571C 40.5 62.7464 40.5 62.7357 40.5 62.725C 40.5 62.7143 40.5 62.7036 40.5 62.6929C 40.5 62.6822 40.5 62.6715 40.5 62.6608C 40.5 62.6501 40.5 62.6394 40.5 62.6287C 40.5 62.618 40.5 62.6073 40.5 62.5966C 40.5 62.5859 40.5 62.5751 40.5 62.5644C 40.5 62.5537 40.5 62.5429 40.5 62.5322C 40.5 62.5215 40.5 62.5107 40.5 62.5L 38.5 62.5ZM 3.5 6L 0 6L 0 8L 3.5 8L 3.5 6ZM -1 7L -1 68.5L 1 68.5L 1 7L -1 7ZM 0 69.5L 30.5 69.5L 30.5 67.5L 0 67.5L 0 69.5ZM 30.5 69.5C 32.0621 69.5 34.1295 69.4491 35.8229 69.9857C 36.6491 70.2475 37.3055 70.6272 37.7547 71.154C 38.1896 71.6641 38.5 72.393 38.5 73.5L 40.5 73.5C 40.5 71.9835 40.0604 70.7757 39.2766 69.8564C 38.507 68.9538 37.4759 68.4115 36.4271 68.0791C 34.3705 67.4275 31.9379 67.5 30.5 67.5L 30.5 69.5ZM 38.5 12L 38.5 22L 40.5 22L 40.5 12L 38.5 12Z" transform="translate(18041 26709)" fill="#A7A9B5"></path>
            </g>
            <g id="PDF">
                <path d="M 3.52441 12.2451L 3.52441 17L 1.30078 17L 1.30078 4.20312L 6.19629 4.20312C 7.62598 4.20312 8.75977 4.5752 9.59766 5.31934C 10.4414 6.06348 10.8633 7.04785 10.8633 8.27246C 10.8633 9.52637 10.4502 10.502 9.62402 11.1992C 8.80371 11.8965 7.65234 12.2451 6.16992 12.2451L 3.52441 12.2451ZM 3.52441 10.4609L 6.19629 10.4609C 6.9873 10.4609 7.59082 10.2764 8.00684 9.90723C 8.42285 9.53223 8.63086 8.99316 8.63086 8.29004C 8.63086 7.59863 8.41992 7.04785 7.99805 6.6377C 7.57617 6.22168 6.99609 6.00781 6.25781 5.99609L 3.52441 5.99609L 3.52441 10.4609ZM 12.8145 17L 12.8145 4.20312L 16.5938 4.20312C 17.7246 4.20312 18.7266 4.45508 19.5996 4.95898C 20.4785 5.46289 21.1582 6.17773 21.6387 7.10352C 22.1191 8.0293 22.3594 9.08984 22.3594 10.2852L 22.3594 10.9268C 22.3594 12.1396 22.1162 13.2061 21.6299 14.126C 21.1494 15.0459 20.4609 15.7549 19.5645 16.2529C 18.6738 16.751 17.6514 17 16.4971 17L 12.8145 17ZM 15.0381 5.99609L 15.0381 15.2246L 16.4883 15.2246C 17.6543 15.2246 18.5479 14.8613 19.1689 14.1348C 19.7959 13.4023 20.1152 12.3535 20.127 10.9883L 20.127 10.2764C 20.127 8.8877 19.8252 7.82715 19.2217 7.09473C 18.6182 6.3623 17.7422 5.99609 16.5938 5.99609L 15.0381 5.99609ZM 31.9482 11.5771L 26.7979 11.5771L 26.7979 17L 24.5742 17L 24.5742 4.20312L 32.7041 4.20312L 32.7041 5.99609L 26.7979 5.99609L 26.7979 9.80176L 31.9482 9.80176L 31.9482 11.5771Z" transform="translate(18064 26737)" fill="#A7A9B5"></path>
            </g>
            <g id="Vector 10">
                <path d="M 0 1L 27.5 1L 27.5 -1L 0 -1L 0 1Z" transform="translate(18041 26770.5)" fill="#A7A9B5"></path>
            </g>
        </g>
    </g>
</svg>
