<svg width="50" height="34" viewBox="0 0 50 34" version="1.1" xmlns="http://www.w3.org/2000/svg" xmlns:xlink="http://www.w3.org/1999/xlink">
    <title>right-aroow</title>
    <desc>Created using Figma</desc>
    <g id="Canvas" transform="translate(-21629 -26742)">
        <g id="right-aroow" opacity="0.22">
            <g id="Vector">
                <path d="M 16.3103 0.511359C 17.0151 -0.170453 18.1248 -0.170453 18.8297 0.511359C 19.5108 1.17014 19.5108 2.26656 18.8297 2.92381L 6.05458 15.2809L 48.2108 15.2809C 49.1935 15.2809 50 16.0364 50 16.9869C 50 17.9375 49.1935 18.7176 48.2108 18.7176L 6.05458 18.7176L 18.8297 31.0516C 19.5108 31.7334 19.5108 32.8314 18.8297 33.4886C 18.1248 34.1704 17.0151 34.1704 16.3103 33.4886L 0.510799 18.2062C -0.170266 17.5474 -0.170266 16.451 0.510799 15.7938L 16.3103 0.511359Z" transform="matrix(-1 0 0 1 21679 26742)" fill="#FFFFFF"></path>
            </g>
        </g>
    </g>
</svg>
