<svg width="117" height="117" viewBox="0 0 117 117" version="1.1" xmlns="http://www.w3.org/2000/svg" xmlns:xlink="http://www.w3.org/1999/xlink">
<title>sale</title>
<desc>Created using Figma</desc>
<g id="Canvas" transform="translate(-28403 -26653)">
<g id="sale">
<g id="Ellipse">
<use xlink:href="#path0_fill" transform="translate(28403 26653)" fill="#ED5353"/>
</g>
<g id="Ellipse">
<mask id="mask0_outline_ins">
<use xlink:href="#path1_fill" fill="white" transform="translate(28414.7 26663.5)"/>
</mask>
<g mask="url(#mask0_outline_ins)">
<use xlink:href="#path2_stroke_2x" transform="translate(28414.7 26663.5)" fill="#FAA7A7"/>
</g>
</g>
<g id="25%">
<use xlink:href="#path3_fill" transform="translate(28425.2 26693.9)" fill="#FFFFFF"/>
</g>
</g>
</g>
<defs>
<path id="path0_fill" d="M 117 58.5C 117 90.8087 90.8087 117 58.5 117C 26.1913 117 0 90.8087 0 58.5C 0 26.1913 26.1913 0 58.5 0C 90.8087 0 117 26.1913 117 58.5Z"/>
<path id="path1_fill" d="M 94.77 47.385C 94.77 73.555 73.555 94.77 47.385 94.77C 21.215 94.77 0 73.555 0 47.385C 0 21.215 21.215 0 47.385 0C 73.555 0 94.77 21.215 94.77 47.385Z"/>
<path id="path2_stroke_2x" d="M 93.77 47.385C 93.77 73.0027 73.0027 93.77 47.385 93.77L 47.385 95.77C 74.1073 95.77 95.77 74.1073 95.77 47.385L 93.77 47.385ZM 47.385 93.77C 21.7673 93.77 1 73.0027 1 47.385L -1 47.385C -1 74.1073 20.6627 95.77 47.385 95.77L 47.385 93.77ZM 1 47.385C 1 21.7673 21.7673 1 47.385 1L 47.385 -1C 20.6627 -1 -1 20.6627 -1 47.385L 1 47.385ZM 47.385 1C 73.0027 1 93.77 21.7673 93.77 47.385L 95.77 47.385C 95.77 20.6627 74.1073 -1 47.385 -1L 47.385 1Z"/>
<path id="path3_fill" d="M 18.0431 7.532C 18.9764 7.532 19.8304 7.672 20.6051 7.952C 21.3798 8.22267 22.0424 8.61 22.5931 9.114C 23.1438 9.618 23.5731 10.2247 23.8811 10.934C 24.1891 11.6433 24.3431 12.432 24.3431 13.3C 24.3431 14.0467 24.2311 14.7373 24.0071 15.372C 23.7924 16.0067 23.4984 16.6133 23.1251 17.192C 22.7611 17.7707 22.3318 18.3307 21.8371 18.872C 21.3424 19.4133 20.8244 19.964 20.2831 20.524L 15.7051 25.186C 16.1531 25.0553 16.5918 24.9573 17.0211 24.892C 17.4598 24.8173 17.8751 24.78 18.2671 24.78L 23.4611 24.78C 23.8344 24.78 24.1284 24.8873 24.3431 25.102C 24.5671 25.3073 24.6791 25.5827 24.6791 25.928L 24.6791 28L 10.7911 28L 10.7911 26.852C 10.7911 26.6187 10.8378 26.376 10.9311 26.124C 11.0338 25.8627 11.1924 25.6293 11.4071 25.424L 17.5531 19.264C 18.0664 18.7413 18.5238 18.242 18.9251 17.766C 19.3358 17.29 19.6764 16.8187 19.9471 16.352C 20.2178 15.8853 20.4231 15.414 20.5631 14.938C 20.7124 14.4527 20.7871 13.944 20.7871 13.412C 20.7871 12.9267 20.7171 12.502 20.5771 12.138C 20.4371 11.7647 20.2364 11.452 19.9751 11.2C 19.7231 10.948 19.4151 10.7613 19.0511 10.64C 18.6964 10.5093 18.2951 10.444 17.8471 10.444C 17.4364 10.444 17.0538 10.5047 16.6991 10.626C 16.3538 10.738 16.0458 10.9013 15.7751 11.116C 15.5044 11.3213 15.2758 11.564 15.0891 11.844C 14.9024 12.124 14.7624 12.432 14.6691 12.768C 14.5104 13.1973 14.3051 13.482 14.0531 13.622C 13.8011 13.762 13.4371 13.7947 12.9611 13.72L 11.1411 13.398C 11.2811 12.4273 11.5518 11.578 11.9531 10.85C 12.3544 10.1127 12.8538 9.50133 13.4511 9.016C 14.0578 8.52133 14.7484 8.15267 15.5231 7.91C 16.3071 7.658 17.1471 7.532 18.0431 7.532ZM 39.9553 9.226C 39.9553 9.72067 39.8013 10.122 39.4933 10.43C 39.1853 10.738 38.6626 10.892 37.9253 10.892L 32.3673 10.892L 31.6393 15.12C 32.554 14.9333 33.3846 14.84 34.1313 14.84C 35.1953 14.84 36.1333 14.9987 36.9453 15.316C 37.7573 15.6333 38.4386 16.072 38.9893 16.632C 39.54 17.192 39.9553 17.85 40.2353 18.606C 40.5153 19.3527 40.6553 20.16 40.6553 21.028C 40.6553 22.1013 40.464 23.0813 40.0813 23.968C 39.708 24.8547 39.1853 25.6153 38.5133 26.25C 37.8413 26.8753 37.0433 27.3607 36.1193 27.706C 35.2046 28.0513 34.206 28.224 33.1233 28.224C 32.4886 28.224 31.8866 28.1587 31.3173 28.028C 30.748 27.8973 30.2113 27.7247 29.7073 27.51C 29.2126 27.286 28.7506 27.034 28.3213 26.754C 27.9013 26.4647 27.5233 26.1613 27.1873 25.844L 28.2513 24.374C 28.4753 24.0567 28.7693 23.898 29.1333 23.898C 29.3666 23.898 29.6046 23.9727 29.8473 24.122C 30.09 24.2713 30.3653 24.4347 30.6733 24.612C 30.9906 24.7893 31.3593 24.9527 31.7793 25.102C 32.2086 25.2513 32.722 25.326 33.3193 25.326C 33.954 25.326 34.514 25.2233 34.9993 25.018C 35.4846 24.8127 35.886 24.528 36.2033 24.164C 36.53 23.7907 36.7726 23.352 36.9313 22.848C 37.0993 22.3347 37.1833 21.7793 37.1833 21.182C 37.1833 20.0807 36.8613 19.222 36.2173 18.606C 35.5826 17.9807 34.64 17.668 33.3893 17.668C 32.428 17.668 31.4433 17.8453 30.4353 18.2L 28.2793 17.584L 29.9593 7.756L 39.9553 7.756L 39.9553 9.226ZM 52.6415 12.656C 52.6415 13.4213 52.5108 14.112 52.2495 14.728C 51.9975 15.344 51.6568 15.8713 51.2275 16.31C 50.7981 16.7393 50.2988 17.0707 49.7295 17.304C 49.1601 17.5373 48.5675 17.654 47.9515 17.654C 47.2795 17.654 46.6588 17.5373 46.0895 17.304C 45.5201 17.0707 45.0255 16.7393 44.6055 16.31C 44.1948 15.8713 43.8728 15.344 43.6395 14.728C 43.4061 14.112 43.2895 13.4213 43.2895 12.656C 43.2895 11.872 43.4061 11.1627 43.6395 10.528C 43.8728 9.89333 44.1948 9.35667 44.6055 8.918C 45.0255 8.47933 45.5201 8.14333 46.0895 7.91C 46.6588 7.66733 47.2795 7.546 47.9515 7.546C 48.6235 7.546 49.2441 7.66733 49.8135 7.91C 50.3922 8.14333 50.8915 8.47933 51.3115 8.918C 51.7315 9.35667 52.0581 9.89333 52.2915 10.528C 52.5248 11.1627 52.6415 11.872 52.6415 12.656ZM 49.9815 12.656C 49.9815 12.1147 49.9255 11.662 49.8135 11.298C 49.7108 10.934 49.5661 10.64 49.3795 10.416C 49.2021 10.192 48.9875 10.0333 48.7355 9.94C 48.4928 9.83733 48.2315 9.786 47.9515 9.786C 47.6715 9.786 47.4101 9.83733 47.1675 9.94C 46.9248 10.0333 46.7148 10.192 46.5375 10.416C 46.3695 10.64 46.2341 10.934 46.1315 11.298C 46.0288 11.662 45.9775 12.1147 45.9775 12.656C 45.9775 13.1787 46.0288 13.6173 46.1315 13.972C 46.2341 14.3173 46.3695 14.5973 46.5375 14.812C 46.7148 15.0267 46.9248 15.1807 47.1675 15.274C 47.4101 15.3673 47.6715 15.414 47.9515 15.414C 48.2315 15.414 48.4928 15.3673 48.7355 15.274C 48.9875 15.1807 49.2021 15.0267 49.3795 14.812C 49.5661 14.5973 49.7108 14.3173 49.8135 13.972C 49.9255 13.6173 49.9815 13.1787 49.9815 12.656ZM 59.3755 8.302C 59.4968 8.162 59.6368 8.036 59.7955 7.924C 59.9635 7.812 60.1968 7.756 60.4955 7.756L 63.0155 7.756L 47.9795 27.482C 47.8581 27.6313 47.7135 27.7573 47.5455 27.86C 47.3775 27.9533 47.1721 28 46.9295 28L 44.3535 28L 59.3755 8.302ZM 64.0795 23.24C 64.0795 24.0053 63.9488 24.696 63.6875 25.312C 63.4355 25.928 63.0948 26.4553 62.6655 26.894C 62.2362 27.3233 61.7368 27.6593 61.1675 27.902C 60.5982 28.1353 60.0055 28.252 59.3895 28.252C 58.7175 28.252 58.0968 28.1353 57.5275 27.902C 56.9581 27.6593 56.4635 27.3233 56.0435 26.894C 55.6328 26.4553 55.3108 25.928 55.0775 25.312C 54.8441 24.696 54.7275 24.0053 54.7275 23.24C 54.7275 22.456 54.8441 21.7467 55.0775 21.112C 55.3108 20.4773 55.6328 19.9407 56.0435 19.502C 56.4635 19.0633 56.9581 18.7273 57.5275 18.494C 58.0968 18.2513 58.7175 18.13 59.3895 18.13C 60.0615 18.13 60.6821 18.2513 61.2515 18.494C 61.8301 18.7273 62.3248 19.0633 62.7355 19.502C 63.1555 19.9407 63.4822 20.4773 63.7155 21.112C 63.9581 21.7467 64.0795 22.456 64.0795 23.24ZM 61.4055 23.24C 61.4055 22.6987 61.3541 22.246 61.2515 21.882C 61.1488 21.518 61.0041 21.224 60.8175 21C 60.6401 20.776 60.4255 20.6173 60.1735 20.524C 59.9308 20.4213 59.6695 20.37 59.3895 20.37C 59.1095 20.37 58.8482 20.4213 58.6055 20.524C 58.3628 20.6173 58.1528 20.776 57.9755 21C 57.7981 21.224 57.6581 21.518 57.5555 21.882C 57.4621 22.246 57.4155 22.6987 57.4155 23.24C 57.4155 23.7627 57.4621 24.2013 57.5555 24.556C 57.6581 24.9107 57.7981 25.1953 57.9755 25.41C 58.1528 25.6247 58.3628 25.7787 58.6055 25.872C 58.8482 25.9653 59.1095 26.012 59.3895 26.012C 59.6695 26.012 59.9308 25.9653 60.1735 25.872C 60.4255 25.7787 60.6401 25.6247 60.8175 25.41C 61.0041 25.1953 61.1488 24.9107 61.2515 24.556C 61.3541 24.2013 61.4055 23.7627 61.4055 23.24Z"/>
</defs>
</svg>
