<svg width="30" height="30" viewBox="0 0 30 30" version="1.1" xmlns="http://www.w3.org/2000/svg" xmlns:xlink="http://www.w3.org/1999/xlink">
    <title>soup</title>
    <desc>Created using Figma</desc>
    <g id="Canvas" transform="translate(-21189 -28428)">
        <g id="soup">
            <g id="Ellipse">
                <mask id="mask0_outline_ins">
                    <path d="M 29.7567 15C 29.7567 23.2843 23.0955 30 14.8784 30C 6.66127 30 0 23.2843 0 15C 0 6.71573 6.66127 0 14.8784 0C 23.0955 0 29.7567 6.71573 29.7567 15Z" fill="white" transform="translate(21189 28428)"></path>
                </mask>
                <g mask="url(#mask0_outline_ins)">
                    <path d="M 28.7567 15C 28.7567 22.7397 22.5355 29 14.8784 29L 14.8784 31C 23.6554 31 30.7567 23.8289 30.7567 15L 28.7567 15ZM 14.8784 29C 7.22122 29 1 22.7397 1 15L -1 15C -1 23.8289 6.10133 31 14.8784 31L 14.8784 29ZM 1 15C 1 7.26032 7.22122 1 14.8784 1L 14.8784 -1C 6.10133 -1 -1 6.17114 -1 15L 1 15ZM 14.8784 1C 22.5355 1 28.7567 7.26032 28.7567 15L 30.7567 15C 30.7567 6.17114 23.6554 -1 14.8784 -1L 14.8784 1Z" transform="translate(21189 28428)" fill="#A7A9B5"></path>
                </g>
            </g>
            <g id="Vector">
                <path d="M 5.89018 3.93538C 5.89018 1.72861 4.59654 -2.51825e-07 2.94509 -2.51825e-07C 1.29364 -2.51825e-07 9.96997e-07 1.72861 9.96997e-07 3.93538C 9.96997e-07 5.88693 1.01201 7.4636 2.38822 7.80236L 2.38822 19.4826C 2.38822 19.7824 2.63755 20.0254 2.94509 20.0254C 3.25263 20.0254 3.50196 19.7824 3.50196 19.4826L 3.50196 7.80236C 4.87816 7.46353 5.89018 5.88686 5.89018 3.93538ZM 2.94509 6.785C 1.95238 6.785 1.11374 5.48006 1.11374 3.93538C 1.11374 2.3907 1.95238 1.08576 2.94509 1.08576C 3.9378 1.08576 4.77644 2.3907 4.77644 3.93538C 4.77644 5.48006 3.9378 6.785 2.94509 6.785Z" transform="matrix(0.5999 -0.800075 0.795352 0.606148 21199.5 28443.3)" fill="#A7A9B5"></path>
            </g>
            <g id="Ellipse">
                <mask id="mask1_outline_ins">
                    <path d="M 19.8378 10C 19.8378 15.5228 15.397 20 9.91891 20C 4.44085 20 0 15.5228 0 10C 0 4.47715 4.44085 0 9.91891 0C 15.397 0 19.8378 4.47715 19.8378 10Z" fill="white" transform="translate(21194 28433)"></path>
                </mask>
                <g mask="url(#mask1_outline_ins)">
                    <path d="M 19.0878 10C 19.0878 15.1144 14.977 19.25 9.91891 19.25L 9.91891 20.75C 15.8169 20.75 20.5878 15.9313 20.5878 10L 19.0878 10ZM 9.91891 19.25C 4.86081 19.25 0.75 15.1144 0.75 10L -0.75 10C -0.75 15.9313 4.02089 20.75 9.91891 20.75L 9.91891 19.25ZM 0.75 10C 0.75 4.8856 4.86081 0.75 9.91891 0.75L 9.91891 -0.75C 4.02089 -0.75 -0.75 4.06871 -0.75 10L 0.75 10ZM 9.91891 0.75C 14.977 0.75 19.0878 4.8856 19.0878 10L 20.5878 10C 20.5878 4.06871 15.8169 -0.75 9.91891 -0.75L 9.91891 0.75Z" transform="translate(21194 28433)" fill="#A7A9B5"></path>
                </g>
            </g>
            <g id="Ellipse">
                <mask id="mask2_outline_ins">
                    <path d="M 14.8784 7.5C 14.8784 11.6421 11.5477 15 7.43919 15C 3.33064 15 0 11.6421 0 7.5C 0 3.35786 3.33064 0 7.43919 0C 11.5477 0 14.8784 3.35786 14.8784 7.5Z" fill="white" transform="translate(21196.4 28435.5)"></path>
                </mask>
                <g mask="url(#mask2_outline_ins)">
                    <path d="M 14.1284 7.5C 14.1284 11.2337 11.1278 14.25 7.43919 14.25L 7.43919 15.75C 11.9677 15.75 15.6284 12.0506 15.6284 7.5L 14.1284 7.5ZM 7.43919 14.25C 3.7506 14.25 0.75 11.2337 0.75 7.5L -0.75 7.5C -0.75 12.0506 2.91068 15.75 7.43919 15.75L 7.43919 14.25ZM 0.75 7.5C 0.75 3.76631 3.7506 0.75 7.43919 0.75L 7.43919 -0.75C 2.91068 -0.75 -0.75 2.94942 -0.75 7.5L 0.75 7.5ZM 7.43919 0.75C 11.1278 0.75 14.1284 3.76631 14.1284 7.5L 15.6284 7.5C 15.6284 2.94942 11.9677 -0.75 7.43919 -0.75L 7.43919 0.75Z" transform="translate(21196.4 28435.5)" fill="#A7A9B5"></path>
                </g>
            </g>
        </g>
    </g>
</svg>
