<svg width="25" height="33" viewBox="0 0 25 33" version="1.1" xmlns="http://www.w3.org/2000/svg" xmlns:xlink="http://www.w3.org/1999/xlink">
    <title>white-meat</title>
    <desc>Created using Figma</desc>
    <g id="Canvas" transform="translate(-21278 -28427)">
        <g id="white-meat">
            <g id="Group">
                <g id="Vector">
                    <path d="M 31.6674 2.43446C 31.3625 2.13137 30.9824 1.91653 30.5654 1.8088C 30.4565 1.39433 30.241 1.01639 29.9361 0.713296C 29.4739 0.253184 28.8592 0 28.2048 0C 27.5503 0 26.9356 0.253184 26.4734 0.713296C 26.0106 1.1728 25.7559 1.78446 25.7559 2.43446C 25.7559 2.87692 25.8735 3.30051 26.0945 3.67177L 24.1091 5.6455C 22.6196 5.24504 20.4695 5.57612 18.2092 6.65276C 16.8917 6.28151 15.4695 6.08614 14.0804 6.08614C 6.72166 6.08614 1.224 11.2271 1.224 15.824C 1.224 16.8318 1.45848 17.749 1.92254 18.5597C 0.880554 19.1044 0.187531 20.1506 0.0956993 20.2955C -0.0408238 20.5085 -0.030416 20.7836 0.121412 20.9856C 0.185082 21.0702 1.69785 23.0561 3.67346 23.0561C 4.37567 23.0561 5.05767 22.9295 5.64417 22.6897C 6.47433 22.3501 7.45447 22.2887 8.40401 22.5139C 10.1158 22.921 12.0259 23.1273 14.0804 23.1273C 21.8904 23.1273 26.9369 20.2608 26.9369 15.824C 26.9369 14.1771 26.2267 12.4376 24.9276 10.8838C 25.4302 10.2211 25.7743 9.55768 25.9549 8.92654L 25.9788 8.95028L 28.6927 6.2529C 29.6147 6.79518 30.8924 6.64911 31.668 5.87617C 32.1309 5.41667 32.3855 4.80501 32.3855 4.15501C 32.3849 3.50562 32.1302 2.89396 31.6674 2.43446ZM 25.7124 15.824C 25.7124 20.0283 19.8701 21.9101 14.0804 21.9101C 12.122 21.9101 10.3074 21.7147 8.68747 21.3301C 8.21974 21.2187 7.74528 21.1639 7.27632 21.1639C 6.54473 21.1639 5.82722 21.2985 5.17766 21.5638C 4.73748 21.7433 4.2171 21.8383 3.67224 21.8383C 2.71168 21.8383 1.82887 21.0544 1.39114 20.5906C 1.74744 20.1555 2.34741 19.5736 2.97248 19.4659C 3.18553 19.4288 3.36307 19.2833 3.44021 19.0825C 3.51735 18.8816 3.48123 18.6552 3.34715 18.4873C 2.74229 17.7314 2.44843 16.8604 2.44843 15.824C 2.44843 11.8838 7.52978 7.30337 14.0804 7.30337C 15.434 7.30337 16.8195 7.50482 18.088 7.88581C 18.2361 7.93024 18.3984 7.91685 18.5379 7.84808C 21.6229 6.31802 24.1568 6.44096 24.7347 7.43057C 25.3892 8.55103 23.8354 11.1169 20.5601 13.0079C 19.0112 13.902 17.398 14.4552 16.0181 14.5654C 14.8157 14.6615 13.9396 14.4004 13.617 13.849L 12.5585 14.4607C 13.1346 15.4472 14.3939 15.9153 16.116 15.7789C 17.6747 15.6548 19.471 15.0443 21.1747 14.0608C 22.3337 13.3919 23.3285 12.6214 24.1146 11.8199C 25.1486 13.1108 25.7124 14.5154 25.7124 15.824ZM 30.8018 5.01681C 30.3389 5.47631 29.5333 5.47631 29.0704 5.01681C 28.831 4.77884 28.4441 4.77884 28.2048 5.01681L 25.9781 7.23034C 25.9304 7.08792 25.8704 6.95037 25.7939 6.81952C 25.658 6.58642 25.4792 6.38619 25.2698 6.21395L 27.3397 4.15623C 27.4548 4.04181 27.5191 3.88722 27.5191 3.72594C 27.5191 3.56465 27.4542 3.41006 27.3397 3.29565C 27.1077 3.06498 26.9803 2.75946 26.9803 2.43446C 26.9803 2.10946 27.1077 1.80393 27.3391 1.57388C 27.8019 1.11376 28.6076 1.11376 29.0704 1.57388C 29.3392 1.84045 29.409 2.15449 29.42 2.37055C 29.4365 2.68155 29.6869 2.93048 29.9991 2.94691C 30.2171 2.95847 30.5324 3.02786 30.8018 3.29504C 31.0332 3.52509 31.1605 3.83062 31.1605 4.15562C 31.1605 4.48062 31.0332 4.78675 30.8018 5.01681Z" transform="matrix(0.909876 -0.414881 0.411088 0.911596 21271 28439.4)" fill="#A7A9B5"></path>
                </g>
            </g>
        </g>
    </g>
</svg>
