<svg viewBox="0 0 101 85" version="1.1" xmlns="http://www.w3.org/2000/svg" xmlns:xlink="http://www.w3.org/1999/xlink">
    <g id="Canvas" transform="translate(-18313 -26693)">
        <g id="Group 3.4">
            <g class="logo-mark">
              <g id="Vector" class="logo-fill-green">
                  <path d="M 1.4963 -2.0509e-06C 1.2998 -2.0509e-06 1.10523 0.0389402 0.92369 0.114592C 0.742151 0.190244 0.577196 0.301125 0.438253 0.440911C 0.299309 0.580697 0.189096 0.746652 0.113901 0.929292C 0.0387047 1.11193 -2.85396e-06 1.30768 -2.85396e-06 1.50537L -2.85396e-06 35.5374C 0.0351456 35.9104 0.207276 36.2568 0.482744 36.5089C 0.758212 36.761 1.11723 36.9007 1.48962 36.9007C 1.86201 36.9007 2.22102 36.761 2.49648 36.5089C 2.77195 36.2568 2.94408 35.9104 2.97923 35.5374L 2.97923 1.50537C 2.97925 1.10844 2.82343 0.727566 2.54571 0.445638C 2.26798 0.16371 1.89082 0.00354197 1.4963 -2.0509e-06Z" transform="translate(18357.8 26693)" fill="#99E540"></path>
              </g>
              <g id="Vector">
                  <path d="M 1.50298 -1.23054e-06C 1.10614 -1.23054e-06 0.725544 0.1586 0.444934 0.440912C 0.164325 0.723223 0.0066788 1.10612 0.0066788 1.50537L 0.0066788 11.7204C -0.0129916 11.9291 0.0109009 12.1397 0.0768148 12.3386C 0.142729 12.5375 0.249208 12.7203 0.389445 12.8754C 0.529682 13.0305 0.700579 13.1544 0.891181 13.2392C 1.08178 13.324 1.28789 13.3678 1.49629 13.3678C 1.7047 13.3678 1.91081 13.324 2.10141 13.2392C 2.29201 13.1544 2.4629 13.0305 2.60314 12.8754C 2.74337 12.7203 2.84986 12.5375 2.91578 12.3386C 2.98169 12.1397 3.00558 11.9291 2.98591 11.7204L 2.98591 1.50537C 2.98593 1.10844 2.83011 0.727567 2.55239 0.445639C 2.27466 0.163711 1.8975 0.00354279 1.50298 -1.23054e-06Z" transform="translate(18335.1 26704.9)" fill="#FFFFFF"></path>
              </g>
              <g id="Vector">
                  <path d="M 1.48961 -8.2036e-07C 1.09509 0.0035432 0.717927 0.163711 0.4402 0.44564C 0.162474 0.727568 0.00666879 1.10844 0.00668451 1.50537L 0.00668451 25.3493C -0.0129858 25.5581 0.0108964 25.7686 0.0768103 25.9675C 0.142724 26.1664 0.249214 26.3493 0.389451 26.5044C 0.529688 26.6595 0.700584 26.7834 0.891187 26.8682C 1.08179 26.953 1.28789 26.9968 1.4963 26.9968C 1.7047 26.9968 1.9108 26.953 2.10141 26.8682C 2.29201 26.7834 2.46291 26.6595 2.60314 26.5044C 2.74338 26.3493 2.84987 26.1664 2.91578 25.9675C 2.9817 25.7686 3.00558 25.5581 2.98591 25.3493L 2.98591 1.50537C 2.98591 1.10612 2.82826 0.723224 2.54765 0.440912C 2.26704 0.158601 1.88645 -8.2036e-07 1.48961 -8.2036e-07Z" transform="translate(18346.4 26698.1)" fill="#FFFFFF"></path>
              </g>
              <g id="Vector">
                  <path d="M 1.46957 0.000242316C 1.07968 0.00723291 0.707912 0.167076 0.433424 0.445739C 0.158936 0.724402 0.00341981 1.09987 0 1.49217L 0 30.3227C 4.73073e-08 30.7219 0.157646 31.1048 0.438256 31.3871C 0.718865 31.6694 1.09946 31.828 1.4963 31.828C 1.89314 31.828 2.27372 31.6694 2.55433 31.3871C 2.83494 31.1048 2.99259 30.7219 2.99259 30.3227L 2.99259 1.49217C 2.99085 1.29333 2.94998 1.09682 2.87233 0.91396C 2.79468 0.731104 2.6818 0.565536 2.54019 0.42682C 2.39859 0.288103 2.23107 0.178978 2.04731 0.105761C 1.86355 0.0325445 1.66719 -0.00331611 1.46957 0.000242316Z" transform="translate(18352.1 26695.6)" fill="#FFFFFF"></path>
              </g>
              <g id="Vector">
                  <path d="M 1.50298 1.64192e-06C 1.10844 -1.41799e-05 0.729863 0.156735 0.449634 0.436146C 0.169406 0.715557 0.0102027 1.09502 0.00668003 1.49193L 0.00668003 29.1665C -0.0129903 29.3752 0.010892 29.5858 0.0768058 29.7847C 0.14272 29.9836 0.249209 30.1665 0.389446 30.3216C 0.529684 30.4767 0.70058 30.6006 0.891182 30.6854C 1.08178 30.7702 1.28789 30.814 1.49629 30.814C 1.7047 30.814 1.91081 30.7702 2.10141 30.6854C 2.29201 30.6006 2.4629 30.4767 2.60314 30.3216C 2.74338 30.1665 2.84986 29.9836 2.91578 29.7847C 2.98169 29.5858 3.00558 29.3752 2.98591 29.1665L 2.98591 1.49193C 2.98591 1.09625 2.82968 0.716768 2.55157 0.436977C 2.27347 0.157186 1.89628 1.64192e-06 1.50298 1.64192e-06Z" transform="translate(18363.5 26696.2)" fill="#FFFFFF"></path>
              </g>
              <g id="Vector">
                  <path d="M 1.48293 -2.0497e-06C 1.08963 -2.0497e-06 0.712449 0.157183 0.434344 0.436973C 0.15624 0.716764 -7.33874e-06 1.09624 -7.33874e-06 1.49193L -7.33874e-06 24.1262C 0.0351411 24.4992 0.207271 24.8456 0.482739 25.0977C 0.758207 25.3498 1.11722 25.4895 1.48961 25.4895C 1.86201 25.4895 2.22102 25.3498 2.49649 25.0977C 2.77196 24.8456 2.94409 24.4992 2.97924 24.1262L 2.97924 1.49193C 2.97571 1.09501 2.81651 0.715564 2.53628 0.436153C 2.25605 0.156742 1.87747 -1.78715e-05 1.48293 -2.0497e-06Z" transform="translate(18369.2 26698.7)" fill="#FFFFFF"></path>
              </g>
              <g id="Vector">
                  <path d="M 1.51116 7.66546e-05C 1.30779 -0.00195467 1.10614 0.0377467 0.918532 0.116752C 0.730928 0.195758 0.561294 0.312406 0.420007 0.459581C 0.27872 0.606757 0.168756 0.781362 0.0967969 0.972737C 0.0248383 1.16411 -0.0075942 1.36824 0.00149516 1.57265L 0.00149516 15.4973C 0.00149516 15.8966 0.159131 16.2795 0.439741 16.5618C 0.72035 16.8441 1.10094 17.0027 1.49778 17.0027C 1.89463 17.0027 2.27522 16.8441 2.55583 16.5618C 2.83644 16.2795 2.99409 15.8966 2.99409 15.4973L 2.99409 1.57265C 3.00308 1.3705 2.97146 1.16862 2.90113 0.979044C 2.83081 0.789471 2.72322 0.616107 2.58479 0.469313C 2.44637 0.322519 2.27993 0.205302 2.09546 0.124679C 1.91099 0.0440562 1.71228 0.00168129 1.51116 7.66546e-05Z" transform="translate(18374.9 26703.1)" fill="#FFFFFF"></path>
              </g>
              <g id="Vector">
                  <path d="M 1.50297 -4.1018e-06C 1.30648 -4.1018e-06 1.11191 0.0389382 0.930369 0.11459C 0.74883 0.190242 0.583875 0.301123 0.444931 0.440909C 0.305987 0.580695 0.195775 0.74665 0.120579 0.92929C 0.0453831 1.11193 0.00668574 1.30768 0.00668574 1.50537L 0.00668574 10.4032C -0.0129846 10.6119 0.0108977 10.8225 0.0768115 11.0214C 0.142725 11.2203 0.249205 11.4031 0.389442 11.5582C 0.529679 11.7133 0.700586 11.8372 0.891188 11.922C 1.08179 12.0068 1.28788 12.0506 1.49629 12.0506C 1.70469 12.0506 1.91081 12.0068 2.10141 11.922C 2.29201 11.8372 2.4629 11.7133 2.60313 11.5582C 2.74337 11.4031 2.84987 11.2203 2.91578 11.0214C 2.9817 10.8225 3.00558 10.6119 2.98591 10.4032L 2.98591 1.50537C 2.98593 1.10844 2.83012 0.727564 2.55239 0.445636C 2.27467 0.163708 1.8975 0.00353992 1.50297 -4.1018e-06Z" transform="translate(18380.6 26705.6)" fill="#FFFFFF"></path>
              </g>
              <g id="Vector">
                  <path d="M 1.48961 0C 1.09509 0.00354402 0.717921 0.163712 0.440194 0.44564C 0.162468 0.727568 0.00666267 1.10844 0.0066784 1.50537L 0.0066784 21.0214C -0.012992 21.2301 0.0108903 21.4407 0.0768042 21.6396C 0.142718 21.8385 0.249218 22.0214 0.389455 22.1764C 0.529692 22.3315 0.700578 22.4555 0.89118 22.5403C 1.08178 22.625 1.2879 22.6688 1.4963 22.6688C 1.7047 22.6688 1.9108 22.625 2.1014 22.5403C 2.292 22.4555 2.46291 22.3315 2.60315 22.1764C 2.74338 22.0214 2.84986 21.8385 2.91578 21.6396C 2.98169 21.4407 3.00557 21.2301 2.9859 21.0214L 2.9859 1.50537C 2.9859 1.10612 2.82827 0.723224 2.54766 0.440913C 2.26705 0.158602 1.88646 1.91005e-14 1.48961 0Z" transform="translate(18386.2 26700.3)" fill="#FFFFFF"></path>
              </g>
              <g id="Vector">
                  <path d="M 1.48293 8.21558e-07C 1.08963 8.21558e-07 0.712447 0.157185 0.434343 0.436976C 0.156238 0.716767 -8.96958e-06 1.09625 -8.96958e-06 1.49193L -8.96958e-06 30.1477C 0.0351395 30.5207 0.20727 30.8671 0.482738 31.1192C 0.758206 31.3713 1.11722 31.511 1.48961 31.511C 1.86201 31.511 2.22102 31.3713 2.49649 31.1192C 2.77196 30.8671 2.94409 30.5207 2.97924 30.1477L 2.97924 1.49193C 2.97571 1.09501 2.81651 0.715556 2.53628 0.436146C 2.25605 0.156735 1.87747 -1.50003e-05 1.48293 8.21558e-07Z" transform="translate(18391.9 26695.7)" fill="#FFFFFF"></path>
              </g>
              <g id="Vector">
                  <path d="M 1.50297 -4.51079e-06C 1.10843 -2.03326e-05 0.729855 0.15674 0.449626 0.43615C 0.169397 0.715561 0.0102043 1.09501 0.00668166 1.49192L 0.00668166 18.9649C -0.0129887 19.1737 0.0108936 19.3842 0.0768074 19.5832C 0.142721 19.7821 0.249211 19.9649 0.389448 20.12C 0.529685 20.2751 0.700582 20.399 0.891184 20.4838C 1.08179 20.5686 1.28789 20.6124 1.49629 20.6124C 1.7047 20.6124 1.9108 20.5686 2.1014 20.4838C 2.29201 20.399 2.4629 20.2751 2.60314 20.12C 2.74338 19.9649 2.84987 19.7821 2.91578 19.5832C 2.98169 19.3842 3.00558 19.1737 2.98591 18.9649L 2.98591 1.49192C 2.98591 1.09624 2.82967 0.716761 2.55156 0.436971C 2.27346 0.15718 1.89627 -4.51079e-06 1.50297 -4.51079e-06Z" transform="translate(18340.7 26701.3)" fill="#FFFFFF"></path>
              </g>
            </g>

            <g id="Vector">
                <path d="M 14.1346 2.87126e-06L 8.38994 2.87126e-06L 5.79814 2.87126e-06L -4.07708e-06 2.87126e-06L -4.07708e-06 2.60751L 5.79814 2.60751L 5.79814 14.2203L 8.38994 14.2203L 8.38994 2.60751L 14.1346 2.60751L 14.1346 2.87126e-06Z" transform="translate(18313 26743.3)" fill="#FFFFFF"></path>
            </g>
            <g id="Vector">
                <path d="M 2.56508 -2.87126e-06L 9.78499e-06 -2.87126e-06L 9.78499e-06 14.2338L 2.56508 14.2338L 2.56508 -2.87126e-06Z" transform="translate(18386 26743.3)" fill="#FFFFFF"></path>
            </g>
            <g id="Vector">
                <path class="logo-green" d="M 14.1346 2.58063L 14.1346 2.87126e-06L -2.03854e-06 2.87126e-06L -2.03854e-06 2.58063L 5.77142 2.58063L 5.77142 7.41931L 0.093516 13.1316L 1.89708 14.9596L 7.05396 9.77145L 12.1975 14.9596L 14.0144 13.1316L 8.32314 7.41931L 8.32314 2.58063L 14.1346 2.58063Z" transform="translate(18360.6 26743.3)" fill="#99E540"></path>
            </g>
            <g id="Vector">
                <path d="M 7.69524 2.58064C 8.71253 2.58064 9.70697 2.88413 10.5528 3.45273C 11.3987 4.02134 12.0579 4.82952 12.4472 5.77507C 12.8365 6.72062 12.9384 7.76108 12.7399 8.76488C 12.5415 9.76867 12.0516 10.6907 11.3322 11.4144C 10.6129 12.1381 9.69643 12.631 8.69869 12.8306C 7.70094 13.0303 6.66675 12.9278 5.72689 12.5361C 4.78704 12.1445 3.98374 11.4812 3.41856 10.6303C 2.85339 9.77928 2.55172 8.77881 2.55172 7.75535C 2.55172 6.38293 3.09363 5.06672 4.05823 4.09627C 5.02282 3.12583 6.33109 2.58064 7.69524 2.58064ZM 7.69524 1.00075e-05C 6.17119 0.00266735 4.68213 0.45977 3.41622 1.31355C 2.15031 2.16733 1.16435 3.37948 0.582953 4.79681C 0.00155594 6.21415 -0.149192 7.77305 0.149753 9.27656C 0.448698 10.7801 1.18392 12.1607 2.26252 13.2439C 3.34111 14.3272 4.71467 15.0645 6.20963 15.3626C 7.70458 15.6608 9.25383 15.5064 10.6616 14.919C 12.0694 14.3317 13.2725 13.3376 14.119 12.0626C 14.9654 10.7875 15.4172 9.28864 15.4172 7.75535C 15.4172 6.73577 15.2174 5.7262 14.8291 4.7844C 14.4409 3.84261 13.8719 2.98706 13.1547 2.26674C 12.4374 1.54641 11.5861 0.975437 10.6493 0.586486C 9.71249 0.197535 8.70867 -0.00175702 7.69524 1.00075e-05Z" transform="translate(18335.8 26742.6)" fill="#FFFFFF"></path>
            </g>
            <g id="Vector">
                <path d="M 7.69524 2.58064C 8.71253 2.58064 9.70698 2.88413 10.5528 3.45273C 11.3987 4.02134 12.0579 4.82952 12.4472 5.77507C 12.8365 6.72062 12.9384 7.76108 12.7399 8.76488C 12.5414 9.76867 12.0516 10.6907 11.3322 11.4144C 10.6129 12.1381 9.69643 12.631 8.69869 12.8306C 7.70095 13.0303 6.66674 12.9278 5.72689 12.5361C 4.78703 12.1445 3.98374 11.4812 3.41857 10.6303C 2.85339 9.77928 2.55172 8.77881 2.55172 7.75535C 2.55524 6.38402 3.09828 5.06987 4.06211 4.10019C 5.02595 3.13052 6.33218 2.58419 7.69524 2.58064ZM 7.69524 1.00075e-05C 6.1712 0.00266735 4.68213 0.45977 3.41622 1.31355C 2.15031 2.16733 1.16435 3.37948 0.582957 4.79681C 0.00156044 6.21415 -0.149197 7.77305 0.149747 9.27656C 0.448692 10.7801 1.18391 12.1607 2.26251 13.2439C 3.34111 14.3272 4.71468 15.0645 6.20963 15.3626C 7.70459 15.6608 9.25384 15.5064 10.6616 14.919C 12.0694 14.3317 13.2725 13.3376 14.119 12.0626C 14.9654 10.7875 15.4172 9.28864 15.4172 7.75535C 15.4172 6.73577 15.2174 5.7262 14.8291 4.7844C 14.4409 3.84261 13.8719 2.98706 13.1547 2.26674C 12.4374 1.54641 11.5861 0.975437 10.6493 0.586486C 9.7125 0.197535 8.70867 -0.00175702 7.69524 1.00075e-05Z" transform="translate(18398.6 26742.6)" fill="#FFFFFF"></path>
            </g>
            <g id="Vector">
                <path d="M -8.15416e-07 6.21257L 0.721428 5.12387C 1.37927 5.64506 2.18284 5.94588 3.01931 5.98408C 3.70066 5.98408 4.10145 5.68838 4.10145 5.20451C 4.10145 4.72065 3.4201 4.49216 2.65859 4.26366L 2.53836 4.26366C 1.4963 3.95453 0.347356 3.53787 0.347356 2.15347C 0.359866 1.84379 0.435988 1.54007 0.570923 1.26145C 0.705858 0.982831 0.896683 0.735335 1.13138 0.534571C 1.36607 0.333806 1.63955 0.184125 1.93458 0.0949393C 2.22962 0.00575374 2.53981 -0.021004 2.84563 0.0163693C 3.75835 0.0290283 4.64842 0.304211 5.41071 0.809391L 4.7828 1.95185C 4.18898 1.5691 3.50907 1.34265 2.80555 1.29326C 2.17764 1.29326 1.81693 1.58895 1.81693 2.01905C 1.81693 2.44916 2.49828 2.71798 3.25979 2.97336L 3.39338 2.97336C 4.42209 3.29594 5.57102 3.75291 5.57102 5.05666C 5.57102 6.36042 4.43545 7.26097 2.97923 7.26097C 1.89845 7.25143 0.851074 6.88284 -8.15416e-07 6.21257Z" transform="translate(18340.6 26770.7)" fill="#FFFFFF"></path>
            </g>
            <g id="Vector">
                <path d="M 0.0136856 4.51611L 0.0136856 0.0268758L 1.61686 0.0268758L 1.61686 4.05911C 1.61686 5.16126 2.16461 5.77953 3.12652 5.77953C 3.349 5.78504 3.57006 5.74227 3.77465 5.65414C 3.97924 5.566 4.16255 5.43456 4.31213 5.26877C 4.46171 5.10298 4.57404 4.90673 4.64149 4.69335C 4.70893 4.47998 4.7299 4.2545 4.70297 4.03225L 4.70297 9.02397e-06L 6.30615 9.02397e-06L 6.30615 7.04297L 4.70297 7.04297L 4.70297 5.95427C 4.4768 6.33483 4.15555 6.64921 3.77117 6.86614C 3.3868 7.08307 2.95268 7.19501 2.51197 7.19082C 2.16586 7.20636 1.8205 7.14649 1.49954 7.01528C 1.17857 6.88408 0.889567 6.68463 0.652319 6.43063C 0.415072 6.17663 0.235185 5.87406 0.124959 5.54362C 0.0147338 5.21318 -0.0232287 4.86268 0.0136856 4.51611Z" transform="translate(18351.1 26770.8)" fill="#FFFFFF"></path>
            </g>
            <g id="Vector">
                <path d="M 1.63083e-06 6.18573L 0.708068 5.12392C 1.36224 5.64249 2.16074 5.94315 2.99259 5.98413C 3.6873 5.98413 4.08809 5.68843 4.08809 5.20456C 4.08809 4.72069 3.40675 4.4922 2.63188 4.26371L 2.51164 4.26371C 1.48293 3.95457 0.333996 3.53789 0.333996 2.15349C 0.344697 1.84442 0.419145 1.54096 0.552619 1.26238C 0.686094 0.98379 0.875674 0.736162 1.10933 0.535209C 1.34299 0.334257 1.61563 0.184375 1.90993 0.0950656C 2.20423 0.00575594 2.51378 -0.0210344 2.81892 0.0164135C 3.73574 0.0294962 4.62997 0.304516 5.39735 0.809415L 4.75608 1.95189C 4.16404 1.5654 3.48315 1.33859 2.77884 1.29328C 2.16429 1.29328 1.80357 1.58899 1.80357 2.0191C 1.80357 2.4492 2.47156 2.71801 3.24643 2.97338L 3.38002 2.97338C 4.39537 3.29596 5.55766 3.75295 5.55766 5.05671C 5.55766 6.36047 4.40872 7.261 2.88571 7.261C 1.83347 7.22629 0.820853 6.84897 1.63083e-06 6.18573Z" transform="translate(18362.1 26770.7)" fill="#FFFFFF"></path>
            </g>
            <g id="Vector">
                <path d="M -4.8925e-06 -5.74252e-06L 1.60316 -5.74252e-06L 1.60316 3.79031C 1.82832 3.40882 2.14935 3.0937 2.53396 2.87663C 2.91857 2.65956 3.35321 2.54821 3.79417 2.55376C 4.14104 2.53764 4.48724 2.59769 4.80871 2.72978C 5.13017 2.86187 5.41918 3.06282 5.65566 3.31864C 5.89214 3.57446 6.07041 3.87902 6.17808 4.21115C 6.28574 4.54328 6.32019 4.89502 6.27909 5.24191L 6.27909 9.7177L 4.67592 9.7177L 4.67592 5.68546C 4.67592 4.58332 4.12817 3.96502 3.17963 3.96502C 2.95714 3.95952 2.73608 4.0023 2.53149 4.09044C 2.32691 4.17857 2.14359 4.31001 1.99401 4.4758C 1.84443 4.64159 1.73211 4.83785 1.66467 5.05122C 1.59722 5.2646 1.57624 5.49007 1.60316 5.71233L 1.60316 9.67736L -4.8925e-06 9.67736L -4.8925e-06 -5.74252e-06Z" transform="translate(18372.6 26768.1)" fill="#FFFFFF"></path>
            </g>
            <g id="Vector">
                <path d="M 0 -9.02397e-06L 1.7234 -9.02397e-06L 1.7234 1.53224L 0 1.53224L 0 -9.02397e-06ZM 0 2.60751L 1.60317 2.60751L 1.60317 9.65049L 0 9.65049L 0 2.60751Z" transform="translate(18384.2 26768.2)" fill="#FFFFFF"></path>
            </g>
        </g>
    </g>
</svg>
