<svg width="101" height="85" viewBox="0 0 101 85" xmlns="http://www.w3.org/2000/svg">
    <g class="logo-mark">
        <path d="M46.296 0a1.488 1.488 0 0 0-1.058.44 1.506 1.506 0 0 0-.438 1.065v34.032c.035.373.207.72.483.972a1.491 1.491 0 0 0 2.013 0c.276-.252.448-.599.483-.972V1.505a1.51 1.51 0 0 0-.433-1.06A1.492 1.492 0 0 0 46.296 0z" fill="#99E540" class="logo-fill-green"/>
        <path d="M23.603 11.9c-.397 0-.777.159-1.058.44a1.51 1.51 0 0 0-.438 1.065V23.62a1.514 1.514 0 0 0 .382 1.155 1.497 1.497 0 0 0 1.107.493 1.488 1.488 0 0 0 1.107-.493 1.507 1.507 0 0 0 .383-1.155V13.405a1.51 1.51 0 0 0-.434-1.06 1.492 1.492 0 0 0-1.049-.445z" fill="#FFF"/>
        <path d="M34.89 5.1a1.492 1.492 0 0 0-1.05.446 1.51 1.51 0 0 0-.433 1.06v23.843a1.514 1.514 0 0 0 .382 1.155 1.497 1.497 0 0 0 1.107.493 1.489 1.489 0 0 0 1.107-.493 1.508 1.508 0 0 0 .383-1.155V6.605c0-.399-.158-.782-.438-1.064A1.492 1.492 0 0 0 34.89 5.1z" fill="#FFF"/>
        <path d="M40.57 2.6c-.39.007-.762.167-1.037.446a1.51 1.51 0 0 0-.433 1.046v28.83c0 .4.158.783.438 1.065a1.492 1.492 0 0 0 2.116 0 1.51 1.51 0 0 0 .439-1.064V4.093a1.513 1.513 0 0 0-.453-1.066 1.495 1.495 0 0 0-1.07-.427z" fill="#FFF"/>
        <path d="M52.003 3.2c-.395 0-.773.157-1.053.436-.28.28-.44.659-.443 1.056v27.675a1.514 1.514 0 0 0 .382 1.155 1.497 1.497 0 0 0 1.107.492 1.488 1.488 0 0 0 1.107-.492 1.508 1.508 0 0 0 .383-1.155V4.692c0-.396-.156-.775-.434-1.055a1.478 1.478 0 0 0-1.049-.437z" fill="#FFF"/>
        <path d="M57.683 5.7c-.393 0-.77.157-1.049.437-.278.28-.434.66-.434 1.055v22.634c.035.373.207.72.483.972a1.491 1.491 0 0 0 2.013 0c.276-.252.448-.599.483-.972V7.192a1.51 1.51 0 0 0-.443-1.056 1.492 1.492 0 0 0-1.053-.436z" fill="#FFF"/>
        <path d="M63.411 10.1a1.489 1.489 0 0 0-1.091.46 1.507 1.507 0 0 0-.419 1.113v13.924c0 .4.158.782.439 1.065a1.492 1.492 0 0 0 2.116 0 1.51 1.51 0 0 0 .438-1.065V11.673a1.513 1.513 0 0 0-.41-1.104 1.496 1.496 0 0 0-1.073-.469z" fill="#FFF"/>
        <path d="M69.103 12.6a1.488 1.488 0 0 0-1.058.44 1.506 1.506 0 0 0-.438 1.065v8.898a1.514 1.514 0 0 0 .382 1.155 1.497 1.497 0 0 0 1.107.493 1.489 1.489 0 0 0 1.107-.493 1.507 1.507 0 0 0 .383-1.155v-8.898a1.51 1.51 0 0 0-.434-1.06 1.492 1.492 0 0 0-1.049-.445z" fill="#FFF"/>
        <path d="M74.69 7.3a1.492 1.492 0 0 0-1.05.446 1.51 1.51 0 0 0-.433 1.06V28.32a1.514 1.514 0 0 0 .382 1.155 1.497 1.497 0 0 0 1.107.493 1.49 1.49 0 0 0 1.107-.493 1.507 1.507 0 0 0 .383-1.155V8.805c0-.399-.158-.782-.438-1.064A1.492 1.492 0 0 0 74.69 7.3z" fill="#FFF"/>
        <path d="M80.383 2.7c-.393 0-.77.157-1.049.437-.278.28-.434.66-.434 1.055v28.656c.035.373.207.72.483.971a1.491 1.491 0 0 0 2.013 0c.276-.252.448-.598.483-.971V4.192a1.51 1.51 0 0 0-.443-1.056 1.492 1.492 0 0 0-1.053-.436z" fill="#FFF"/>
        <path d="M29.203 8.3c-.395 0-.773.157-1.053.436-.28.28-.44.659-.443 1.056v17.473a1.514 1.514 0 0 0 .382 1.155 1.497 1.497 0 0 0 1.107.492 1.488 1.488 0 0 0 1.107-.492 1.507 1.507 0 0 0 .383-1.155V9.792c0-.396-.156-.775-.434-1.055a1.478 1.478 0 0 0-1.049-.437z" fill="#FFF"/>
    </g>
    <path d="M14.135 50.3H0v2.608h5.798V64.52H8.39V52.908h5.745V50.3z" fill="#FFF"/>
    <path d="M75.565 50.3H73v14.234h2.565V50.3z" fill="#FFF"/>
    <path d="M61.735 52.88V50.3H47.6v2.58h5.771v4.84l-5.677 5.712 1.803 1.828 5.157-5.189 5.143 5.189 1.817-1.828-5.69-5.713v-4.838h5.81z" fill="#99E540"/>
    <path d="M30.495 52.18c1.018 0 2.012.304 2.858.873a5.168 5.168 0 0 1 1.894 2.322 5.204 5.204 0 0 1-1.115 5.64 5.114 5.114 0 0 1-5.605 1.122 5.15 5.15 0 0 1-2.308-1.907 5.197 5.197 0 0 1 .64-6.534 5.128 5.128 0 0 1 3.636-1.515zm0-2.58a7.676 7.676 0 0 0-4.279 1.314 7.746 7.746 0 0 0-2.833 3.483 7.8 7.8 0 0 0-.433 4.48 7.77 7.77 0 0 0 2.113 3.967 7.693 7.693 0 0 0 3.947 2.119 7.665 7.665 0 0 0 4.452-.444 7.719 7.719 0 0 0 3.457-2.856 7.79 7.79 0 0 0-.964-9.796 7.706 7.706 0 0 0-2.506-1.68 7.668 7.668 0 0 0-2.954-.587z" fill="#FFF"/>
    <path d="M93.295 52.18c1.018 0 2.012.304 2.858.873a5.168 5.168 0 0 1 1.894 2.322 5.204 5.204 0 0 1-1.115 5.64 5.114 5.114 0 0 1-5.605 1.122 5.15 5.15 0 0 1-2.308-1.907 5.197 5.197 0 0 1-.867-2.875 5.204 5.204 0 0 1 1.51-3.655 5.141 5.141 0 0 1 3.633-1.52zm0-2.58a7.676 7.676 0 0 0-4.279 1.314 7.746 7.746 0 0 0-2.833 3.483 7.8 7.8 0 0 0-.433 4.48 7.77 7.77 0 0 0 2.113 3.967 7.694 7.694 0 0 0 3.947 2.119 7.665 7.665 0 0 0 4.452-.444 7.719 7.719 0 0 0 3.457-2.856 7.79 7.79 0 0 0-.964-9.796 7.706 7.706 0 0 0-2.506-1.68 7.668 7.668 0 0 0-2.954-.587z" fill="#FFF"/>
    <path d="M27.6 83.913l.721-1.09a3.993 3.993 0 0 0 2.298.861c.682 0 1.082-.296 1.082-.78 0-.483-.68-.712-1.442-.94h-.12c-1.043-.31-2.192-.726-2.192-2.11a2.256 2.256 0 0 1 .784-1.62 2.227 2.227 0 0 1 1.715-.518 4.762 4.762 0 0 1 2.565.793l-.628 1.143a4.191 4.191 0 0 0-1.977-.659c-.628 0-.99.296-.99.726s.682.699 1.444.954h.133c1.03.323 2.178.78 2.178 2.084 0 1.303-1.136 2.204-2.592 2.204a4.884 4.884 0 0 1-2.979-1.048z" fill="#FFF"/>
    <path d="M38.114 82.316v-4.49h1.603v4.033c0 1.102.548 1.72 1.51 1.72a1.542 1.542 0 0 0 1.185-.51 1.561 1.561 0 0 0 .391-1.237V77.8h1.603v7.043h-1.603v-1.089a2.513 2.513 0 0 1-2.191 1.237 2.392 2.392 0 0 1-1.86-.76 2.422 2.422 0 0 1-.638-1.915z" fill="#FFF"/>
    <path d="M49.1 83.886l.708-1.062c.654.518 1.453.82 2.285.86.694 0 1.095-.296 1.095-.78 0-.483-.681-.712-1.456-.94h-.12c-1.03-.31-2.178-.726-2.178-2.11a2.242 2.242 0 0 1 .775-1.619 2.214 2.214 0 0 1 1.71-.519 4.816 4.816 0 0 1 2.578.793l-.64 1.143a4.098 4.098 0 0 0-1.978-.659c-.615 0-.975.296-.975.726s.668.699 1.442.954h.134c1.015.323 2.178.78 2.178 2.084 0 1.303-1.15 2.204-2.672 2.204a4.845 4.845 0 0 1-2.886-1.075z" fill="#FFF"/>
    <path d="M59.6 75.1h1.603v3.79c.225-.381.546-.696.931-.913a2.5 2.5 0 0 1 1.26-.323 2.379 2.379 0 0 1 1.862.765 2.41 2.41 0 0 1 .623 1.923v4.476h-1.603v-4.033c0-1.102-.548-1.72-1.496-1.72a1.542 1.542 0 0 0-1.186.51 1.561 1.561 0 0 0-.39 1.237v3.965H59.6V75.1z" fill="#FFF"/>
    <path d="M71.2 75.2h1.723v1.532H71.2V75.2zm0 2.608h1.603v7.042H71.2v-7.042z" fill="#FFF"/>
</svg>
